<ttFont>
          <CharString index="0">
            -26 -29 -36 -66 hhcurveto
            -42 -23 45 73 8 hvcurveto
            11 103 31 125 39 132 rrcurveto
            172 8 55 50 79 vvcurveto
            20 -5 16 -117 -12 -18 0 -1 -21 vhcurveto
            91 272 107 265 35 117 rrcurveto
            38 12 -31 47 -71 hhcurveto
            -365 -298 -417 -299 -183 hvcurveto
            -19 -31 -18 -29 -17 -29 -43 -10 rcurveline
            -77 -18 -82 -61 -40 vvcurveto
            -18 17 -9 43 8 vhcurveto
            63 9 -130 -231 -85 -167 -94 -63 rlinecurve
            -38 -26 -16 -14 -63 -25 rrcurveto
            -13 -23 31 -82 96 hhcurveto
            605 795 rmoveto
            154 265 171 296 248 63 -73 -147 -94 -220 -76 -230 -101 -2 -116 -10 -113 -15 rrcurveto
            return
          </CharString>
          <CharString index="1">
            79 9 78 71 99 vvcurveto
            87 -83 30 -53 -74 -97 -38 -96 -84 64 -88 86 10 vhcurveto
            return
          </CharString>
          <CharString index="2">
            hintmask 10100000
            48 170 rmoveto
            -107 68 -73 109 179 197 294 171 129 vhcurveto
            -29 -71 -34 -97 -16 -89 rrcurveto
            -140 -25 89 -68 91 hhcurveto
            117 60 68 39 24 hvcurveto
            42 24 8 -18 callgsubr
            -17 -31 -66 hhcurveto
            -41 -13 42 96 13 hvcurveto
            19 138 193 400 47 95 rrcurveto
            54 27 -75 44 -69 hhcurveto
            -28 -28 -20 -21 -16 hvcurveto
            -29 -37 -123 -230 -54 -86 rrcurveto
            -185 -98 -227 -287 -80 hhcurveto
            hintmask 10010000
            -90 callsubr
            return
          </CharString>
          <CharString index="3">
            77 361 rmoveto
            -260 -10 160 -111 179 10 callsubr
            149 33 93 92 hvcurveto
            -47 callgsubr
            -88 -88 -123 -36 -87 hhcurveto
            -97 -40 95 97 4 hvcurveto
            13 2 12 2 9 vhcurveto
            321 5 301 153 2 257 rrcurveto
            -52 callsubr
            -303 -290 -371 -303 -12 hvcurveto
            249 103 -87 callsubr
            return
          </CharString>
          <CharString index="4">
            rmoveto
            227 146 185 88 15 hvcurveto
            53 9 -30 27 -18 hhcurveto
            -14 -15 -7 -15 -7 hvcurveto
            -49 -24 -107 -115 -116 hhcurveto
            -95 -29 81 80 -5 hvcurveto
            27 -2 -22 0 -17 hhcurveto
            -38 -95 -38 -106 -131 111 -80 126 hvcurveto
            endchar
          </CharString>
          <CharString index="5">
            rmoveto
            -106 callsubr
            -460 hmoveto
            -85 callsubr
          </CharString>
          <CharString index="6">
            73 316 rmoveto
            -226 3 133 -100 179 hhcurveto
            322 275 383 332 -5 hvcurveto
            230 -3 -140 100 -162 hhcurveto
            -327 -280 -385 -334 5 hvcurveto
            218 -65 rmoveto
            289 -3 235 380 144 hhcurveto
            78 13 -67 -85 1 hvcurveto
            -257 3 -211 -406 -168 hhcurveto
            -67 -23 57 89 -2 hvcurveto
            return
          </CharString>
          <CharString index="7">
            rmoveto
            109 3 270 194 20 132 12 77 -50 69 -71 11 -42 callgsubr
            -23 -89 -64 -149 -118 -113 -31 -29 -22 -17 -3 -19 -2 -2 callgsubr
            39 1 rrcurveto
            endchar
          </CharString>
          <CharString index="8">
            39 125 rmoveto
            -98 66 -38 48 26 21 12 18 2 vhcurveto
            51 438 197 576 176 251 13 18 rcurveline
            -49 -393 68 -529 201 -285 rrcurveto
            -57 40 58 -40 48 hhcurveto
            18 17 6 14 14 hvcurveto
            16 16 2 16 20 vvcurveto
            20 -5 25 11 35 vhcurveto
            103 330 406 522 317 vvcurveto
            119 -65 119 -152 -51 -71 -52 -53 7 vhcurveto
            2 -13 9 -8 9 -4 rrcurveto
            59 -29 6 -86 -76 vvcurveto
            -269 -214 -337 -129 -334 vhcurveto
            -115 262 -86 581 71 279 8 34 3 27 -2 20 -5 52 -41 2 -50 -3 rrcurveto
            -355 -18 -386 -1105 -302 vvcurveto
            return
          </CharString>
          <CharString index="9">
            rmoveto
            75 26 67 39 105 87 26 -102 74 -54 83 -5 56 -4 62 31 -20 28 -53 66 -59 89 -17 86 -6 32 -95 49 -17 -17 -171 -163 -146 -77 -72 -21 -71 -23 78 -105 -21 callgsubr
          </CharString>
          <CharString index="10">
            -8 92 rmoveto
            -43 -31 53 -93 91 32 350 124 273 1036 -5 226 rrcurveto
            126 -3 -131 43 -109 hhcurveto
            -76 -168 -41 -66 -9 hvcurveto
            -7 -49 93 -81 42 23 54 30 43 33 54 2 rrcurveto
            -197 -240 -927 -262 -190 vhcurveto
            return
          </CharString>
          <CharString index="11">
            321 -10 rmoveto
            160 103 117 111 74 hvcurveto
            -25 -93 -40 -140 -68 -122 -78 -138 -136 -145 -139 -23 -94 -16 84 -103 97 12 211 26 169 207 113 254 162 363 33 284 146 318 rrcurveto
            39 18 -99 41 -31 hhcurveto
            -44 -22 -44 -34 -31 hvcurveto
            63 -30 -48 68 -121 hhcurveto
            -283 -326 -351 -369 -230 114 -95 131 hvcurveto
            -19 282 rmoveto
            282 191 366 186 66 64 -81 -31 6 vhcurveto
            -321 -73 -239 -352 13 callsubr
            -73 -11 67 70 hvcurveto
            return
          </CharString>
          <CharString index="12">
            58 hmoveto
            167 59 149 270 111 287 83 -21 19 -74 43 -81 82 -154 74 -292 236 -18 132 -10 81 90 -12 52 -7 31 -48 -38 -58 11 -141 27 -93 347 -143 119 rrcurveto
            254 72 295 208 282 vvcurveto
            210 -177 178 -334 -187 -317 -73 -122 -37 vhcurveto
            -55 -18 69 -74 62 hhcurveto
            17 16 6 13 14 hvcurveto
            81 94 175 78 149 hhcurveto
            189 74 -79 -120 -257 -278 -203 -272 -38 hvcurveto
            66 181 52 163 41 79 rrcurveto
            64 39 -64 77 -74 hhcurveto
            -20 -20 -6 -13 -17 hvcurveto
            -76 -75 -79 -225 -79 -229 -93 -269 -114 -276 -126 -91 -43 -31 53 -93 91 32 rrcurveto
            return
          </CharString>
          <CharString index="13">
            176 -6 rmoveto
            56 38 23 28 42 hvcurveto
            133 87 120 140 93 135 rrcurveto
            -8 -42 -4 -43 -44 vvcurveto
            -173 67 -115 156 261 378 429 403 168 -81 45 -65 -115 -38 -68 -30 24 vhcurveto
            36 -45 29 -86 -97 vvcurveto
            -257 -187 -302 -183 -52 -40 66 87 164 114 213 50 103 vhcurveto
            hintmask 10001000
            12 27 29 52 -2 37 -1 26 -22 26 -49 2 -103 4 -23 -22 -20 -42 -184 -392 -247 -294 -117 -39 rrcurveto
            36 214 205 357 177 vvcurveto
            59 -48 60 -107 -37 callsubr
            -39 107 -16 -15 -81 vhcurveto
            -41 -198 -146 -287 -25 -142 rrcurveto
            -131 -22 76 -60 47 hhcurveto
            return
          </CharString>
          <CharString index="14">
            rmoveto
            -10 -40 65 -10 -63 vvcurveto
            -65 -58 -59 -44 -45 vhcurveto
            -25 -28 0 -40 39 hhcurveto
            100 198 160 159 68 -50 48 -68 -63 -67 -40 -48 -14 hvcurveto
            endchar
          </CharString>
          <CharString index="15">
            276 -283 132 258 vvcurveto
            212 134 187 182 101 63 -57 -97 -3 vhcurveto
            -4 -132 -100 -118 -93 -50 rrcurveto
            -15 -8 -2 -17 -12 vvcurveto
            -54 54 -57 64 19 19 0 9 19 vhcurveto
            103 35 120 158 182 vvcurveto
            154 -87 203 -273 -293 -243 -280 -297 vhcurveto
            return
          </CharString>
          <CharString index="16">
            rmoveto
            46 32 34 58 71 84 17 -151 146 hhcurveto
            137 165 145 118 6 hvcurveto
            hintmask 01001000
            3 81 -71 -7 -17 -46 rrcurveto
            -46 -29 -42 -58 -76 -85 -18 151 -146 hhcurveto
            -135 -155 -145 -118 -6 hvcurveto
            hintmask 00101000
            -3 -81 68 9 20 44 rrcurveto
            endchar
          </CharString>
          <CharString index="17">
            -94 callgsubr
            hintmask 10100000
            -41 -216 -195 -277 -3 callsubr
            return
          </CharString>
          <CharString index="18">
            744 122 481 174 593 204 -21 23 -21 hstemhm
            -154 2108 -749 316 hintmask 11100100
            -43 -10 rmoveto
            134 65 105 55 43 hvcurveto
            90 127 76 139 100 171 rrcurveto
            12 188 222 4 114 hhcurveto
            20 hlineto
            -85 -75 -86 -116 -140 vvcurveto
            -106 callgsubr
            hintmask 11101000
            119 10 179 204 169 vvcurveto
            hintmask 11011000
            122 -75 144 -255 -97 -92 -25 -42 -82 vhcurveto
            -91 98 -171 -29 -97 -50 -212 -109 -205 -304 -165 -265 -30 -43 -27 -42 -27 -41 -13 -3 rcurveline
            -77 -18 -82 -61 -40 vvcurveto
            -18 17 -9 43 8 vhcurveto
            27 4 -120 -197 -88 -161 -65 -58 rlinecurve
            -37 -27 -17 -13 -63 -25 rrcurveto
            -13 -23 31 -82 96 hhcurveto
            601 755 rmoveto
            7 11 129 215 144 207 142 118 rlinecurve
            74 63 59 20 69 -13 rrcurveto
            -118 -115 -74 -152 -145 vvcurveto
            -70 20 -61 35 -48 vhcurveto
            -1 -54 -56 -2 -27 hhcurveto
            -106 -124 -10 -17 -120 hvcurveto
            return
          </CharString>
          <CharString index="19">
            -85 -1 callsubr
            hstemhm
            243 -11 callgsubr
            hintmask 00000000
            47 232 rmoveto
            -86 73 -156 219 205 201 162 200 vhcurveto
            hintmask 10100000
            -92 callsubr
            -37 callgsubr
            hintmask 11000000
            -76 callsubr
            hintmask 10100000
            -28 callsubr
            return
          </CharString>
          <CharString index="20">
            rmoveto
            199 60 122 239 152 hhcurveto
            53 16 -39 -52 hvcurveto
            -1 -132 -166 -192 -236 -23 rrcurveto
            return
          </CharString>
          <CharString index="21">
            rmoveto
            -49 1 67 -55 76 hhcurveto
            60 -12 89 288 142 hvcurveto
            192 95 168 238 77 61 15 -57 35 hhcurveto
            68 43 96 68 -2 hvcurveto
            79 -2 -41 52 -87 hhcurveto
            -138 -162 -280 -125 -64 hvcurveto
            -3 -11 -15 -21 -11 -9 -2 10 3 13 3 16 15 60 65 137 -4 91 rrcurveto
            60 -55 59 -83 -74 -76 -33 -54 vhcurveto
            2 -39 57 17 4 -82 1 -95 -69 -224 -79 -213 -42 -113 -41 -80 4 -25 rrcurveto
            return
          </CharString>
          <CharString index="22">
            -106 callsubr
            endchar
          </CharString>
          <CharString index="23">
            rmoveto
            224 90 189 97 69 69 70 82 -82 113 -46 -60 -37 -42 -151 -113 -154 -85 -9 141 -58 109 -95 -10 -56 -6 -62 -21 20 -28 53 -67 30 -121 17 -84 6 -32 50 -42 22 10 rrcurveto
            endchar
          </CharString>
          <CharString index="24">
            vstem
            -8 124 rmoveto
            -22 -61 113 -84 41 11 72 20 80 55 155 -3 rrcurveto
            -3 149 56 -69 53 hhcurveto
            26 18 19 25 102 -61 81 -133 -118 -112 -29 -27 -80 hvcurveto
            136 250 559 298 189 vvcurveto
            37 -51 83 -42 vhcurveto
            -68 -35 -51 -126 -189 -102 68 -46 hhcurveto
            -24 -20 -24 -38 -98 53 -50 137 65 145 22 37 83 hvcurveto
            -62 -99 -546 -365 -104 -296 rrcurveto
            224 10 rmoveto
            6 callsubr
            vvcurveto
            2 -1 -1 -1 -2 -1 rrcurveto
            return
          </CharString>
          <CharString index="25">
            314 165 581 830 -21 hstem
            -73 1514 vstem
            41 hmoveto
            191 67 172 335 117 329 159 19 168 0 157 -15 -85 -240 -79 -214 -11 -77 rrcurveto
            -152 -23 91 -61 84 hhcurveto
            105 93 71 39 22 hvcurveto
            42 25 12 -18 callgsubr
            -30 -36 -66 hhcurveto
            -28 -15 19 35 hvcurveto
            1 69 76 201 85 222 99 4 62 77 1 46 1 32 -34 3 -40 4 -24 2 rcurveline
            88 230 80 224 6 101 rrcurveto
            81 4 -82 7 callsubr
            -27 -24 -60 -9 hvcurveto
            -21 -143 -71 -221 -76 -219 -154 2 -181 -9 -159 -19 rrcurveto
            73 229 43 208 87 vvcurveto
            61 -14 35 -25 19 vhcurveto
            48 -65 -46 6 -110 hhcurveto
            -36 -190 -41 -66 -9 hvcurveto
            -9 -49 93 -81 42 23 55 30 43 33 54 2 -2 -90 -54 -243 -83 -255 -61 -17 -48 -20 -28 -23 -21 -22 49 -69 33 10 10 3 10 3 10 2 -95 -258 -120 -247 -122 -88 rrcurveto
            -43 -31 51 -93 91 32 rrcurveto
            return
          </CharString>
          <CharString index="26">
            137 -105 65 -133 -102 -291 -43 -58 -160 vhcurveto
            283 324 137 992 279 hhcurveto
            68 26 -45 -70 -135 -146 -160 -150 -94 hvcurveto
            -30 -49 68 -125 96 hhcurveto
            140 201 276 218 hvcurveto
            return
          </CharString>
          <CharString index="27">
            -60 -18 45 80 7 hvcurveto
            21 244 404 662 237 vvcurveto
            return
          </CharString>
          <CharString index="28">
            -78 51 -60 85 198 68 181 19 -38 vhcurveto
            15 -30 -42 -47 -35 hhcurveto
            -35 -11 27 35 83 65 89 81 72 hvcurveto
            return
          </CharString>
          <CharString index="29">
            243 rmoveto
            -163 -14 89 -90 138 hhcurveto
            204 245 308 321 200 hvcurveto
            return
          </CharString>
          <CharString index="30">
            -10 rmoveto
            181 134 185 119 61 hvcurveto
            16 -51 6 -24 rlineto
            -1 vlineto
            -159 43 130 -69 142 10 callsubr
            149 33 93 92 hvcurveto
            -47 callgsubr
            -88 -88 -123 -36 -87 hhcurveto
            -97 -40 95 97 4 hvcurveto
            13 2 12 2 9 vhcurveto
            321 5 301 153 2 257 rrcurveto
            -52 callsubr
            -68 -68 -19 -33 -63 hvcurveto
            31 -20 -52 21 -47 hhcurveto
            -28 -27 -21 -20 -16 hvcurveto
            -15 -14 -19 -28 -17 -28 rrcurveto
            57 -36 -58 54 -91 hhcurveto
            -262 -329 -344 -369 -14 hvcurveto
            -187 -7 92 -145 156 hhcurveto
            58 152 rmoveto
            -57 -20 65 105 264 211 329 186 -7 callsubr
            -310 -83 -214 -342 -123 hhcurveto
            545 322 -87 callsubr
            return
          </CharString>
          <CharString index="31">
            -81 -56 -77 -109 -99 -47 86 94 15 2 15 3 15 vhcurveto
            3 12 1 11 9 vvcurveto
            49 -32 14 -41 -10 vhcurveto
            return
          </CharString>
          <CharString index="32">
            65 204 rmoveto
            -54 callgsubr
            218 374 844 8 284 hvcurveto
            81 2 -82 7 callsubr
            -28 -24 -60 -6 hvcurveto
            -48 -481 -330 -716 -201 vvcurveto
            return
          </CharString>
          <CharString index="33">
            61 rmoveto
            -31 28 -37 61 11 23 2 5 13 vhcurveto
            332 118 159 867 127 349 rrcurveto
            -5 61 62 -4 65 hhcurveto
            118 92 57 115 10 hvcurveto
            36 3 -14 12 -15 hhcurveto
            -25 -7 -7 -10 -15 hvcurveto
            -27 -41 -35 -7 -58 hhcurveto
            return
          </CharString>
          <CharString index="34">
            rmoveto
            -27 -9 -12 -17 -18 vvcurveto
            -31 46 -17 35 287 305 407 386 190 vhcurveto
            222 451 134 527 182 vvcurveto
            127 -186 35 -88 -185 -302 -134 -124 -56 75 -57 58 12 25 10 10 10 vhcurveto
            83 83 142 119 109 hhcurveto
            9 5 -12 -19 -261 -432 -1382 -515 -200 hvcurveto
            return
          </CharString>
          <CharString index="35">
            rmoveto
            105 -19 209 227 177 vvcurveto
            105 -28 33 -76 -58 -52 -29 -51 -21 vhcurveto
            -15 -45 55 -26 -11 -103 -10 -80 -44 -59 -65 -70 -23 -25 6 -30 28 -5 rrcurveto
            endchar
          </CharString>
          <CharString index="36">
            -80 callgsubr
            hintmask 10100000
            -54 -81 -54 -90 hvcurveto
            return
          </CharString>
          <CharString index="37">
            59 -83 -46 callgsubr
            -85 -99 -258 -81 -189 vhcurveto
            return
          </CharString>
          <CharString index="38">
            0 callsubr
            58 -55 76 63 3 84 293 155 vhcurveto
            192 147 return
          </CharString>
          <CharString index="39">
            -35 callsubr
            hintmask 10100000
            -73 callgsubr
            return
          </CharString>
          <CharString index="40">
            hintmask 10100000
            304 -65 callsubr
            return
          </CharString>
          <CharString index="41">
            7 -7 rmoveto
            11 13 2 5 13 hvcurveto
            161 57 142 251 110 274 266 -27 527 194 19 427 rrcurveto
            16 vlineto
            193 -169 170 -353 -195 -339 -80 -133 -52 60 -59 56 17 16 6 13 14 vhcurveto
            81 94 195 88 149 hhcurveto
            169 71 -89 -120 -194 -212 -248 -337 -61 hvcurveto
            67 183 52 165 42 80 rrcurveto
            7 14 5 12 15 vvcurveto
            52 -53 48 -58 -20 -20 -6 -13 -17 vhcurveto
            -76 -75 -77 -221 -79 -229 -93 -269 -116 -280 -126 -91 rrcurveto
            -11 -8 -4 -11 -12 vvcurveto
            -31 31 -37 48 vhcurveto
            return
          </CharString>
          <CharString index="42">
            -105 callgsubr
            hintmask 01010000
            return
          </CharString>
          <CharString index="43">
            79 8 78 76 105 vvcurveto
            88 -107 29 -69 -66 -85 -34 -120 return
          </CharString>
          <CharString index="44">
            rmoveto
            836 hlineto
            103 -1 54 145 -104 1 rrcurveto
            -856 hlineto
            4 -86 -77 -149 130 hhcurveto
            return
          </CharString>
          <CharString index="45">
            rmoveto
            118 202 72 220 hhcurveto
            129 96 -36 -22 46 hvcurveto
            -10 19 17 -4 11 hhcurveto
            25 15 19 35 hvcurveto
            return
          </CharString>
          <CharString index="46">
            rmoveto
            5 5 2 1 4 hvcurveto
            18 36 58 30 70 72 91 -43 76 hhcurveto
            107 69 71 119 36 -25 16 -15 -14 hvcurveto
            -30 -36 -50 -28 -82 hhcurveto
            -140 hlineto
            -35 -36 -11 -18 -36 hvcurveto
            119 202 478 93 383 vvcurveto
            102 -64 150 -238 -206 -133 -161 -134 -68 24 -63 66 -31 vhcurveto
            -4 13 14 -4 13 hhcurveto
            57 58 54 28 11 -6 8 -14 7 hvcurveto
            -20 17 -8 39 48 vvcurveto
            62 60 79 82 59 52 -33 -74 -298 -595 -266 -30 -200 vhcurveto
            -37 -6 53 -59 34 hhcurveto
            return
          </CharString>
          <CharString index="47">
            1576 -21 return
          </CharString>
          <CharString index="48">
            rmoveto
            192 128 149 146 139 -101 61 -124 -198 -132 -151 -148 hvcurveto
            return
          </CharString>
          <CharString index="49">
            81 296 rmoveto
            -183 109 -123 185 270 356 304 409 229 -110 103 -142 -176 -104 -140 -142 -91 vhcurveto
            95 242 146 405 6 165 rrcurveto
            81 3 -77 40 -48 -28 callgsubr
            -34 -239 -103 -330 -109 -322 rrcurveto
            -43 -127 -51 -165 -123 vvcurveto
            180 -65 rmoveto
            239 298 415 123 64 22 -40 -112 -340 -216 -273 -191 -66 -34 47 64 vhcurveto
            return
          </CharString>
          <CharString index="50">
            -1 -69 callsubr
            208 287 85 hhcurveto
            23 18 -50 callsubr
            return
          </CharString>
          <CharString index="51">
            -10 rmoveto
            62 49 30 84 49 hvcurveto
            177 305 487 868 112 173 rrcurveto
            120 78 30 82 -81 hhcurveto
            -69 -56 -43 -70 -44 hvcurveto
            -148 -238 -562 -1007 -86 -148 rrcurveto
            -68 -40 -65 -88 107 hhcurveto
            return
          </CharString>
          <CharString index="52">
            89 -83 callgsubr
            return
          </CharString>
          <CharString index="53">
            146 -100 157 -160 -578 -95 -1255 -130 -240 vhcurveto
            -32 -58 68 -151 62 hhcurveto
            return
          </CharString>
          <CharString index="54">
            rmoveto
            236 168 180 152 67 -34 64 -68 41 hvcurveto
            105 39 159 114 177 vvcurveto
            125 -76 117 -216 -177 -142 -142 -143 -54 33 -66 67 57 58 54 28 11 -7 7 -13 8 vhcurveto
            -11 7 -7 29 28 vvcurveto
            55 61 76 71 60 41 -38 -79 -152 -142 -93 -112 -36 vhcurveto
            -57 -15 -29 -66 -40 vvcurveto
            -52 52 31 53 vhcurveto
            return
          </CharString>
          <CharString index="55">
            178 2 -112 78 -137 hhcurveto
            return
          </CharString>
          <CharString index="56">
            52 -10 -62 callsubr
            return
          </CharString>
          <CharString index="57">
            -14 callsubr
            -243 -171 vvcurveto
            -152 96 -52 89 -21 callsubr
            31 213 181 219 181 vvcurveto
            97 -63 83 -109 -62 -57 -19 -40 -47 vhcurveto
            -97 -82 -174 -248 -60 -72 return
          </CharString>
          <CharString index="58">
            rmoveto
            -106 callsubr
            -776 -1674 -41 callgsubr
            1013 322 vvcurveto
            49 -46 28 -91 -79 -85 2 callgsubr
            -356 -301 -856 -282 -92 vhcurveto
            endchar
          </CharString>
          <CharString index="59">
            -49 -31 -35 29 -1 -56 rrcurveto
            -57 -1 52 -61 65 hhcurveto
            105 117 105 168 return
          </CharString>
          <CharString index="60">
            -48 -112 -48 -81 -25 vvcurveto
            return
          </CharString>
          <CharString index="61">
            rmoveto
            46 32 34 58 71 84 17 -151 146 hhcurveto
            137 165 145 118 6 hvcurveto
            hintmask 01100000
            3 81 -71 -7 -17 -46 rrcurveto
            -46 -29 -42 -58 -76 -85 -18 151 -146 hhcurveto
            -135 -155 -145 -118 -6 hvcurveto
            hintmask 10100000
            -3 -81 68 9 20 44 rrcurveto
            endchar
          </CharString>
          <CharString index="62">
            hstemhm
            48 1072 -851 378 return
          </CharString>
          <CharString index="63">
            4 31 -31 13 -39 -8 -51 -10 -64 -8 -70 -5 28 104 19 86 4 52 rrcurveto
            93 9 -95 45 -79 hhcurveto
            -59 -16 -32 -81 -14 hvcurveto
            -14 -78 -19 -95 -25 -104 rrcurveto
            -101 -95 4 10 -65 hvcurveto
            -62 9 -3 -89 51 -26 58 -30 87 -17 95 -8 return
          </CharString>
          <CharString index="64">
            -12 -27 -19 -13 -41 -18 -39 hvcurveto
            return
          </CharString>
          <CharString index="65">
            1565 -21 32 -21 return
          </CharString>
          <CharString index="66">
            rmoveto
            1 -104 145 54 -1 103 rrcurveto
            331 331 vlineto
            103 -1 54 145 -104 1 rrcurveto
            -384 360 hlineto
            130 -149 -77 4 -86 vhcurveto
            -327 -327 vlineto
            4 -86 -77 -149 130 hhcurveto
            360 hlineto
            return
          </CharString>
          <CharString index="67">
            205 166 477 933 -21 return
          </CharString>
          <CharString index="68">
            329 255 79 61 14 134 -88 -54 rlinecurve
            -449 -274 -111 -68 -24 -50 77 -81 rlinecurve
            return
          </CharString>
          <CharString index="69">
            214 176 239 196 195 -115 85 -140 -220 -180 -241 -198 return
          </CharString>
          <CharString index="70">
            -79 -85 -33 -54 return
          </CharString>
          <CharString index="71">
            181 -23 rmoveto
            2 82 24 106 54 135 82 20 114 30 51 3 103 -11 83 -56 -3 -116 rrcurveto
            -186 -4 -212 -154 -161 hhcurveto
            -85 -50 49 98 2 hvcurveto
            return
          </CharString>
          <CharString index="72">
            hintmask 00000000
            24 173 rmoveto
            -76 78 -106 188 vhcurveto
            return
          </CharString>
          <CharString index="73">
            187 -36 10 callgsubr
            return
          </CharString>
          <CharString index="74">
            39 22 vhcurveto
            return
          </CharString>
          <CharString index="75">
            -46 -100 -136 -223 -3 callsubr
            -152 91 -62 84 -21 callsubr
            return
          </CharString>
          <CharString index="76">
            rmoveto
            887 489 94 50 -20 30 -94 54 rlinecurve
            -807 445 -91 51 -102 -103 90 -52 rlinecurve
            714 -415 -695 -405 -86 -50 19 -144 91 50 rlinecurve
            return
          </CharString>
          <CharString index="77">
            29 40 -19 -71 -107 -90 -138 -104 -40 -26 26 55 58 19 32 13 28 hvcurveto
            31 15 -35 29 -58 hhcurveto
            -93 -46 -90 -64 -95 88 -109 158 hvcurveto
            endchar
          </CharString>
          <CharString index="78">
            -60 callsubr
            114 -26 callgsubr
            return
          </CharString>
          <CharString index="79">
            -40 -11 -92 -64 -135 vvcurveto
            return
          </CharString>
          <CharString index="80">
            108 -40 244 208 18 177 rrcurveto
            105 11 -36 73 -90 hhcurveto
            -58 -55 -29 -51 -26 hvcurveto
            -27 -51 77 -31 -12 -112 -8 -74 -76 return
          </CharString>
          <CharString index="81">
            1568 -1312 515 return
          </CharString>
          <CharString index="82">
            -348 2171 hstem
            return
          </CharString>
          <CharString index="83">
            -172 1504 return
          </CharString>
          <CharString index="84">
            -104 -95 -29 -28 -24 -18 -3 -19 -2 -2 callgsubr
            39 1 rrcurveto
            return
          </CharString>
          <CharString index="85">
            -33 callgsubr
            8 callgsubr
            return
          </CharString>
          <CharString index="86">
            -69 callgsubr
            7 1 8 1 8 hvcurveto
            return
          </CharString>
          <CharString index="87">
            37 302 526 748 -21 return
          </CharString>
          <CharString index="88">
            73 -33 callsubr
            return
          </CharString>
          <CharString index="89">
            -79 callgsubr
            -382 -709 -26 -284 vhcurveto
            return
          </CharString>
          <CharString index="90">
            -47 callsubr
            923 470 rmoveto
            1 6 callsubr
            vhcurveto
            -1 -2 -1 -1 0 vvcurveto
            return
          </CharString>
          <CharString index="91">
            -10 1696 return
          </CharString>
          <CharString index="92">
            169 655 173 748 -21 return
          </CharString>
          <CharString index="93">
            -43 callsubr
            -46 -100 -136 return
          </CharString>
          <CharString index="94">
            286 -60 callsubr
            return
          </CharString>
          <CharString index="95">
            -33 callgsubr
            176 -34 callsubr
            return
          </CharString>
          <CharString index="96">
            53 366 539 return
          </CharString>
          <CharString index="97">
            193 153 241 85 59 11 -48 -59 -161 -129 -267 -109 return
          </CharString>
          <CharString index="98">
            77 78 78 44 12 -6 8 -14 6 vhcurveto
            -34 15 -14 42 47 vvcurveto
            110 return
          </CharString>
          <CharString index="99">
            70 -550 1585 return
          </CharString>
          <CharString index="100">
            66 31 -67 -44 3 hvcurveto
            return
          </CharString>
          <CharString index="101">
            hstemhm
            82 1116 return
          </CharString>
          <CharString index="102">
            17 -10 23 -15 return
          </CharString>
          <CharString index="103">
            109 434 hstemhm
            return
          </CharString>
          <CharString index="104">
            -181 vvcurveto
            return
          </CharString>
          <CharString index="105">
            777 hintmask 10010000
            return
          </CharString>
          <CharString index="106">
            1577 -21 return
          </CharString>
          <CharString index="107">
            94 rmoveto
            -49 return
          </CharString>
          <CharString index="108">
            -33 callgsubr
            -4 callsubr
            return
          </CharString>
          <CharString index="109">
            -33 callgsubr
            -10 callgsubr
            return
          </CharString>
          <CharString index="110">
            1210 297 hstem
            return
          </CharString>
          <CharString index="111">
            -79 72 -83 98 10 vhcurveto
            return
          </CharString>
          <CharString index="112">
            -189 -9 1044 return
          </CharString>
          <CharString index="113">
            1 1 1 1 return
          </CharString>
          <CharString index="114">
            40 -52 hhcurveto
            -48 return
          </CharString>
          <CharString index="115">
            vhcurveto
            -11 -8 return
          </CharString>
          <CharString index="116">
            44 3 40 4 35 6 118 19 54 57 6 56 return
          </CharString>
          <CharString index="117">
            hhcurveto
            134 return
          </CharString>
          <CharString index="118">
            95 139 145 257 138 vvcurveto
            112 return
          </CharString>
          <CharString index="119">
            hstemhm
            -23 734 return
          </CharString>
          <CharString index="120">
            -117 hhcurveto
            return
          </CharString>
          <CharString index="121">
            vstem
            203 71 rmoveto
            -78 -36 6 -48 42 hhcurveto
            return
          </CharString>
          <CharString index="122">
            55 -71 -26 -1 -32 -87 -24 vhcurveto
            -14 -51 -30 return
          </CharString>
          <CharString index="123">
            hhcurveto
            86 127 157 -2 -130 hvcurveto
            return
          </CharString>
          <CharString index="124">
            hlineto
            86 127 157 -2 -130 hvcurveto
            return
          </CharString>
        <CharString name=".notdef">
          781 348 176 hstem
          787 229 vstem
          127 189 rmoveto
          -121 -44 59 -86 121 hhcurveto
          1108 hlineto
          97 53 72 54 22 hvcurveto
          104 256 297 1101 58 171 rrcurveto
          80 27 -20 87 -113 hhcurveto
          -1158 hlineto
          -97 -43 -72 -54 -22 hvcurveto
          -104 -256 -283 -1063 -62 -169 rrcurveto
          475 160 rmoveto
          -52 -70 65 37 50 hvcurveto
          72 56 147 118 118 172 -43 119 -41 160 4 127 rrcurveto
          115 6 108 75 83 hhcurveto
          39 -5 -43 -77 -5 hvcurveto
          -2 -50 11 -128 15 -97 21 36 25 41 20 26 80 107 118 128 130 48 63 27 149 -38 -33 -57 -9 -13 -31 3 -108 -76 -95 -67 -184 -171 -102 -135 rrcurveto
          -159 45 46 -174 98 66 29 36 26 hhcurveto
          34 -11 -58 -42 -24 hvcurveto
          -39 -22 -72 -73 -105 hhcurveto
          -106 -84 98 205 -81 hvcurveto
          -110 -74 -159 -192 -85 hhcurveto
          endchar
        </CharString>
        <CharString name=".null">
          endchar
        </CharString>
        <CharString name="A">
          -40 callsubr
          hstem
          -24 callsubr
          vstem
          -107 callgsubr
          endchar
        </CharString>
        <CharString name="AE">
          -89 callsubr
          endchar
        </CharString>
        <CharString name="AEacute">
          -89 callsubr
          753 884 -100 callgsubr
          endchar
        </CharString>
        <CharString name="Aacute">
          -40 callsubr
          hstem
          -24 callsubr
          vstem
          -107 callgsubr
          558 844 -100 callgsubr
          endchar
        </CharString>
        <CharString name="Abreve">
          -40 callsubr
          89 167 hstemhm
          -24 callsubr
          -442 627 hintmask 11010000
          -107 callgsubr
          hintmask 00101000
          583 859 -103 callsubr
        </CharString>
        <CharString name="Acircumflex">
          -40 callsubr
          hstem
          -24 callsubr
          vstem
          -107 callgsubr
          387 856 -98 callsubr
        </CharString>
        <CharString name="Adieresis">
          -40 callsubr
          105 -26 callgsubr
          -24 callsubr
          -250 153 hintmask 11010000
          -107 callgsubr
          hintmask 00101000
          841 876 -102 callsubr
        </CharString>
        <CharString name="Agrave">
          -40 callsubr
          78 366 hstemhm
          -24 callsubr
          -434 367 hintmask 11010000
          -107 callgsubr
          hintmask 00101000
          679 848 -84 callgsubr
        </CharString>
        <CharString name="Amacron">
          -40 callsubr
          140 185 hstemhm
          -24 callsubr
          -545 718 hintmask 11010000
          -107 callgsubr
          hintmask 00101000
          270 925 -88 callgsubr
        </CharString>
        <CharString name="Aogonek">
          205 -5 callgsubr
          63 477 933 -21 hstemhm
          -24 callsubr
          -721 493 hintmask 11110000
          -61 -10 rmoveto
          129 82 105 55 41 hvcurveto
          97 136 60 152 104 189 122 8 134 4 113 2 -39 -139 -28 -137 -9 -120 -11 -136 51 -76 75 -29 rrcurveto
          hintmask 11101000
          -127 -93 -122 -144 -134 vvcurveto
          -79 callsubr
          9 9 11 10 12 10 rrcurveto
          93 23 72 73 68 vvcurveto
          -5 callsubr
          vhcurveto
          -107 callsubr
          endchar
        </CharString>
        <CharString name="Aring">
          205 166 477 931 315 -313 -21 hstemhm
          -24 callsubr
          -268 209 hintmask 10110000
          -107 callgsubr
          hintmask 00000000
          583 699 -59 callsubr
          hintmask 01001000
          -67 callgsubr
        </CharString>
        <CharString name="Atilde">
          -40 callsubr
          87 -34 callsubr
          -24 callsubr
          -561 777 hintmask 11001000
          -107 callgsubr
          hintmask 00000000
          312 904 rmoveto
          46 32 34 58 71 84 17 -151 146 hhcurveto
          137 165 145 118 6 hvcurveto
          hintmask 00100100
          3 81 -71 -7 -17 -46 rrcurveto
          -46 -29 -42 -58 -76 -85 -18 151 -146 hhcurveto
          -135 -155 -145 -118 -6 hvcurveto
          hintmask 00010100
          -3 -81 68 9 20 44 rrcurveto
          endchar
        </CharString>
        <CharString name="B">
          74 -60 callsubr
          hstemhm
          274 510 -124 354 hintmask 10100000
          -62 callgsubr
          hintmask 11000000
          -36 callsubr
          endchar
        </CharString>
        <CharString name="C">
          -20 callsubr
          hstem
          13 callgsubr
          vstem
          -96 callgsubr
          endchar
        </CharString>
        <CharString name="CR">
          endchar
        </CharString>
        <CharString name="Cacute">
          -20 callsubr
          hstem
          13 callgsubr
          vstem
          -96 callgsubr
          940 1180 -100 callgsubr
          endchar
        </CharString>
        <CharString name="Ccaron">
          -20 callsubr
          82 340 hstemhm
          13 callgsubr
          -471 691 hintmask 11010000
          -96 callgsubr
          hintmask 00101000
          913 1189 -92 callgsubr
        </CharString>
        <CharString name="Ccedilla">
          37 -460 533 229 526 748 -21 hstemhm
          13 callgsubr
          -1039 338 hintmask 01110000
          -96 callgsubr
          hintmask 10001000
          220 -435 -35 callgsubr
        </CharString>
        <CharString name="Ccircumflex">
          -20 callsubr
          hstem
          13 callgsubr
          vstem
          -96 callgsubr
          769 1192 -98 callsubr
        </CharString>
        <CharString name="Cdotaccent">
          -20 callsubr
          114 -26 callgsubr
          13 callgsubr
          -376 307 hintmask 11010000
          -96 callgsubr
          hintmask 00101000
          918 1221 rmoveto
          -85 callsubr
        </CharString>
        <CharString name="D">
          -8 callgsubr
          hstem
          693 400 vstem
          -81 callgsubr
          endchar
        </CharString>
        <CharString name="Dcaron">
          -8 callgsubr
          82 340 hstemhm
          656 691 -654 400 hintmask 11001000
          -81 callgsubr
          hintmask 00110000
          815 1417 -92 callgsubr
        </CharString>
        <CharString name="Dcroat">
          -75 callgsubr
        </CharString>
        <CharString name="Delta">
          303 0 1232 hstem
          22 1282 vstem
          122 hmoveto
          1050 hlineto
          31 124 66 55 -26 hvcurveto
          -464 998 -45 98 -19 16 -22 -1 rlinecurve
          -45 -2 -68 -41 -45 -73 -517 -949 rcurveline
          -99 -57 -45 -68 148 hhcurveto
          73 110 rmoveto
          484 895 409 -895 rlineto
          endchar
        </CharString>
        <CharString name="E">
          -14 callgsubr
          -29 callgsubr
          hintmask 00000000
          hintmask 11000000
          82 272 rmoveto
          -106 callgsubr
          -71 callgsubr
          vhcurveto
          hintmask 10100000
          -58 callgsubr
          hvcurveto
          hintmask 11000000
          -45 callgsubr
          endchar
        </CharString>
        <CharString name="Eacute">
          -14 callgsubr
          -29 callgsubr
          hintmask 00000000
          hintmask 11000000
          82 272 rmoveto
          -106 callgsubr
          -71 callgsubr
          vhcurveto
          hintmask 10100000
          -58 callgsubr
          hvcurveto
          hintmask 11000000
          -45 callgsubr
          796 1357 -100 callgsubr
          endchar
        </CharString>
        <CharString name="Ebreve">
          -14 callgsubr
          89 167 -29 callgsubr
          -109 627 hintmask 00000000
          hintmask 10100000
          82 272 rmoveto
          -106 callgsubr
          -71 callgsubr
          vhcurveto
          hintmask 10010000
          -58 callgsubr
          hvcurveto
          hintmask 10100000
          -45 callgsubr
          hintmask 01001000
          811 1372 -103 callsubr
        </CharString>
        <CharString name="Ecaron">
          -14 callgsubr
          82 340 -29 callgsubr
          -154 691 hintmask 00000000
          hintmask 10100000
          82 272 rmoveto
          -106 callgsubr
          -71 callgsubr
          vhcurveto
          hintmask 10010000
          -58 callgsubr
          hvcurveto
          hintmask 10100000
          -45 callgsubr
          hintmask 01001000
          769 1366 -92 callgsubr
        </CharString>
        <CharString name="Ecircumflex">
          -14 callgsubr
          -29 callgsubr
          hintmask 00000000
          hintmask 11000000
          82 272 rmoveto
          -106 callgsubr
          -71 callgsubr
          vhcurveto
          hintmask 10100000
          -58 callgsubr
          hvcurveto
          hintmask 11000000
          -45 callgsubr
          625 1369 -98 callsubr
        </CharString>
        <CharString name="Edieresis">
          -14 callgsubr
          105 297 -29 callgsubr
          93 153 hintmask 00000000
          hintmask 10100000
          82 272 rmoveto
          -106 callgsubr
          -71 callgsubr
          vhcurveto
          hintmask 10010000
          -58 callgsubr
          hvcurveto
          hintmask 10100000
          -45 callgsubr
          hintmask 01001000
          1079 1389 -102 callsubr
        </CharString>
        <CharString name="Edotaccent">
          -12 -29 callsubr
          82 1116 -749 316 -59 307 hintmask 00000000
          hintmask 10100000
          82 272 rmoveto
          -106 callgsubr
          -71 callgsubr
          vhcurveto
          hintmask 10010000
          -58 callgsubr
          hvcurveto
          hintmask 10100000
          -45 callgsubr
          hintmask 01001000
          774 1398 rmoveto
          -85 callsubr
        </CharString>
        <CharString name="Egrave">
          -14 callgsubr
          78 366 -29 callgsubr
          -91 367 hintmask 00000000
          hintmask 10100000
          82 272 rmoveto
          -106 callgsubr
          -71 callgsubr
          vhcurveto
          hintmask 10010000
          -58 callgsubr
          hvcurveto
          hintmask 10100000
          -45 callgsubr
          hintmask 01001000
          917 1361 -84 callgsubr
        </CharString>
        <CharString name="Emacron">
          -14 callgsubr
          140 185 -29 callgsubr
          -212 718 hintmask 00000000
          hintmask 10100000
          82 272 rmoveto
          -106 callgsubr
          -71 callgsubr
          vhcurveto
          hintmask 10010000
          -58 callgsubr
          hvcurveto
          hintmask 10100000
          -45 callgsubr
          hintmask 01001000
          498 1438 -88 callgsubr
        </CharString>
        <CharString name="Eng">
          374 1571 -21 hstem
          818 503 vstem
          20 125 rmoveto
          -98 66 -38 48 26 21 12 18 2 vhcurveto
          51 438 197 576 176 251 3 4 3 6 5 5 -51 -387 66 -551 227 -295 -125 -234 -212 -230 -189 -70 rrcurveto
          -27 -10 -2 -6 -18 vvcurveto
          -31 46 -27 35 210 347 349 410 231 vhcurveto
          230 407 164 468 245 vvcurveto
          119 -65 119 -152 -51 -71 -52 -53 7 vhcurveto
          2 -13 9 -8 9 -4 rrcurveto
          59 -29 6 -86 -76 vvcurveto
          -280 -141 -409 -153 -336 vhcurveto
          -148 241 -121 658 90 308 8 34 3 27 -2 20 -5 52 -41 2 -50 -3 rrcurveto
          -355 -18 -386 -1105 -302 vvcurveto
          endchar
        </CharString>
        <CharString name="Eogonek">
          -12 -5 callgsubr
          1473 -21 -6 callsubr
          -985 512 -276 316 hintmask 11100000
          82 272 rmoveto
          -114 86 -167 275 -1 vhcurveto
          hintmask 11010000
          -120 -93 -110 -137 -127 vvcurveto
          -79 callsubr
          17 15 23 18 24 18 111 38 77 65 38 47 rrcurveto
          20 25 9 37 36 vvcurveto
          49 -17 45 -31 -16 -19 -11 -27 -22 vhcurveto
          -63 -52 -132 -139 -166 hhcurveto
          -72 -49 57 70 159 166 148 157 62 hvcurveto
          37 17 37 10 33 3 rrcurveto
          22 1 12 19 23 vvcurveto
          41 -37 56 -81 -26 -32 -6 -14 -36 vhcurveto
          hintmask 11001000
          -55 -10 -61 49 95 vvcurveto
          216 228 299 266 70 30 -31 -53 -94 -132 -94 -120 -83 8 callsubr
          -15 -13 -26 vvcurveto
          -51 62 -65 73 7 vhcurveto
          hintmask 11100000
          -71 callgsubr
          -58 callgsubr
          vhcurveto
          -45 callgsubr
          endchar
        </CharString>
        <CharString name="Eth">
          -75 callgsubr
        </CharString>
        <CharString name="Euro">
          219 125 327 147 133 150 535 159 -21 hstem
          114 1251 vstem
          267 449 rmoveto
          -284 -11 151 -175 257 hhcurveto
          218 124 86 64 47 hvcurveto
          30 42 -22 152 -66 -53 rrcurveto
          -100 -124 -67 -56 -122 hhcurveto
          -132 -47 147 180 1 hvcurveto
          15 -9 callgsubr
          -29 0 -1 -31 hvcurveto
          8 43 10 44 13 44 rrcurveto
          54 -9 callgsubr
          -27 0 -1 -31 hvcurveto
          283 121 211 253 187 hhcurveto
          47 25 -29 -46 -97 -95 -95 -81 -67 hvcurveto
          -34 -47 66 -121 96 hhcurveto
          88 143 182 162 136 -83 147 -187 -260 -325 -274 -402 -155 hvcurveto
          -52 hlineto
          -50 -55 -52 -29 -24 6 -21 107 -11 hvcurveto
          -12 -47 -10 -47 -8 -49 rrcurveto
          -62 hlineto
          -50 -55 -52 -29 -27 7 -22 146 -11 hvcurveto
          endchar
        </CharString>
        <CharString name="F">
          6 1566 -21 31 -21 hstemhm
          62 1207 hintmask 10100000
          -55 callgsubr
          hintmask 01100000
          -87 callgsubr
          46 hvcurveto
          -94 -122 -70 -229 -72 -226 -81 -27 -100 -45 -1 -45 rrcurveto
          -27 36 -35 33 -1 vhcurveto
          5 4 0 2 5 hvcurveto
          14 5 15 4 15 4 -82 -230 -102 -211 -108 -78 rrcurveto
          -10 -7 -5 -12 -12 vvcurveto
          endchar
        </CharString>
        <CharString name="G">
          -15 callsubr
          hstem
          332 468 vstem
          -97 callgsubr
          endchar
        </CharString>
        <CharString name="Gbreve">
          -15 callsubr
          89 167 hstemhm
          332 468 12 627 hintmask 11010000
          -97 callgsubr
          hintmask 00101000
          945 1195 -103 callsubr
        </CharString>
        <CharString name="Gcircumflex">
          -15 callsubr
          hstem
          332 468 vstem
          -97 callgsubr
          759 1192 -98 callsubr
        </CharString>
        <CharString name="Gcommaaccent">
          169 -22 callgsubr
          749 173 748 -21 hstemhm
          154 329 -151 468 hintmask 01101000
          -97 callgsubr
          hintmask 10010000
          117 -631 -93 callsubr
        </CharString>
        <CharString name="Gdotaccent">
          -15 callsubr
          114 -26 callgsubr
          332 468 62 307 hintmask 11010000
          -97 callgsubr
          hintmask 00101000
          908 1221 rmoveto
          -85 callsubr
        </CharString>
        <CharString name="H">
          -82 callsubr
          endchar
        </CharString>
        <CharString name="Hbar">
          314 165 581 271 -20 579 -21 hstemhm
          -73 1514 -1312 1453 hintmask 11101000
          41 hmoveto
          191 67 172 335 117 329 159 19 168 0 157 -15 -85 -240 -79 -214 -11 -77 rrcurveto
          -152 -23 91 -61 84 hhcurveto
          105 93 71 39 22 hvcurveto
          42 25 12 -18 callgsubr
          -30 -36 -66 hhcurveto
          -28 -15 19 35 hvcurveto
          1 69 76 201 85 222 99 4 62 77 1 46 1 32 -34 3 -40 4 -24 2 rcurveline
          22 57 21 57 20 55 60 -6 rcurveline
          118 -16 74 84 58 vvcurveto
          32 -34 3 -40 4 vhcurveto
          -36 3 -40 2 -44 2 rrcurveto
          hintmask 11110000
          30 93 20 78 3 49 rrcurveto
          81 4 -82 7 callsubr
          -27 -24 -60 -9 hvcurveto
          -10 -69 -22 -87 -29 -97 rrcurveto
          -163 -181 -5 -12 -167 hvcurveto
          17 80 9 65 40 vvcurveto
          61 -14 35 -25 19 vhcurveto
          48 -65 -46 6 -110 hhcurveto
          -36 -190 -41 -66 -9 hvcurveto
          -9 -49 93 -81 42 23 55 30 43 33 54 2 -1 -45 -14 -81 -23 -102 -134 -17 -106 -23 -49 -30 -32 -19 71 -79 43 7 54 8 58 7 60 6 -19 -70 -23 -74 -24 -76 rrcurveto
          -61 -17 -48 -20 -28 -23 -21 -22 49 -69 33 10 10 3 10 3 10 2 -95 -258 -120 -247 -122 -88 -43 -31 51 -93 91 32 rrcurveto
          524 862 rmoveto
          21 67 19 66 16 61 164 9 171 2 161 -6 -18 -57 -20 -58 -20 -58 -154 2 -181 -9 -159 -19 rrcurveto
          endchar
        </CharString>
        <CharString name="Hcircumflex">
          -82 callsubr
          714 1641 -98 callsubr
        </CharString>
        <CharString name="I">
          -6 callgsubr
          hstem
          -23 734 vstem
          -97 callsubr
          endchar
        </CharString>
        <CharString name="IJ">
          420 -60 callsubr
          12 callsubr
          -391 1219 hintmask 11000000
          -97 callsubr
          hintmask 10100000
          367 -560 -73 callsubr
          endchar
        </CharString>
        <CharString name="Iacute">
          -6 callgsubr
          hstem
          -23 734 vstem
          -97 callsubr
          609 1537 -100 callgsubr
          endchar
        </CharString>
        <CharString name="Ibreve">
          -6 callgsubr
          89 167 12 callsubr
          -332 627 hintmask 10100000
          -97 callsubr
          hintmask 01010000
          624 1552 -103 callsubr
        </CharString>
        <CharString name="Icircumflex">
          -6 callgsubr
          hstem
          -23 734 vstem
          -97 callsubr
          438 1549 -98 callsubr
        </CharString>
        <CharString name="Idieresis">
          -6 callgsubr
          105 297 12 callsubr
          -130 153 hintmask 10100000
          -97 callsubr
          hintmask 01010000
          892 1569 -102 callsubr
        </CharString>
        <CharString name="Idotaccent">
          -385 -29 callsubr
          -23 734 -282 307 hintmask 10100000
          -97 callsubr
          hintmask 01010000
          587 1578 rmoveto
          -85 callsubr
        </CharString>
        <CharString name="Igrave">
          -6 callgsubr
          78 366 12 callsubr
          -314 367 hintmask 10100000
          -97 callsubr
          hintmask 01010000
          730 1541 -84 callgsubr
        </CharString>
        <CharString name="Imacron">
          -6 callgsubr
          140 185 12 callsubr
          -435 718 hintmask 10100000
          -97 callsubr
          hintmask 01010000
          311 1618 -88 callgsubr
        </CharString>
        <CharString name="Iogonek">
          -385 -5 callgsubr
          1473 -21 hstemhm
          -285 512 -250 734 hintmask 11100000
          -8 23 rmoveto
          -136 -91 -141 -155 -144 vvcurveto
          -79 callsubr
          16 15 23 17 23 18 rrcurveto
          hintmask 11010000
          330 185 252 965 -5 217 rrcurveto
          126 -3 -131 43 -109 hhcurveto
          -76 -168 -41 -66 -9 hvcurveto
          -7 -49 93 -81 42 23 54 30 43 33 54 2 rrcurveto
          -197 -240 -927 -262 -190 vhcurveto
          -21 -16 2 -30 19 -23 rrcurveto
          endchar
        </CharString>
        <CharString name="Itilde">
          -6 callgsubr
          87 -34 callsubr
          -23 734 -441 -2 callsubr
          -97 callsubr
          hintmask 00000000
          363 1597 -91 callsubr
        </CharString>
        <CharString name="J">
          -251 -60 callsubr
          hstem
          -351 1219 vstem
          -312 -468 -73 callsubr
          endchar
        </CharString>
        <CharString name="Jcircumflex">
          -251 -60 callsubr
          hstem
          -351 1219 vstem
          -312 -468 -73 callsubr
          857 2109 -98 callsubr
        </CharString>
        <CharString name="K">
          206 -60 callsubr
          hstem
          642 452 vstem
          -72 callgsubr
          endchar
        </CharString>
        <CharString name="Kcommaaccent">
          206 -22 callgsubr
          1670 -21 hstemhm
          205 329 108 452 hintmask 01010000
          -72 callgsubr
          hintmask 10100000
          280 -178 -93 callsubr
        </CharString>
        <CharString name="L">
          -63 callgsubr
          endchar
        </CharString>
        <CharString name="Lacute">
          -63 callgsubr
          851 1639 -100 callgsubr
          endchar
        </CharString>
        <CharString name="Lcaron">
          4 -10 -26 callsubr
          659 524 -3 callgsubr
          54 339 hintmask 10010000
          -51 callsubr
          hintmask 01010000
          -81 callsubr
          hintmask 10010000
          -54 callsubr
          hintmask 00101000
          1180 1431 -72 callsubr
        </CharString>
        <CharString name="Lcommaaccent">
          4 -22 callgsubr
          84 -26 callsubr
          -3 callgsubr
          -1097 329 hintmask 01010000
          -51 callsubr
          hintmask 00110000
          -81 callsubr
          hintmask 01010000
          -54 callsubr
          hintmask 10001000
          71 -172 -93 callsubr
        </CharString>
        <CharString name="Ldot">
          314 -10 -26 callsubr
          -272 298 -3 callgsubr
          -60 307 hintmask 00101000
          1093 652 rmoveto
          -84 64 -88 86 10 vhcurveto
          80 11 77 69 101 vvcurveto
          86 -84 30 -53 -73 -97 -39 -96 vhcurveto
          hintmask 10010000
          -1041 -662 -62 callsubr
          hintmask 01010000
          -81 callsubr
          hintmask 10010000
          -54 callsubr
          endchar
        </CharString>
        <CharString name="Lslash">
          4 -10 -26 callsubr
          -296 254 -3 callgsubr
          -1179 734 hintmask 10001000
          -51 callsubr
          hintmask 01001000
          137 -105 65 -133 -102 -291 -43 -58 -160 vhcurveto
          96 84 79 146 72 164 rrcurveto
          4 39 40 2 40 hhcurveto
          43 41 -3 -2 36 hvcurveto
          40 -3 19 23 4 32 rrcurveto
          hintmask 00101000
          74 8 -98 53 -79 hhcurveto
          -20 -20 -1 -2 -20 hvcurveto
          347 136 116 357 168 hhcurveto
          68 26 -45 -70 -135 -146 -160 -150 -94 hvcurveto
          hintmask 01010000
          -30 -49 68 -125 96 hhcurveto
          140 201 276 218 hvcurveto
          hintmask 10001000
          146 -100 157 -160 -363 -172 -493 -400 -137 vhcurveto
          -1 -3 -3 -1 -2 hhcurveto
          -77 -20 -138 -58 -22 -58 -11 -24 47 -46 36 9 16 6 59 21 35 7 rrcurveto
          2 1 0 1 2 hvcurveto
          -59 -164 -56 -127 -68 -37 rrcurveto
          -32 -58 68 -151 62 hhcurveto
          endchar
        </CharString>
        <CharString name="M">
          852 -60 callsubr
          hstem
          873 498 vstem
          -77 callgsubr
          endchar
        </CharString>
        <CharString name="N">
          5 callgsubr
          hstem
          842 498 vstem
          -99 callsubr
          endchar
        </CharString>
        <CharString name="Nacute">
          5 callgsubr
          hstem
          842 498 vstem
          -99 callsubr
          1152 1504 -100 callgsubr
          endchar
        </CharString>
        <CharString name="Ncaron">
          5 callgsubr
          87 340 hstemhm
          842 498 -416 691 hintmask 10100000
          -99 callsubr
          hintmask 01010000
          1125 1513 -92 callgsubr
        </CharString>
        <CharString name="Ncommaaccent">
          394 -22 callgsubr
          1665 -21 hstemhm
          417 329 96 498 hintmask 01010000
          -99 callsubr
          hintmask 10100000
          445 -307 -93 callsubr
        </CharString>
        <CharString name="Ntilde">
          5 callgsubr
          92 -34 callsubr
          842 498 -480 -2 callsubr
          -99 callsubr
          hintmask 00000000
          906 1564 -91 callsubr
        </CharString>
        <CharString name="O">
          -13 callsubr
          hstem
          -23 callgsubr
          vstem
          -102 callgsubr
          endchar
        </CharString>
        <CharString name="OE">
          789 -60 callsubr
          hstem
          327 556 367 316 vstem
          -57 callgsubr
          140 141 60 96 125 hvcurveto
          -83 47 99 -73 183 hhcurveto
          215 145 110 70 56 hvcurveto
          20 25 9 37 36 vvcurveto
          49 -17 45 -31 -16 -19 -11 -27 -22 vhcurveto
          -63 -52 -132 -139 -166 hhcurveto
          -72 -49 57 70 159 166 148 157 62 hvcurveto
          37 17 37 10 33 3 rrcurveto
          22 1 12 19 23 vvcurveto
          41 -37 56 -81 -26 -32 -6 -14 -36 vhcurveto
          -55 -10 -61 49 95 vvcurveto
          216 228 299 266 70 30 -31 -53 -94 -132 -94 -120 -83 8 callsubr
          -15 -13 -26 vvcurveto
          -51 62 -65 73 7 vhcurveto
          -71 callgsubr
          -142 -132 -54 -82 -107 vhcurveto
          96 -71 -110 40 -120 hhcurveto
          -464 -389 -590 -519 -16 hvcurveto
          209 -75 rmoveto
          445 12 380 604 264 hhcurveto
          98 49 -58 -88 18 hvcurveto
          -71 -98 -42 -113 -109 vvcurveto
          -127 70 -101 94 -37 vhcurveto
          -56 -9 -157 -103 -69 -154 rrcurveto
          -177 -128 -151 -126 -137 hhcurveto
          -105 -73 96 155 4 hvcurveto
          endchar
        </CharString>
        <CharString name="Oacute">
          -13 callsubr
          hstem
          -23 callgsubr
          vstem
          -102 callgsubr
          730 1258 -100 callgsubr
          endchar
        </CharString>
        <CharString name="Obreve">
          -13 callsubr
          89 167 hstemhm
          -23 callgsubr
          -534 627 hintmask 10100000
          -102 callgsubr
          hintmask 01010000
          745 1273 -103 callsubr
        </CharString>
        <CharString name="Ocircumflex">
          -13 callsubr
          hstem
          -23 callgsubr
          vstem
          -102 callgsubr
          559 1270 -98 callsubr
        </CharString>
        <CharString name="Odieresis">
          -13 callsubr
          105 -26 callgsubr
          -23 callgsubr
          -332 153 hintmask 10100000
          -102 callgsubr
          hintmask 01010000
          1013 1290 -102 callsubr
        </CharString>
        <CharString name="Ograve">
          -13 callsubr
          78 366 hstemhm
          -23 callgsubr
          -516 367 hintmask 10100000
          -102 callgsubr
          hintmask 01010000
          851 1262 -84 callgsubr
        </CharString>
        <CharString name="Ohungarumlaut">
          -13 callsubr
          56 384 hstemhm
          -23 callgsubr
          -574 703 hintmask 10100000
          -102 callgsubr
          hintmask 01010000
          874 1240 -74 callgsubr
        </CharString>
        <CharString name="Omacron">
          -13 callsubr
          140 185 hstemhm
          -23 callgsubr
          -637 718 hintmask 10100000
          -102 callgsubr
          hintmask 01010000
          432 1339 -88 callgsubr
        </CharString>
        <CharString name="Omega">
          663 0 131 1304 120 hstem
          149 247 143 226 198 226 143 247 vstem
          100 141 rmoveto
          -63 38 -78 117 vhcurveto
          457 hlineto
          56 18 52 53 -49 hvcurveto
          -108 117 -233 289 346 vvcurveto
          323 191 255 277 277 191 -255 -323 -346 -233 -289 -108 -117 vhcurveto
          -53 -49 18 -52 56 hhcurveto
          457 hlineto
          117 38 78 63 46 -41 78 -38 -27 hvcurveto
          -53 -75 -153 -54 -96 hhcurveto
          -28 -51 -14 93 110 hvcurveto
          150 127 173 198 315 vvcurveto
          388 -302 317 -413 -413 -302 -317 -388 -315 173 -198 150 -127 vhcurveto
          -93 110 -51 14 -28 hhcurveto
          -96 -153 54 53 -75 hvcurveto
          -38 27 -41 -78 -46 vvcurveto
          endchar
        </CharString>
        <CharString name="Oslash">
          286 -169 1894 -149 -21 hstemhm
          -23 callgsubr
          -1249 1296 hintmask 10010000
          120 -122 rmoveto
          1 -31 98 -47 28 58 23 44 38 57 44 59 rrcurveto
          -18 47 53 -10 58 hhcurveto
          hintmask 10100000
          421 424 588 517 14 hvcurveto
          5 179 -50 120 -79 72 55 66 54 60 43 41 11 callgsubr
          -29 -30 -29 -41 -30 -45 rrcurveto
          hintmask 01100000
          7 -32 -34 4 -34 hhcurveto
          -464 -389 -590 -519 -16 hvcurveto
          -5 -149 40 -116 73 -78 rrcurveto
          hintmask 10010000
          -58 -96 -46 -91 -2 -38 rrcurveto
          218 386 rmoveto
          -9 32 -3 35 1 40 rrcurveto
          445 12 380 604 264 hhcurveto
          14 14 -1 -3 12 hvcurveto
          -52 -96 -135 -221 -119 -209 -202 -352 -107 -179 -70 -95 rrcurveto
          78 -119 rmoveto
          70 131 142 256 85 142 110 184 239 369 68 105 20 -44 8 -56 -2 -64 rrcurveto
          -413 -11 -358 -635 -286 hhcurveto
          -32 -29 8 17 -24 hvcurveto
          endchar
        </CharString>
        <CharString name="Otilde">
          -13 callsubr
          87 -34 callsubr
          -23 callgsubr
          -643 -2 callsubr
          -102 callgsubr
          hintmask 00000000
          484 1318 -91 callsubr
        </CharString>
        <CharString name="P">
          78 -60 callsubr
          hstem
          -72 1341 vstem
          -66 callsubr
          endchar
        </CharString>
        <CharString name="Q">
          286 -354 168 176 139 -52 52 1296 130 hstemhm
          157 225 765 209 hintmask 10111100
          276 10 rmoveto
          hintmask 11011100
          -54 26 70 34 83 349 94 -344 369 hhcurveto
          132 79 89 74 32 -8 18 -19 hvcurveto
          -27 -16 -45 -59 hhcurveto
          -197 -210 227 69 -230 hvcurveto
          260 131 384 444 405 vvcurveto
          335 -172 130 -207 -446 -374 -510 -499 -164 99 -154 107 66 61 65 39 5 -1 5 -2 4 vhcurveto
          -60 72 -45 55 134 vvcurveto
          347 331 471 264 127 43 -95 -127 -425 -359 -488 -270 -130 vhcurveto
          -156 -74 -123 1 37 -77 rrcurveto
          endchar
        </CharString>
        <CharString name="R">
          220 -60 callsubr
          hstem
          692 379 vstem
          -95 callsubr
          endchar
        </CharString>
        <CharString name="Racute">
          220 -60 callsubr
          hstem
          692 379 vstem
          -95 callsubr
          822 1629 -100 callgsubr
          endchar
        </CharString>
        <CharString name="Rcaron">
          220 -60 callsubr
          82 340 hstemhm
          613 691 -612 379 hintmask 10010000
          -95 callsubr
          hintmask 01100000
          795 1638 -92 callgsubr
        </CharString>
        <CharString name="Rcommaaccent">
          220 -22 callgsubr
          1670 -21 hstemhm
          177 329 186 379 hintmask 01010000
          -95 callsubr
          hintmask 10100000
          186 -182 -93 callsubr
        </CharString>
        <CharString name="S">
          -88 callsubr
          endchar
        </CharString>
        <CharString name="Sacute">
          -88 callsubr
          831 1397 -100 callgsubr
          endchar
        </CharString>
        <CharString name="Scaron">
          -85 -1 callsubr
          81 340 hstemhm
          243 -11 callgsubr
          -114 691 hintmask 00000000
          47 232 rmoveto
          -86 73 -156 219 205 201 162 200 vhcurveto
          hintmask 10010000
          -92 callsubr
          -37 callgsubr
          hintmask 10100000
          -76 callsubr
          hintmask 10010000
          -28 callsubr
          hintmask 01001000
          804 1406 -92 callgsubr
        </CharString>
        <CharString name="Scedilla">
          -85 -460 533 1504 -21 hstemhm
          111 338 -206 -11 callgsubr
          hintmask 11101000
          47 232 rmoveto
          -74 53 -124 151 -34 vhcurveto
          83 -63 -37 -156 -101 -65 -48 callsubr
          59 -25 69 -36 52 hvcurveto
          187 23 170 152 184 -92 callsubr
          hintmask 11010000
          -37 callgsubr
          -76 callsubr
          -28 callsubr
          endchar
        </CharString>
        <CharString name="Scircumflex">
          -88 callsubr
          660 1409 -98 callsubr
        </CharString>
        <CharString name="Scommaaccent">
          -85 -22 callgsubr
          1671 -21 hstemhm
          118 329 -204 -11 callgsubr
          hintmask 00000000
          47 232 rmoveto
          -86 73 -156 219 205 201 162 200 vhcurveto
          hintmask 01001000
          -92 callsubr
          -37 callgsubr
          hintmask 01010000
          -76 callsubr
          hintmask 01001000
          -28 callsubr
          hintmask 10100000
          138 -414 -93 callsubr
        </CharString>
        <CharString name="T">
          -90 1566 -21 31 -21 hstemhm
          127 1162 hintmask 10100000
          -44 callgsubr
          hintmask 01100000
          -87 callgsubr
          45 hvcurveto
          -228 -506 -47 -599 -242 -156 rrcurveto
          -22 -14 -13 -5 -12 vvcurveto
          endchar
        </CharString>
        <CharString name="Tbar">
          -90 703 155 708 -21 31 -21 hstemhm
          127 1162 -1159 768 hintmask 11010000
          127 61 rmoveto
          -31 28 -37 61 11 23 2 5 13 vhcurveto
          190 67 134 314 103 322 rrcurveto
          69 17 callsubr
          -105 -2 55 185 46 176 43 117 rlinecurve
          -5 61 62 -4 65 hhcurveto
          118 92 57 115 10 hvcurveto
          36 3 -14 12 -15 hhcurveto
          -25 -7 -7 -10 -15 hvcurveto
          -27 -41 -35 -7 -58 hhcurveto
          hintmask 10101000
          -87 callgsubr
          45 hvcurveto
          -74 -164 -55 -173 -48 -164 -236 -4 rcurveline
          -4 callgsubr
          69 -5 118 -4 116 -2 -83 -285 -75 -240 -140 -90 rrcurveto
          hintmask 11010000
          -22 -14 -13 -5 -12 vvcurveto
          endchar
        </CharString>
        <CharString name="Tcaron">
          -90 1566 -21 31 -21 82 340 hstemhm
          127 1162 -622 691 hintmask 10010000
          -44 callgsubr
          hintmask 01010000
          -87 callgsubr
          45 hvcurveto
          -228 -506 -47 -599 -242 -156 rrcurveto
          -22 -14 -13 -5 -12 vvcurveto
          hintmask 00101000
          780 1577 -92 callgsubr
        </CharString>
        <CharString name="Tcommaaccent">
          -90 -22 callgsubr
          1660 -21 31 -21 hstemhm
          108 329 -310 1162 hintmask 01001000
          -44 callgsubr
          hintmask 00101000
          -87 callgsubr
          45 hvcurveto
          -228 -506 -47 -599 -242 -156 rrcurveto
          -22 -14 -13 -5 -12 vvcurveto
          hintmask 10010000
          48 -243 -93 callsubr
        </CharString>
        <CharString name="Thorn">
          25 486 517 21 -20 573 -21 hstem
          -98 1201 vstem
          18 hmoveto
          117 41 109 145 93 183 rrcurveto
          385 -30 381 157 340 vvcurveto
          166 -141 169 -356 -9 vhcurveto
          20 98 11 80 -1 46 -1 61 -15 35 -25 19 rrcurveto
          48 -66 -46 7 -110 hhcurveto
          -36 -189 -42 -66 -8 hvcurveto
          -8 -49 94 -81 42 23 54 30 43 33 54 2 rrcurveto
          -197 -240 -927 -262 -190 vhcurveto
          -43 -31 53 -93 91 32 rrcurveto
          375 489 rmoveto
          74 169 60 185 42 162 6 1 6 1 7 2 rrcurveto
          238 55 65 -102 -112 vvcurveto
          -193 -204 -143 -294 -25 vhcurveto
          endchar
        </CharString>
        <CharString name="U">
          223 1565 -21 32 -21 -48 callgsubr
          hintmask 01100000
          42 -78 callsubr
          hintmask 10010000
          -104 callgsubr
          hintmask 01100000
          -82 callgsubr
          endchar
        </CharString>
        <CharString name="Uacute">
          223 1565 -21 32 -21 -48 callgsubr
          hintmask 01100000
          42 -78 callsubr
          hintmask 10010000
          -104 callgsubr
          hintmask 01100000
          -82 callgsubr
          905 1386 -100 callgsubr
          endchar
        </CharString>
        <CharString name="Ubreve">
          223 -42 callsubr
          89 167 -48 callgsubr
          -93 627 hintmask 01010000
          42 -78 callsubr
          hintmask 10001000
          -104 callgsubr
          hintmask 01010000
          -82 callgsubr
          hintmask 00100100
          920 1401 -103 callsubr
        </CharString>
        <CharString name="Ucircumflex">
          223 1565 -21 32 -21 -48 callgsubr
          hintmask 01100000
          42 -78 callsubr
          hintmask 10010000
          -104 callgsubr
          hintmask 01100000
          -82 callgsubr
          734 1398 -98 callsubr
        </CharString>
        <CharString name="Udieresis">
          223 -42 callsubr
          105 297 -48 callgsubr
          109 153 hintmask 01010000
          42 -78 callsubr
          hintmask 10001000
          -104 callgsubr
          hintmask 01010000
          -82 callgsubr
          hintmask 00100100
          1188 1418 -102 callsubr
        </CharString>
        <CharString name="Ugrave">
          223 -42 callsubr
          78 366 -48 callgsubr
          -75 367 hintmask 01010000
          42 -78 callsubr
          hintmask 10001000
          -104 callgsubr
          hintmask 01010000
          -82 callgsubr
          hintmask 00100100
          1026 1390 -84 callgsubr
        </CharString>
        <CharString name="Uhungarumlaut">
          223 -42 callsubr
          56 384 -48 callgsubr
          -133 703 hintmask 01010000
          42 -78 callsubr
          hintmask 10001000
          -104 callgsubr
          hintmask 01010000
          -82 callgsubr
          hintmask 00100100
          1049 1368 -74 callgsubr
        </CharString>
        <CharString name="Umacron">
          223 -42 callsubr
          140 185 -48 callgsubr
          -196 718 hintmask 01010000
          42 -78 callsubr
          hintmask 10001000
          -104 callgsubr
          hintmask 01010000
          -82 callgsubr
          hintmask 00100100
          607 1467 -88 callgsubr
        </CharString>
        <CharString name="Uogonek">
          345 -5 callgsubr
          1462 -21 32 -21 hstemhm
          103 1378 -1153 552 -114 491 hintmask 10110000
          104 -78 callsubr
          hintmask 10101000
          -43 -138 -43 -163 -93 vvcurveto
          -132 51 -70 77 -23 vhcurveto
          hintmask 11000100
          -124 -93 -118 -142 -132 vvcurveto
          -79 callsubr
          15 14 17 14 15 12 58 25 40 41 16 27 rrcurveto
          13 23 9 29 20 vvcurveto
          17 -6 11 -15 vhcurveto
          -26 -29 -36 -66 hhcurveto
          -54 -17 40 56 14 1 16 2 16 hvcurveto
          23 208 221 649 135 261 rrcurveto
          55 29 -77 63 -65 hhcurveto
          -28 -28 -10 -26 -14 hvcurveto
          -352 -199 -436 -988 -258 hhcurveto
          hintmask 10101000
          -80 callsubr
          -82 callgsubr
          endchar
        </CharString>
        <CharString name="Uring">
          223 1565 -21 30 315 -313 -21 -48 callgsubr
          91 209 hintmask 00110000
          42 -78 callsubr
          hintmask 10001000
          -104 callgsubr
          hintmask 00110000
          -82 callgsubr
          hintmask 00000000
          930 1241 -59 callsubr
          hintmask 01000100
          -67 callgsubr
        </CharString>
        <CharString name="Utilde">
          223 -42 callsubr
          87 187 -36 187 -48 callgsubr
          -202 777 hintmask 01001000
          42 -78 callsubr
          hintmask 10000100
          -104 callgsubr
          hintmask 01001000
          -82 callgsubr
          hintmask 00000000
          659 1446 rmoveto
          46 32 34 58 71 84 17 -151 146 hhcurveto
          137 165 145 118 6 hvcurveto
          hintmask 00100010
          3 81 -71 -7 -17 -46 rrcurveto
          -46 -29 -42 -58 -76 -85 -18 151 -146 hhcurveto
          -135 -155 -145 -118 -6 hvcurveto
          hintmask 00010010
          -3 -81 68 9 20 44 rrcurveto
          endchar
        </CharString>
        <CharString name="V">
          147 -60 callsubr
          hstemhm
          118 1313 -706 470 hintmask 11000000
          118 272 rmoveto
          -99 57 -181 129 26 30 7 22 18 vhcurveto
          58 71 89 103 160 158 rrcurveto
          244 237 502 398 411 vvcurveto
          91 -54 119 -125 -73 -51 -58 -44 -2 vhcurveto
          -1 -12 4 -10 7 -7 rrcurveto
          hintmask 10100000
          32 -29 27 -57 -68 vvcurveto
          -44 -13 -46 -24 -46 vhcurveto
          -204 -401 -445 -347 -177 -282 rrcurveto
          -10 36 -3 38 38 vvcurveto
          172 98 191 101 214 vhcurveto
          91 191 116 182 114 vvcurveto
          16 -3 14 -5 13 vhcurveto
          53 -23 -70 125 -140 hhcurveto
          -88 -209 -50 -75 -40 hvcurveto
          -59 -28 86 -80 62 hhcurveto
          17 15 7 12 16 hvcurveto
          35 65 86 19 70 hhcurveto
          11 hlineto
          hintmask 11000000
          -190 -290 -239 -521 -281 vvcurveto
          endchar
        </CharString>
        <CharString name="W">
          872 -60 callsubr
          hstem
          295 536 545 372 vstem
          -103 callgsubr
          endchar
        </CharString>
        <CharString name="Wacute">
          872 -60 callsubr
          hstem
          295 536 545 372 vstem
          -103 callgsubr
          964 1637 -100 callgsubr
          endchar
        </CharString>
        <CharString name="Wcircumflex">
          872 -60 callsubr
          hstem
          295 536 545 372 vstem
          -103 callgsubr
          793 1649 -98 callsubr
        </CharString>
        <CharString name="Wdieresis">
          872 -60 callsubr
          105 -26 callgsubr
          295 536 393 153 -1 372 hintmask 10101000
          -103 callgsubr
          hintmask 01010000
          1247 1669 -102 callsubr
        </CharString>
        <CharString name="Wgrave">
          872 -60 callsubr
          78 366 hstemhm
          295 536 209 367 -31 372 hintmask 10101000
          -103 callgsubr
          hintmask 01010000
          1085 1641 -84 callgsubr
        </CharString>
        <CharString name="X">
          76 806 31 739 -21 hstem
          548 24 26 21 vstem
          -60 -9 rmoveto
          148 265 323 190 125 hvcurveto
          -238 54 99 -276 228 hhcurveto
          -25 callgsubr
          hvcurveto
          -34 callgsubr
          -29 -36 -66 hhcurveto
          -133 -109 341 199 -43 hvcurveto
          176 251 237 294 154 111 110 88 59 13 9 15 rrcurveto
          44 25 -83 33 -68 hhcurveto
          -20 -19 -6 -3 -14 hvcurveto
          -226 -51 -208 -352 -174 -232 -17 169 -4 157 29 198 rrcurveto
          78 11 9 42 -39 hhcurveto
          -107 -106 -85 -115 -16 hvcurveto
          -16 -118 37 -355 38 -175 -176 -297 -268 -240 -108 -67 -32 -20 -4 3 -11 -18 rrcurveto
          -29 -18 44 -48 83 hhcurveto
          endchar
        </CharString>
        <CharString name="Y">
          133 12 callgsubr
          35 1378 hintmask 10100000
          -93 callgsubr
          hintmask 01100000
          -18 callsubr
          endchar
        </CharString>
        <CharString name="Yacute">
          133 12 callgsubr
          35 1378 hintmask 10100000
          -93 callgsubr
          hintmask 01100000
          -18 callsubr
          897 1386 -100 callgsubr
          endchar
        </CharString>
        <CharString name="Ycircumflex">
          133 12 callgsubr
          35 1378 hintmask 10100000
          -93 callgsubr
          hintmask 01100000
          -18 callsubr
          726 1398 -98 callsubr
        </CharString>
        <CharString name="Ydieresis">
          133 -42 callsubr
          105 -26 callgsubr
          35 1378 -500 153 hintmask 10010000
          -93 callgsubr
          hintmask 01010000
          -18 callsubr
          hintmask 00101000
          1180 1418 -102 callsubr
        </CharString>
        <CharString name="Ygrave">
          133 -42 callsubr
          78 366 hstemhm
          35 1378 -684 367 hintmask 10010000
          -93 callgsubr
          hintmask 01010000
          -18 callsubr
          hintmask 00101000
          1018 1390 -84 callgsubr
        </CharString>
        <CharString name="Z">
          -29 -60 callsubr
          hstem
          -25 1250 vstem
          -90 callgsubr
          endchar
        </CharString>
        <CharString name="Zacute">
          -29 -60 callsubr
          hstem
          -25 1250 vstem
          -90 callgsubr
          728 1639 -100 callgsubr
          endchar
        </CharString>
        <CharString name="Zcaron">
          -29 -60 callsubr
          82 340 hstemhm
          -25 1250 -692 691 hintmask 10100000
          -90 callgsubr
          hintmask 01010000
          701 1648 -92 callgsubr
        </CharString>
        <CharString name="Zdotaccent">
          -29 -29 callsubr
          -25 1250 -597 307 hintmask 10100000
          -90 callgsubr
          hintmask 01010000
          706 1680 rmoveto
          -85 callsubr
        </CharString>
        <CharString name="a">
          -11 callsubr
          hstem
          -1 callgsubr
          vstem
          302 -105 callgsubr
          endchar
        </CharString>
        <CharString name="aacute">
          -11 callsubr
          217 487 6 callgsubr
          -93 447 hintmask 10100000
          302 -65 callsubr
          313 860 -100 callsubr
        </CharString>
        <CharString name="abreve">
          57 366 539 256 167 hstemhm
          285 360 -140 627 -67 callsubr
          457 899 -103 callsubr
        </CharString>
        <CharString name="acircumflex">
          -11 callsubr
          239 434 6 callgsubr
          -259 711 hintmask 10100000
          302 -65 callsubr
          236 891 -101 callgsubr
          endchar
        </CharString>
        <CharString name="acute">
          -396 1122 487 hstem
          170 447 vstem
          216 1122 -100 callsubr
        </CharString>
        <CharString name="acute.cap">
          -563 1629 370 hstem
          201 389 vstem
          247 1629 -100 callgsubr
          endchar
        </CharString>
        <CharString name="adieresis">
          -11 callsubr
          305 297 6 callgsubr
          64 153 hintmask 10100000
          302 -65 callsubr
          727 949 -102 callsubr
        </CharString>
        <CharString name="ae">
          519 138 226 hstem
          283 403 vstem
          302 -77 callsubr
          endchar
        </CharString>
        <CharString name="aeacute">
          522 138 226 758 487 hstemhm
          286 403 77 447 hintmask 10100000
          305 -77 callsubr
          hintmask 01010000
          -96 658 -100 callsubr
        </CharString>
        <CharString name="agrave">
          -11 callsubr
          216 486 6 callgsubr
          -73 287 hintmask 10100000
          302 -65 callsubr
          532 859 -85 callgsubr
        </CharString>
        <CharString name="amacron">
          57 366 539 278 185 hstemhm
          285 360 -244 718 -67 callsubr
          143 936 -88 callgsubr
        </CharString>
        <CharString name="ampersand">
          98 535 364 -335 144 869 -21 hstemhm
          290 418 -282 312 hintmask 00000000
          69 282 rmoveto
          hintmask 01110000
          -118 84 -174 268 270 222 215 153 -31 vhcurveto
          152 -3 125 82 102 vvcurveto
          hintmask 10101000
          26 -14 13 -38 -11 vhcurveto
          -25 -85 -51 -7 -72 -73 -69 29 -52 hhcurveto
          -73 -65 -87 -16 27 hvcurveto
          41 -25 76 8 -3 -117 rrcurveto
          -94 -3 -106 -121 -138 hhcurveto
          -112 -59 77 100 167 161 156 152 66 hvcurveto
          38 16 36 11 33 3 rrcurveto
          23 1 11 19 23 vvcurveto
          41 -37 56 -81 -26 -32 -6 -14 -36 vhcurveto
          -50 -10 -56 49 95 vvcurveto
          192 219 263 225 89 52 -30 -74 -93 -129 -97 -127 -69 vhcurveto
          -28 -50 69 -127 96 hhcurveto
          hintmask 01101000
          120 175 195 165 130 -85 167 -245 -348 -276 -285 -257 -127 66 -101 88 -37 hvcurveto
          hintmask 01110000
          -88 -34 -208 -181 -252 vvcurveto
          endchar
        </CharString>
        <CharString name="aogonek">
          53 -5 callgsubr
          263 539 6 callgsubr
          -126 483 hintmask 11100000
          302 -10 rmoveto
          174 118 171 119 59 hvcurveto
          -6 -38 -4 -37 -10 vvcurveto
          -117 53 -59 63 -20 vhcurveto
          hintmask 11010000
          -124 -93 -118 -142 -131 vvcurveto
          -79 callsubr
          47 42 79 54 14 vvcurveto
          7 8 5 8 4 7 rrcurveto
          -34 callgsubr
          -22 -28 -66 hhcurveto
          -71 4 80 50 4 hvcurveto
          10 139 196 400 49 94 rrcurveto
          54 26 -79 44 -69 hhcurveto
          -28 -27 -21 -20 -16 hvcurveto
          -15 -14 -19 -28 -17 -28 rrcurveto
          57 -36 -58 54 -91 hhcurveto
          -262 -329 -344 -369 -14 hvcurveto
          -187 -7 92 -145 156 hhcurveto
          hintmask 11100000
          -19 272 rmoveto
          315 211 328 186 66 31 -67 -44 3 vhcurveto
          -310 -83 -214 -342 -123 hhcurveto
          -57 -20 48 72 hvcurveto
          endchar
        </CharString>
        <CharString name="approxequal">
          320 250 187 54 187 52 187 54 10 callgsubr
          114 1107 -1042 1107 hintmask 11001000
          114 325 -61 callgsubr
          hintmask 00110100
          65 480 -61 callgsubr
          endchar
        </CharString>
        <CharString name="aring">
          -11 callsubr
          246 88 1 315 -1 91 6 callgsubr
          -135 172 0 209 0 174 hintmask 01010101
          hintmask 10001000
          302 -105 callgsubr
          hintmask 00000000
          460 888 -59 callsubr
          hintmask 00100010
          -67 callgsubr
        </CharString>
        <CharString name="asciicircum">
          51 1556 -21 hstem
          175 892 vstem
          263 710 rmoveto
          17 13 7 13 9 hvcurveto
          339 514 299 -514 rlineto
          -13 9 13 -7 17 hhcurveto
          43 58 38 25 -15 hvcurveto
          -359 762 9 callgsubr
          -409 -762 rlineto
          -25 -15 58 -38 43 hhcurveto
          endchar
        </CharString>
        <CharString name="asciitilde">
          223 510 187 54 187 hstem
          128 1107 vstem
          128 585 -61 callgsubr
          endchar
        </CharString>
        <CharString name="asterisk">
          5 1020 -20 30 -20 hstem
          590 10 vstem
          305 805 rmoveto
          39 -26 108 157 138 75 54 -80 49 -82 34 -61 rrcurveto
          -11 6 13 -5 15 hhcurveto
          42 63 39 53 56 -109 96 -58 56 hvcurveto
          104 60 117 9 54 -2 rrcurveto
          33 -1 14 24 30 vvcurveto
          52 -43 69 -65 -14 vhcurveto
          -114 -24 -78 -62 -65 -48 75 153 83 103 24 28 rrcurveto
          15 17 6 16 13 vvcurveto
          40 -56 22 -59 -43 -44 -12 -25 -26 vhcurveto
          -36 -34 -40 -151 -133 vvcurveto
          -19 vlineto
          -66 67 -71 92 -17 46 -10 27 -65 -37 -13 -54 -19 -77 84 -97 98 -68 -131 -97 -121 -127 81 -53 rrcurveto
          endchar
        </CharString>
        <CharString name="at">
          798 -266 124 272 139 -129 124 600 120 259 151 hstemhm
          101 196 242 211 304 165 429 167 hintmask 1011111110000000
          101 361 rmoveto
          -414 289 -213 396 129 180 46 51 72 vhcurveto
          60 42 3 69 -52 -19 rrcurveto
          -35 -97 -116 -30 -139 hhcurveto
          -374 -155 249 278 450 286 408 557 323 201 -183 -296 -16 hvcurveto
          -312 -17 -241 -188 -122 hhcurveto
          -37 -12 19 28 158 177 338 38 79 hvcurveto
          53 27 -71 45 -63 hhcurveto
          -25 -36 -8 -109 -53 hvcurveto
          60 -29 -47 57 -102 hhcurveto
          -218 -278 -269 -335 hvcurveto
          hintmask 1101111110000000
          -155 97 -95 115 118 113 119 124 81 vhcurveto
          -6 -29 -3 -26 -16 vvcurveto
          hintmask 1011111110000000
          -116 80 -46 96 270 295 287 355 20 vhcurveto
          356 18 -213 256 -468 hhcurveto
          -538 -513 -442 -591 hvcurveto
          hintmask 1101111110000000
          649 20 rmoveto
          229 153 254 126 81 29 -75 -64 10 vhcurveto
          -179 -71 -146 -277 -116 hhcurveto
          -58 -8 57 55 hvcurveto
          353 130 rmoveto
          1 0 1 1 1 vhcurveto
          -1 -2 0 -1 0 vvcurveto
          endchar
        </CharString>
        <CharString name="atilde">
          -11 callsubr
          306 -34 callsubr
          283 360 -245 -2 callsubr
          302 -105 callgsubr
          hintmask 00000000
          200 996 -91 callsubr
        </CharString>
        <CharString name="b">
          21 -16 callsubr
          hstem
          81 920 vstem
          -58 callsubr
          endchar
        </CharString>
        <CharString name="backslash">
          -105 -25 callsubr
          96 682 vstem
          602 -234 rmoveto
          -94 25 53 -20 62 hhcurveto
          57 -23 79 77 -17 hvcurveto
          -30 138 -393 1542 -56 222 rrcurveto
          80 -20 -65 33 -69 hhcurveto
          -51 22 -64 -138 36 hvcurveto
          42 -161 352 -1408 75 -286 rrcurveto
          endchar
        </CharString>
        <CharString name="bar">
          -428 -25 callsubr
          255 186 vstem
          255 -212 rmoveto
          -80 3 -56 47 62 73 57 97 vhcurveto
          299 1 1348 -16 callgsubr
          endchar
        </CharString>
        <CharString name="braceleft">
          -186 -25 callsubr
          104 1024 vstem
          250 322 rmoveto
          -305 -115 -168 -365 334 hhcurveto
          132 21 30 24 22 -14 22 -60 -89 5 148 356 146 hvcurveto
          109 262 -44 166 -124 49 237 8 115 251 61 248 rrcurveto
          223 55 55 262 132 hhcurveto
          56 34 15 40 33 -38 12 -140 -228 -56 -266 -243 -59 hvcurveto
          -60 -244 -97 -223 -176 -11 -67 -4 -27 -122 32 -8 77 -18 62 -100 -101 -262 rrcurveto
          endchar
        </CharString>
        <CharString name="braceright">
          -186 -25 callsubr
          -131 1024 vstem
          -41 -248 rmoveto
          -56 -34 -15 -40 -33 38 -12 140 228 56 266 243 59 hvcurveto
          60 244 97 223 176 11 67 4 27 122 -32 8 -77 18 -62 100 101 262 rrcurveto
          305 115 168 365 -334 hhcurveto
          -132 -21 -30 -24 -22 14 -22 60 89 -5 -148 -356 -146 hvcurveto
          -109 -262 44 -166 124 -49 -237 -8 -115 -251 -61 -248 rrcurveto
          -223 -55 -55 -262 -132 hhcurveto
          endchar
        </CharString>
        <CharString name="bracketleft">
          -244 -25 callsubr
          -3 1077 vstem
          12 -201 rmoveto
          -9 -24 -6 -22 -18 vvcurveto
          -55 28 -28 133 102 163 2 59 31 -64 16 -62 -42 -15 12 17 34 14 43 15 39 vhcurveto
          115 331 394 1207 85 187 17 37 25 28 40 16 rrcurveto
          56 23 73 2 33 vvcurveto
          42 -54 12 -177 -107 -29 -26 -34 -13 vhcurveto
          -101 -259 -517 -1536 -64 -169 rrcurveto
          endchar
        </CharString>
        <CharString name="bracketright">
          -248 -25 callsubr
          -124 1077 vstem
          97 -155 rmoveto
          -17 -37 -25 -28 -40 -16 rrcurveto
          -56 -23 -83 -2 -33 vvcurveto
          -42 54 -12 177 107 29 26 34 13 vhcurveto
          101 259 517 1536 64 169 rrcurveto
          9 24 6 22 18 vvcurveto
          55 -28 28 -133 -102 -163 -2 -59 -31 74 -16 62 42 15 -12 -17 -34 -14 -43 -15 -39 vhcurveto
          -115 -331 -394 -1207 -85 -187 rrcurveto
          endchar
        </CharString>
        <CharString name="breve">
          -351 1161 167 hstem
          88 627 vstem
          325 1161 -103 callsubr
        </CharString>
        <CharString name="breve.cap">
          -506 1644 167 hstem
          152 627 vstem
          389 1644 -103 callsubr
        </CharString>
        <CharString name="brokenbar">
          -457 -25 callsubr
          225 186 vstem
          275 852 rmoveto
          62 73 57 97 hvcurveto
          299 1 148 -16 callgsubr
          -682 vlineto
          -80 3 -56 47 vhcurveto
          -50 -1064 rmoveto
          -80 3 -56 47 62 73 57 97 vhcurveto
          299 1 148 -16 callgsubr
          endchar
        </CharString>
        <CharString name="bullet">
          -161 456 480 hstem
          229 491 vstem
          474 457 rmoveto
          119 12 127 106 145 vvcurveto
          160 -113 56 -111 -111 -156 -75 -176 -119 98 -124 147 15 vhcurveto
          endchar
        </CharString>
        <CharString name="c">
          -103 294 218 hstem
          64 869 vstem
          64 -91 callgsubr
          endchar
        </CharString>
        <CharString name="cacute">
          -97 294 218 610 487 hstemhm
          67 869 -284 447 hintmask 10100000
          67 -91 callgsubr
          hintmask 01010000
          631 781 -100 callsubr
        </CharString>
        <CharString name="caron">
          -274 1133 409 hstem
          81 691 vstem
          263 1134 -84 callsubr
        </CharString>
        <CharString name="caron.cap">
          -232 1637 340 hstem
          153 691 vstem
          393 1638 -92 callgsubr
        </CharString>
        <CharString name="caronvertical">
          -545 1162 524 hstem
          157 339 vstem
          182 1163 -72 callsubr
        </CharString>
        <CharString name="ccaron">
          -97 294 218 621 409 hstemhm
          67 869 -401 691 hintmask 10100000
          67 -91 callgsubr
          hintmask 01010000
          650 793 -84 callsubr
        </CharString>
        <CharString name="ccedilla">
          -103 -460 533 221 218 hstemhm
          64 869 -785 338 hintmask 11010000
          279 6 rmoveto
          95 -57 -37 -166 -104 -67 -48 callsubr
          58 -24 68 -36 52 hvcurveto
          115 5 101 42 85 82 104 110 -72 113 -52 -70 rrcurveto
          -79 -65 -108 -56 -101 hhcurveto
          -89 -57 71 124 3 hvcurveto
          244 7 201 328 176 hhcurveto
          44 33 -16 -46 -1 hvcurveto
          -2 -69 -36 -57 -33 -35 -26 -28 -23 -10 -4 -17 rrcurveto
          -51 -14 35 -64 99 hhcurveto
          hintmask 11100000
          83 101 142 135 3 hvcurveto
          181 5 -130 65 13 callsubr
          -322 -295 -331 -363 -10 hvcurveto
          -4 -176 77 -118 142 -41 rrcurveto
          endchar
        </CharString>
        <CharString name="ccircumflex">
          -97 294 218 632 434 hstemhm
          67 869 -550 711 hintmask 10100000
          67 -91 callgsubr
          hintmask 01010000
          454 812 -101 callgsubr
          endchar
        </CharString>
        <CharString name="cdotaccent">
          -97 294 218 698 -26 callgsubr
          67 869 -301 307 hintmask 10100000
          67 -91 callgsubr
          hintmask 01010000
          718 870 rmoveto
          -85 callsubr
        </CharString>
        <CharString name="cedilla">
          -438 -460 533 hstem
          146 338 vstem
          261 14 -35 callgsubr
        </CharString>
        <CharString name="cent">
          -57 518 224 835 -21 hstem
          154 836 vstem
          290 17 rmoveto
          7 -30 107 -19 11 61 15 51 28 68 32 72 rrcurveto
          17 hlineto
          117 98 46 80 90 hvcurveto
          88 78 -60 141 -62 -62 rrcurveto
          -84 -84 -73 -51 -93 hhcurveto
          -89 -59 71 124 244 183 328 166 38 29 -16 -46 -69 -34 -57 -32 -35 hvcurveto
          -26 -28 -24 -10 -2 -17 rrcurveto
          -51 -7 54 -64 69 hhcurveto
          83 97 132 135 129 -61 75 -75 33 hvcurveto
          46 90 49 86 39 57 24 34 2 36 -34 7 -83 16 -63 -24 -56 -104 -26 -49 -20 -65 -25 -68 rrcurveto
          -299 -33 -238 -315 -343 vvcurveto
          -158 69 -112 120 -51 vhcurveto
          -35 -103 -24 -94 6 -36 rrcurveto
          endchar
        </CharString>
        <CharString name="circumflex">
          -330 1144 434 hstem
          19 711 vstem
          154 1153 -101 callgsubr
          endchar
        </CharString>
        <CharString name="circumflex.cap">
          -304 1632 363 hstem
          174 667 vstem
          309 1641 -98 callsubr
        </CharString>
        <CharString name="colon">
          -415 -10 959 hstem
          64 487 vstem
          394 643 rmoveto
          -64 callsubr
          4 callsubr
          -330 -500 rmoveto
          4 callsubr
          -64 callsubr
          vhcurveto
          endchar
        </CharString>
        <CharString name="comma">
          -415 -291 585 hstem
          -2 387 vstem
          158 -7 -31 callgsubr
        </CharString>
        <CharString name="commaaccent">
          -542 -22 callgsubr
          hstem
          82 329 vstem
          149 -182 -93 callsubr
        </CharString>
        <CharString name="copyright">
          729 128 172 234 177 560 147 hstem
          330 213 206 230 329 229 vstem
          158 632 rmoveto
          -397 276 -265 392 481 402 445 498 397 -276 265 -392 -479 -404 -445 -498 vhcurveto
          172 13 rmoveto
          401 321 372 399 304 183 -223 -294 -402 -320 -371 -400 -304 -183 222 295 vhcurveto
          213 -26 rmoveto
          -186 128 -133 205 154 89 76 44 33 vhcurveto
          9 13 7 20 21 vvcurveto
          31 -10 29 -24 -12 -14 -7 -16 -19 vhcurveto
          -55 -67 -63 -31 -71 hhcurveto
          -97 -42 78 115 213 174 322 167 57 21 -35 -43 -78 -84 -96 -92 -55 hvcurveto
          -9 -6 -4 -11 -12 vvcurveto
          -42 46 -64 62 92 129 152 162 121 -56 125 -184 -232 -293 -269 -383 vhcurveto
          endchar
        </CharString>
        <CharString name="currency">
          116 74 1298 hstem
          103 1124 vstem
          103 147 rmoveto
          -3 -31 76 -48 32 54 30 41 47 53 53 55 rrcurveto
          -28 48 58 -13 65 hhcurveto
          67 64 17 30 60 hvcurveto
          86 -176 27 -55 86 37 -6 45 rlinecurve
          -9 63 -34 66 -31 102 rrcurveto
          133 119 87 183 164 vvcurveto
          85 -19 68 -31 51 vhcurveto
          73 69 75 62 56 40 33 23 14 33 -29 19 -44 33 -86 6 -89 -79 -32 -30 -39 -38 -38 -42 rrcurveto
          20 -42 -47 10 -50 hhcurveto
          -46 -45 -8 -14 -43 hvcurveto
          -13 70 -7 62 -5 53 -3 41 -18 15 -34 -2 -51 -3 -79 -81 25 -126 6 -34 10 -39 13 -42 rrcurveto
          -150 -119 -100 -196 -176 vvcurveto
          -79 15 -63 27 -50 vhcurveto
          -74 -91 -62 -89 -7 -37 rrcurveto
          403 193 rmoveto
          -67 -23 62 89 241 202 313 116 78 12 -72 -85 -209 -178 -339 -140 hvcurveto
          endchar
        </CharString>
        <CharString name="d">
          85 -16 callsubr
          hstem
          307 389 vstem
          -86 callgsubr
          endchar
        </CharString>
        <CharString name="dagger">
          -56 1011 -20 583 -21 hstem
          180 857 14 callsubr
          133 253 620 450 139 hvcurveto
          9 callsubr
          -44 callsubr
          -95 -379 -132 -435 -60 -131 rrcurveto
          endchar
        </CharString>
        <CharString name="daggerdbl">
          -56 627 384 563 -21 hstem
          135 902 14 callsubr
          84 131 245 295 121 hvcurveto
          47 2 45 4 36 7 118 21 54 55 6 56 4 31 -31 13 -39 -8 -48 -11 -63 -9 -69 -7 48 128 45 130 36 118 9 callsubr
          rrcurveto
          -44 callsubr
          -32 -129 -37 -134 -36 -127 -78 -1 -71 3 -52 9 -62 10 -2 -78 50 -28 44 -25 63 -16 69 -8 -57 -191 -54 -159 -32 -71 rrcurveto
          endchar
        </CharString>
        <CharString name="dcaron">
          85 -16 callsubr
          -524 524 hstemhm
          307 389 640 339 hintmask 10100000
          -86 callgsubr
          hintmask 01010000
          968 1023 -72 callsubr
        </CharString>
        <CharString name="dcroat">
          85 -16 callsubr
          -393 155 hstemhm
          307 389 -35 718 hintmask 10010000
          84 295 rmoveto
          -230 116 -75 136 170 118 159 123 80 vhcurveto
          hintmask 10100000
          -5 -30 -3 -28 -9 vvcurveto
          -152 91 -63 84 109 68 -19 callsubr
          13 23 9 28 20 vvcurveto
          17 -6 12 -15 vhcurveto
          -26 -29 -36 -76 hhcurveto
          -39 -10 35 26 25 5 31 4 21 hvcurveto
          hintmask 01010000
          28 149 144 480 131 360 rrcurveto
          37 17 callsubr
          -62 -1 22 56 22 50 19 42 rlinecurve
          3 8 2 7 7 vvcurveto
          hintmask 10010000
          46 -70 23 -44 -28 -28 -17 -27 -22 vhcurveto
          -19 -24 -32 -61 -45 -115 -244 -4 rcurveline
          -4 callgsubr
          69 -5 118 -4 112 -3 -33 -95 -37 -118 -42 -144 rrcurveto
          51 -37 -56 45 -82 hhcurveto
          -266 -350 -371 -369 hvcurveto
          309 -155 rmoveto
          hintmask 01100000
          -65 -21 57 95 274 216 339 191 -7 callsubr
          -336 -77 -221 -318 -123 hhcurveto
          endchar
        </CharString>
        <CharString name="degree">
          -225 -60 callsubr
          hstem
          226 661 vstem
          491 890 rmoveto
          228 155 194 181 12 hvcurveto
          209 15 -113 81 -155 hhcurveto
          -234 -160 -196 -183 -12 hvcurveto
          -205 -15 106 -81 173 hhcurveto
          4 100 rmoveto
          -59 -28 52 99 7 hvcurveto
          183 13 107 131 80 hhcurveto
          59 29 -49 -86 -6 hvcurveto
          -149 -11 -84 -181 -107 hhcurveto
          endchar
        </CharString>
        <CharString name="dieresis">
          -211 3 callsubr
          388 153 vstem
          691 1211 -102 callsubr
        </CharString>
        <CharString name="dieresis.cap">
          -105 1660 297 hstem
          556 153 vstem
          859 1661 -102 callsubr
        </CharString>
        <CharString name="divide">
          209 506 178 145 153 hstem
          160 1014 vstem
          682 982 rmoveto
          67 7 68 65 90 vvcurveto
          75 -92 25 -59 -56 -73 -29 -103 -67 61 -71 84 8 vhcurveto
          -453 -298 -63 callsubr
          283 -310 rmoveto
          -67 62 -71 84 8 vhcurveto
          67 8 67 64 90 vvcurveto
          76 -92 24 -59 -56 -73 -29 -103 vhcurveto
          endchar
        </CharString>
        <CharString name="dollar">
          62 -1 callsubr
          hstemhm
          312 311 -92 253 hintmask 10100000
          116 232 rmoveto
          -66 42 -107 118 -46 vhcurveto
          -40 -111 -28 -106 7 -39 7 -30 108 -19 11 61 17 59 33 80 39 83 rrcurveto
          197 10 187 148 203 276 -283 162 228 vvcurveto
          212 138 187 188 95 59 -61 -103 -3 vhcurveto
          -4 -140 -135 -116 -68 -64 rrcurveto
          -12 -11 -5 -13 -13 vvcurveto
          -44 58 -47 70 19 19 3 6 19 vhcurveto
          103 35 120 158 182 vvcurveto
          112 -43 137 -119 71 vhcurveto
          47 93 51 89 40 58 24 34 2 35 -34 8 -73 16 -73 -24 -56 -104 -23 -44 -19 -57 -22 -60 rrcurveto
          2 -16 -18 1 -18 hhcurveto
          -289 -257 -285 -302 hvcurveto
          hintmask 11000000
          -340 327 -127 -212 vvcurveto
          -76 callsubr
          -28 callsubr
          endchar
        </CharString>
        <CharString name="dotaccent">
          -610 3 callsubr
          139 307 vstem
          289 1211 rmoveto
          -85 callsubr
        </CharString>
        <CharString name="dotaccent.cap">
          -528 1669 297 hstem
          223 307 vstem
          373 1670 rmoveto
          -85 callsubr
        </CharString>
        <CharString name="dotlessi">
          -470 -33 callgsubr
          hstem
          56 463 vstem
          56 167 -95 callgsubr
          endchar
        </CharString>
        <CharString name="dotlessj">
          -487 -557 1592 hstem
          -356 851 vstem
          -329 -460 -39 callgsubr
        </CharString>
        <CharString name="e">
          -19 callgsubr
          hstem
          77 852 vstem
          -104 callsubr
          endchar
        </CharString>
        <CharString name="eacute">
          -19 callgsubr
          758 487 7 callgsubr
          -458 447 hintmask 10100000
          -104 callsubr
          hintmask 01010000
          191 658 -100 callsubr
        </CharString>
        <CharString name="ebreve">
          -19 callgsubr
          797 167 7 callgsubr
          -505 627 hintmask 10100000
          -104 callsubr
          hintmask 01010000
          335 697 -103 callsubr
        </CharString>
        <CharString name="ecaron">
          -19 callgsubr
          769 409 7 callgsubr
          -475 691 hintmask 10100000
          -104 callsubr
          hintmask 01010000
          310 670 -84 callsubr
        </CharString>
        <CharString name="ecircumflex">
          -19 callgsubr
          780 434 7 callgsubr
          -624 711 hintmask 10100000
          -104 callsubr
          hintmask 01010000
          114 689 -101 callgsubr
          endchar
        </CharString>
        <CharString name="edieresis">
          -19 callgsubr
          846 297 7 callgsubr
          -301 153 hintmask 10100000
          -104 callsubr
          hintmask 01010000
          605 747 -102 callsubr
        </CharString>
        <CharString name="edotaccent">
          -19 callgsubr
          846 297 7 callgsubr
          -375 307 hintmask 10100000
          -104 callsubr
          hintmask 01010000
          378 747 rmoveto
          -85 callsubr
        </CharString>
        <CharString name="egrave">
          -19 callgsubr
          757 486 7 callgsubr
          -438 287 hintmask 10100000
          -104 callsubr
          hintmask 01010000
          410 657 -85 callgsubr
        </CharString>
        <CharString name="eight">
          18 -1 callsubr
          hstemhm
          304 371 -163 395 -346 74 hintmask 10010000
          98 282 rmoveto
          -106 71 -186 261 212 204 144 228 120 -51 106 -61 101 vhcurveto
          3 2 rlineto
          230 108 161 166 243 vvcurveto
          191 -123 159 -241 -2 vhcurveto
          -244 -2 -202 -202 -273 vvcurveto
          -165 65 -125 75 -107 vhcurveto
          -117 -42 -243 -133 -225 vvcurveto
          563 521 rmoveto
          hintmask 10100000
          -77 120 -72 120 139 vvcurveto
          140 99 97 98 8 vhcurveto
          105 10 93 -67 -188 vvcurveto
          -186 -100 -116 -146 -77 vhcurveto
          hintmask 11000000
          -357 -501 rmoveto
          164 121 76 110 37 vhcurveto
          75 -98 65 -89 -102 vvcurveto
          -108 -97 -80 -88 -127 -59 96 104 vhcurveto
          endchar
        </CharString>
        <CharString name="ellipsis">
          603 -10 307 hstem
          376 226 327 226 vstem
          1155 143 rmoveto
          4 callsubr
          -64 callsubr
          vhcurveto
          -553 hmoveto
          4 callsubr
          -64 callsubr
          vhcurveto
          -553 hmoveto
          4 callsubr
          -64 callsubr
          vhcurveto
          endchar
        </CharString>
        <CharString name="emacron">
          -19 callgsubr
          819 185 7 callgsubr
          -609 718 hintmask 10100000
          -104 callsubr
          hintmask 01010000
          21 734 -88 callgsubr
        </CharString>
        <CharString name="emdash">
          1129 540 180 hstem
          186 1867 vstem
          243 540 rmoveto
          1693 hlineto
          -20 callgsubr
          -1713 -12 callgsubr
        </CharString>
        <CharString name="endash">
          484 540 180 hstem
          178 1220 vstem
          235 540 rmoveto
          1046 hlineto
          -20 callgsubr
          -1066 -12 callgsubr
        </CharString>
        <CharString name="eng">
          93 -560 1595 hstemhm
          2 1067 -562 341 hintmask 00000000
          hintmask 11000000
          -59 callgsubr
          225 287 64 hhcurveto
          38 17 -18 -41 -244 -361 -830 -268 -171 hvcurveto
          -10 -6 -34 -10 -22 vvcurveto
          -32 32 -32 45 99 119 99 137 111 vhcurveto
          285 352 203 641 186 vvcurveto
          107 -83 73 -109 -44 -50 -22 -33 -48 vhcurveto
          -115 -77 -179 -257 -51 -72 rrcurveto
          hintmask 10100000
          -15 -22 132 247 117 vvcurveto
          60 -52 -70 callsubr
          hintmask 11000000
          -47 callsubr
          endchar
        </CharString>
        <CharString name="eogonek">
          -90 -5 callgsubr
          35 226 7 callgsubr
          -699 512 hintmask 11100000
          77 361 rmoveto
          -260 -10 160 -111 179 hhcurveto
          18 19 1 1 19 hvcurveto
          hintmask 11010000
          -121 -93 -111 -138 -128 vvcurveto
          -79 callsubr
          26 24 43 31 34 27 34 17 31 21 26 27 -47 callgsubr
          -88 -88 -123 -36 -87 hhcurveto
          -97 -40 95 97 4 hvcurveto
          13 2 12 2 9 vhcurveto
          hintmask 11100000
          321 5 301 153 2 257 rrcurveto
          -52 callsubr
          -303 -290 -371 -303 -12 hvcurveto
          249 103 -24 callgsubr
        </CharString>
        <CharString name="equal">
          209 632 255 hstem
          148 1034 vstem
          237 887 -63 callsubr
          -20 -400 -63 callsubr
          endchar
        </CharString>
        <CharString name="eth">
          19 -10 140 775 130 653 -20 hstem
          77 220 505 85 16 181 vstem
          77 315 rmoveto
          -220 118 -105 141 463 285 670 465 67 -8 64 -13 61 vhcurveto
          12 2 12 3 12 3 rrcurveto
          111 22 72 -14 39 vvcurveto
          68 -70 49 -59 -38 -48 -8 -14 -50 vhcurveto
          133 -54 -75 88 -50 hhcurveto
          -48 -18 -16 -24 -24 34 -32 19 -37 hvcurveto
          25 -43 18 -42 13 -51 -115 -50 -109 -73 -47 -79 -25 -42 19 -39 58 30 79 41 79 35 81 28 rrcurveto
          1 -30 1 -34 -37 vvcurveto
          -76 -11 -89 -23 -85 vhcurveto
          64 -30 -64 52 -95 hhcurveto
          -311 -292 -411 -309 hvcurveto
          220 -33 rmoveto
          278 201 345 176 82 43 -60 -100 3 vhcurveto
          -263 -86 -185 -352 -138 hhcurveto
          -63 -33 63 89 hvcurveto
          endchar
        </CharString>
        <CharString name="exclam">
          -201 297 89 1189 -21 hstem
          162 774 vstem
          377 386 rmoveto
          47 12 63 97 36 hvcurveto
          205 549 180 266 63 88 77 109 -217 24 -77 -62 -136 -108 -170 -394 -57 -356 rrcurveto
          -163 -26 18 -113 45 hhcurveto
          -215 -243 rmoveto
          4 callsubr
          -64 callsubr
          vhcurveto
          endchar
        </CharString>
        <CharString name="exclamdown">
          -201 -463 1643 hstem
          56 728 vstem
          633 873 rmoveto
          66 85 34 120 75 -64 78 -90 hvcurveto
          -5 -6 -1 -5 hhcurveto
          17 callgsubr
          vhcurveto
          -577 -1125 rmoveto
          -90 66 -121 100 27 20 16 42 4 vhcurveto
          10 109 32 319 195 551 rrcurveto
          24 68 23 48 33 vvcurveto
          19 -12 22 -23 -41 -74 -72 -121 -72 vhcurveto
          -163 -274 -116 -354 -195 vvcurveto
          endchar
        </CharString>
        <CharString name="f">
          -250 -281 1967 hstem
          -41 1141 vstem
          -70 callgsubr
          endchar
        </CharString>
        <CharString name="ff">
          529 949 249 hstem
          -41 1921 vstem
          -28 -174 rmoveto
          -43 callgsubr
          42 34 51 26 vhcurveto
          128 247 63 275 118 414 rrcurveto
          20 192 196 8 190 hhcurveto
          -130 -420 -53 -241 -140 -281 rrcurveto
          -43 callgsubr
          42 34 51 26 vhcurveto
          131 252 62 281 123 429 101 -3 97 -4 94 -5 40 -3 20 23 3 32 8 80 -103 49 -84 8 -28 2 -42 2 -52 1 rrcurveto
          330 97 69 303 128 -56 callgsubr
          -332 -64 -408 -331 -101 hvcurveto
          -178 -4 -216 -13 -192 -24 rrcurveto
          1 0 1 1 2 vhcurveto
          345 103 69 326 133 -56 callgsubr
          -344 -57 -439 -337 -108 hvcurveto
          -5 -14 -4 -13 -4 -14 -126 -27 -96 -36 -35 -47 -22 -29 63 -55 41 13 41 8 42 8 42 7 -117 -385 -55 -232 -133 -268 rrcurveto
          endchar
        </CharString>
        <CharString name="fi">
          221 1035 72 hstem
          -46 1377 vstem
          -33 -174 rmoveto
          -43 callgsubr
          49 48 37 19 vhcurveto
          132 259 99 400 109 353 rrcurveto
          28 121 136 22 126 hhcurveto
          46 28 -12 -30 hvcurveto
          -140 -214 -345 -172 vvcurveto
          -132 91 -45 84 105 57 64 -33 callsubr
          11 20 7 22 18 vvcurveto
          20 -8 14 -18 vhcurveto
          -26 -5 -22 -66 hhcurveto
          -28 -16 9 35 hvcurveto
          160 235 381 208 vvcurveto
          49 -49 28 -98 -128 -187 -16 -31 -176 vhcurveto
          336 104 139 257 209 hhcurveto
          70 38 -43 -89 -50 -8 -46 -35 -50 hvcurveto
          -32 -52 -28 1 -34 vvcurveto
          -42 43 -69 87 91 80 147 120 135 -72 177 -251 -354 -181 -340 -410 -129 vhcurveto
          -137 -41 -104 -52 -21 -64 -13 -32 54 -52 41 13 18 7 45 16 61 20 -105 -336 -78 -357 -138 -232 rrcurveto
          endchar
        </CharString>
        <CharString name="five">
          51 467 230 859 -21 41 -21 hstemhm
          69 1171 hintmask 10110000
          69 263 rmoveto
          -140 109 -133 200 356 273 387 317 247 -142 92 -174 -70 -68 -22 -39 -69 vhcurveto
          83 143 73 151 22 114 rrcurveto
          -51 121 145 -36 86 hhcurveto
          106 40 24 61 42 hvcurveto
          23 34 15 42 33 vvcurveto
          39 -10 28 -20 1 vhcurveto
          2 -60 -35 -70 -183 hhcurveto
          hintmask 11010000
          -166 -117 48 -57 hhcurveto
          -61 -30 -75 -55 -15 hvcurveto
          -65 -236 -180 -297 -5 -65 -5 -59 83 -82 52 43 rrcurveto
          65 67 90 105 96 hhcurveto
          76 82 -38 -147 -232 -185 -353 -209 -81 -38 47 63 87 33 35 39 66 hvcurveto
          31 18 -39 29 -67 hhcurveto
          -101 -78 -100 -104 hvcurveto
          endchar
        </CharString>
        <CharString name="fl">
          250 -281 1967 hstem
          -52 1405 vstem
          -39 -174 rmoveto
          -43 callgsubr
          50 47 38 18 vhcurveto
          132 239 97 370 96 338 rrcurveto
          5 57 57 3 57 hhcurveto
          43 41 -3 -2 36 hvcurveto
          40 -3 20 23 3 32 rrcurveto
          80 8 -103 57 -84 hhcurveto
          -38 -42 -5 -7 -44 hvcurveto
          361 110 152 289 207 hhcurveto
          84 53 -51 -119 -10 hvcurveto
          -33 -333 -317 -647 -227 vvcurveto
          -151 91 -63 -60 callgsubr
          hvcurveto
          166 344 762 288 vvcurveto
          197 -184 54 -184 -368 -160 -373 -433 -132 vhcurveto
          -79 -22 -119 -49 -20 -50 -13 -32 54 -52 41 13 13 5 41 14 33 9 -94 -327 -88 -338 -133 -225 rrcurveto
          endchar
        </CharString>
        <CharString name="florin">
          -101 -543 2230 hstem
          -387 1585 vstem
          -232 -207 rmoveto
          -62 -93 -60 -104 -69 100 -103 198 370 107 672 605 165 hvcurveto
          7 54 55 4 56 hhcurveto
          43 41 -2 -3 36 hvcurveto
          40 -2 20 22 3 32 rrcurveto
          92 8 -103 65 -84 hhcurveto
          -35 -37 -4 -5 -39 hvcurveto
          275 82 124 340 177 hhcurveto
          39 40 -34 -58 -10 hvcurveto
          -11 -61 -50 -74 -65 -58 -44 -39 -19 -23 -2 -16 rrcurveto
          -27 -2 43 -81 85 hhcurveto
          90 98 152 125 11 hvcurveto
          120 11 -50 206 -209 hhcurveto
          -269 -183 -447 -351 -115 hvcurveto
          -79 -23 -124 -55 -20 -54 -13 -36 54 -70 41 15 12 4 36 13 32 9 rrcurveto
          -338 -90 -141 -772 -200 hhcurveto
          -72 -10 91 79 32 -28 9 -12 hvcurveto
          endchar
        </CharString>
        <CharString name="four">
          28 608 21 948 -21 hstem
          117 951 vstem
          460 -9 rmoveto
          55 71 74 137 84 hvcurveto
          58 99 58 105 53 100 65 2 63 -1 58 -8 rrcurveto
          -14 98 -91 153 -65 hhcurveto
          -15 -22 -1 -2 -26 hvcurveto
          79 163 55 141 77 vvcurveto
          58 -88 72 -88 -23 -4 -59 -112 -31 vhcurveto
          -10 -57 -50 -142 -65 -160 -158 -11 -170 -7 -55 31 rrcurveto
          137 198 236 381 198 vvcurveto
          144 -209 46 -7 -76 vhcurveto
          -37 -406 -295 -377 -4 -78 -3 -59 54 -92 59 -17 95 -28 148 14 157 14 -57 -131 -61 -133 -54 -101 rrcurveto
          -56 -33 -30 -79 68 hhcurveto
          endchar
        </CharString>
        <CharString name="fraction">
          133 -12 1664 hstem
          58 1089 vstem
          116 -12 rmoveto
          62 49 30 84 49 hvcurveto
          177 305 507 870 112 173 rrcurveto
          120 78 30 82 -81 hhcurveto
          -69 -56 -43 -70 -44 hvcurveto
          -148 -238 -582 -1009 -86 -148 rrcurveto
          -68 -40 -65 -88 107 hhcurveto
          endchar
        </CharString>
        <CharString name="g">
          -7 callgsubr
          hstem
          76 1019 vstem
          -96 callsubr
          endchar
        </CharString>
        <CharString name="gbreve">
          -7 callgsubr
          126 167 hstemhm
          76 1019 -572 627 hintmask 10100000
          -96 callsubr
          hintmask 01010000
          458 889 -103 callsubr
        </CharString>
        <CharString name="gcircumflex">
          -7 callgsubr
          -4 callsubr
          76 1019 -691 711 hintmask 10100000
          -96 callsubr
          hintmask 01010000
          237 881 -101 callgsubr
          endchar
        </CharString>
        <CharString name="gcommaaccent">
          -7 callgsubr
          172 435 hstemhm
          76 1019 -423 329 hintmask 10100000
          -96 callsubr
          hintmask 01010000
          632 1023 rmoveto
          10 40 -65 10 63 vvcurveto
          65 58 59 44 45 vhcurveto
          25 28 0 40 -39 hhcurveto
          -100 -198 -160 -159 -68 50 -48 68 63 67 40 48 14 hvcurveto
          endchar
        </CharString>
        <CharString name="gdotaccent">
          -7 callgsubr
          -10 callgsubr
          76 1019 -442 307 hintmask 10100000
          -96 callsubr
          hintmask 01010000
          501 939 rmoveto
          -85 callsubr
        </CharString>
        <CharString name="germandbls">
          10 -280 1967 hstemhm
          -103 1205 -557 258 hintmask 00000000
          hintmask 11000000
          -90 -173 rmoveto
          -43 callgsubr
          50 47 38 18 vhcurveto
          121 256 87 405 87 356 rrcurveto
          401 98 110 339 192 hhcurveto
          hintmask 10100000
          67 30 -48 -71 hvcurveto
          -320 -362 -139 -292 -219 247 -165 -99 vvcurveto
          -70 -57 -24 -51 -104 -46 87 74 32 -28 9 -12 -54 -81 -44 -100 -73 74 -109 188 172 186 114 162 vhcurveto
          187 -237 143 153 235 349 30 376 vvcurveto
          117 -53 179 -265 -324 -145 -428 -471 -119 vhcurveto
          hintmask 11000000
          -88 -348 -75 -372 -123 -241 rrcurveto
          endchar
        </CharString>
        <CharString name="grave">
          -607 1121 486 hstem
          75 287 vstem
          320 1121 -85 callgsubr
        </CharString>
        <CharString name="grave.cap">
          -543 1633 366 hstem
          146 367 vstem
          471 1633 -84 callgsubr
        </CharString>
        <CharString name="greater">
          186 88 1092 hstem
          149 1027 vstem
          228 98 -31 callsubr
          endchar
        </CharString>
        <CharString name="greaterequal">
          209 145 133 hstem
          118 1038 vstem
          208 288 -31 callsubr
          -21 -288 -63 callsubr
          endchar
        </CharString>
        <CharString name="guillemotleft">
          300 246 810 hstem
          246 27 483 27 vstem
          695 571 rmoveto
          278 -292 72 -76 159 70 -69 77 rlinecurve
          -267 298 -39 callsubr
          -232 -292 rmoveto
          72 -76 159 70 -69 77 -267 298 rcurveline
          -39 callsubr
          endchar
        </CharString>
        <CharString name="guillemotright">
          307 235 810 hstem
          595 28 482 28 vstem
          686 247 rmoveto
          -50 callgsubr
          -510 hmoveto
          -50 callgsubr
          endchar
        </CharString>
        <CharString name="guilsinglleft">
          -210 246 810 hstem
          246 27 vstem
          463 279 rmoveto
          72 -76 159 70 -69 77 -267 298 rcurveline
          -39 callsubr
          endchar
        </CharString>
        <CharString name="guilsinglright">
          -203 235 810 hstem
          595 28 vstem
          176 247 rmoveto
          -50 callgsubr
          endchar
        </CharString>
        <CharString name="h">
          81 -16 callsubr
          hstem
          -1 1057 vstem
          -57 callsubr
          46 98 253 669 8 224 rrcurveto
          81 3 -83 40 -52 -28 callgsubr
          -48 -341 -157 -530 -180 -419 rrcurveto
          -47 callsubr
          endchar
        </CharString>
        <CharString name="hbar">
          81 -16 callsubr
          -393 155 hstemhm
          -1 1057 -824 718 hintmask 10100000
          -57 callsubr
          33 70 140 367 79 284 rrcurveto
          hintmask 01010000
          -1 72 63 -1 37 16 callsubr
          -217 -4 10 47 6 42 1 32 rlinecurve
          hintmask 10010000
          81 3 -83 40 -52 -28 callgsubr
          -7 -51 -10 -54 -11 -58 -84 -1 rcurveline
          -4 callgsubr
          41 -3 57 -3 64 -2 -73 -309 -120 -370 -133 -309 rrcurveto
          hintmask 01100000
          -47 callsubr
          endchar
        </CharString>
        <CharString name="hcircumflex">
          81 -10 1532 26 434 hstemhm
          -2 1057 -852 711 hintmask 10100000
          -2 0 callsubr
          58 -55 76 63 3 84 293 155 vhcurveto
          192 144 228 287 54 hhcurveto
          28 27 -50 callsubr
          46 98 219 505 8 224 rrcurveto
          81 3 -83 40 -52 -28 callgsubr
          -48 -341 -123 -366 -180 -419 rrcurveto
          -47 callsubr
          hintmask 01010000
          340 1463 -101 callgsubr
          endchar
        </CharString>
        <CharString name="hungarumlaut">
          -253 1122 487 hstem
          27 778 vstem
          433 1122 -76 callgsubr
        </CharString>
        <CharString name="hungarumlaut.cap">
          -281 1611 384 hstem
          108 703 vstem
          514 1611 -74 callgsubr
        </CharString>
        <CharString name="hyphen">
          -130 540 180 hstem
          171 616 vstem
          228 540 rmoveto
          442 hlineto
          -20 callgsubr
          -462 -12 callgsubr
        </CharString>
        <CharString name="i">
          -470 -10 1520 hstem
          56 605 vstem
          504 -38 callgsubr
          -448 -1047 -95 callgsubr
          endchar
        </CharString>
        <CharString name="iacute">
          -470 -22 callsubr
          56 463 -253 447 hintmask 10100000
          56 167 -95 callgsubr
          hintmask 01010000
          256 955 -100 callsubr
        </CharString>
        <CharString name="ibreve">
          -470 -33 callgsubr
          126 167 hstemhm
          56 463 -300 627 hintmask 10100000
          56 167 -95 callgsubr
          hintmask 01010000
          400 994 -103 callsubr
        </CharString>
        <CharString name="icircumflex">
          -470 1 callsubr
          56 463 -419 711 hintmask 10100000
          56 167 -95 callgsubr
          hintmask 01010000
          179 986 -101 callgsubr
          endchar
        </CharString>
        <CharString name="idieresis">
          -470 2 callsubr
          56 463 -96 153 hintmask 10100000
          56 167 -95 callgsubr
          hintmask 01010000
          670 1044 -102 callsubr
        </CharString>
        <CharString name="igrave">
          -470 -33 callgsubr
          86 486 hstemhm
          56 463 -233 287 hintmask 10100000
          56 167 -95 callgsubr
          hintmask 01010000
          475 954 -85 callgsubr
        </CharString>
        <CharString name="ij">
          106 -557 2067 -1520 1520 hstemhm
          56 605 -429 960 hintmask 01100000
          504 -38 callgsubr
          -448 -1047 -95 callgsubr
          hintmask 10010000
          979 1047 -49 callsubr
        </CharString>
        <CharString name="imacron">
          -470 -33 callgsubr
          148 185 hstemhm
          56 463 -425 718 hintmask 10100000
          56 167 -95 callgsubr
          hintmask 01010000
          65 1031 -88 callgsubr
        </CharString>
        <CharString name="infinity">
          339 597 296 -288 296 hstemhm
          110 1215 hintmask 01100000
          402 440 rmoveto
          145 100 76 91 85 hvcurveto
          -84 61 98 -83 132 hhcurveto
          153 149 135 199 146 -98 138 -192 -146 -101 -77 -91 -85 hvcurveto
          84 -61 -98 84 -132 hhcurveto
          -153 -149 -135 -199 -146 100 -138 192 hvcurveto
          409 258 rmoveto
          105 87 79 98 112 hhcurveto
          52 38 -35 -64 -96 -91 -101 -103 -65 -67 41 52 -42 hvcurveto
          hintmask 10100000
          -465 -101 rmoveto
          -52 -38 35 64 96 91 101 103 65 67 -42 -53 42 hvcurveto
          -105 -87 -79 -96 -112 hhcurveto
          endchar
        </CharString>
        <CharString name="integral">
          139 -399 2326 hstemhm
          -35 1173 -1002 1163 hintmask 00000000
          71 -32 rmoveto
          44 39 19 23 2 16 rrcurveto
          hintmask 10100000
          27 2 -43 81 -85 hhcurveto
          -81 -89 -131 -106 -9 hvcurveto
          -116 -11 48 -200 201 hhcurveto
          364 187 763 448 134 hvcurveto
          328 97 158 652 241 hhcurveto
          32 25 -28 -51 -8 hvcurveto
          -8 -52 -38 -62 -50 -49 -44 -39 -19 -23 -2 -16 rrcurveto
          hintmask 11000000
          -28 -2 43 -80 85 hhcurveto
          76 85 135 112 8 hvcurveto
          116 11 -48 200 -201 hhcurveto
          -364 -186 -717 -429 -130 hvcurveto
          -342 -102 -158 -703 -241 hhcurveto
          -32 -25 28 51 8 hvcurveto
          hintmask 10100000
          9 49 42 58 55 46 rrcurveto
          endchar
        </CharString>
        <CharString name="iogonek">
          -446 -5 callgsubr
          -113 1520 hstemhm
          -51 487 -360 605 hintmask 01010000
          524 -38 callgsubr
          -448 -1047 rmoveto
          -100 52 -50 62 -18 vhcurveto
          hintmask 10100000
          -124 -93 -117 -142 -131 vvcurveto
          -79 callsubr
          22 20 24 19 20 17 17 12 14 14 11 13 rrcurveto
          13 13 9 11 6 vvcurveto
          42 23 1 51 -33 -26 -5 -22 -66 hhcurveto
          -28 -16 9 35 hvcurveto
          160 253 381 208 vvcurveto
          49 -49 28 -98 -46 callgsubr
          hintmask 10010000
          -144 -222 -355 -178 vvcurveto
          endchar
        </CharString>
        <CharString name="itilde">
          -470 -12 callsubr
          56 463 -405 -2 callsubr
          56 167 -95 callgsubr
          hintmask 00000000
          143 1091 -91 callsubr
        </CharString>
        <CharString name="j">
          -480 -557 2067 hstem
          -354 960 vstem
          449 1214 -49 callsubr
        </CharString>
        <CharString name="jcircumflex">
          -477 -557 1592 -1571 -21 1591 -20 130 434 hstemhm
          -348 851 -444 711 -509 242 hintmask 01100010
          hintmask 00010100
          194 1153 -101 callgsubr
          hintmask 10001000
          -515 -1613 -39 callgsubr
        </CharString>
        <CharString name="k">
          -37 -16 callsubr
          hstem
          -1 1034 vstem
          -65 callgsubr
          endchar
        </CharString>
        <CharString name="kcommaaccent">
          -37 -22 callgsubr
          84 1696 hstemhm
          -1 1034 -919 329 hintmask 01100000
          -65 callgsubr
          hintmask 10010000
          182 -276 -93 callsubr
        </CharString>
        <CharString name="kgreenlandic">
          -37 -9 175 869 -20 hstem
          275 229 302 237 vstem
          -1 0 callsubr
          58 -55 76 79 42 171 260 143 vhcurveto
          -141 45 90 -289 212 hhcurveto
          109 90 92 39 16 hvcurveto
          5 11 7 21 18 vvcurveto
          16 -6 14 -19 vhcurveto
          -26 -31 -36 -60 hhcurveto
          -85 -128 144 181 -44 hvcurveto
          335 121 136 126 161 vvcurveto
          94 -76 42 -86 -74 -42 -28 -31 -10 vhcurveto
          -12 -42 63 12 -60 vvcurveto
          -128 -236 -138 -172 -69 vhcurveto
          15 45 91 219 101 vvcurveto
          60 -52 -70 callsubr
          -47 callsubr
          397 450 rmoveto
          1 hlineto
          -1 -2 0 1 1 vvcurveto
          endchar
        </CharString>
        <CharString name="l">
          -484 -16 callsubr
          hstem
          65 592 vstem
          -75 callsubr
          endchar
        </CharString>
        <CharString name="lacute">
          -484 -10 1532 105 370 hstemhm
          61 568 -99 389 hintmask 10100000
          576 1627 -100 callgsubr
          -515 -1423 rmoveto
          -54 callgsubr
          158 350 800 8 224 hvcurveto
          81 3 -77 40 -48 hhcurveto
          -42 -23 -24 -60 -7 hvcurveto
          hintmask 01010000
          -49 -337 -325 -733 -164 vvcurveto
          endchar
        </CharString>
        <CharString name="lcaron">
          -98 -16 callsubr
          -524 524 hstemhm
          65 592 131 339 hintmask 10100000
          -75 callsubr
          hintmask 01010000
          748 959 -72 callsubr
        </CharString>
        <CharString name="lcommaaccent">
          -484 -22 callgsubr
          84 1696 hstemhm
          -14 329 -250 592 hintmask 01010000
          -75 callsubr
          hintmask 10100000
          -12 -386 -93 callsubr
        </CharString>
        <CharString name="ldot">
          -53 -16 callsubr
          -1156 307 hstemhm
          65 592 0 327 hintmask 10100000
          -75 callsubr
          hintmask 01010000
          762 327 rmoveto
          -64 callsubr
          4 callsubr
          endchar
        </CharString>
        <CharString name="less">
          249 85 1092 hstem
          135 1027 vstem
          216 544 -30 callgsubr
          endchar
        </CharString>
        <CharString name="lessequal">
          386 145 130 hstem
          110 1042 vstem
          191 734 -30 callgsubr
          16 -734 -63 callsubr
          endchar
        </CharString>
        <CharString name="logicalnot">
          439 130 664 hstem
          158 1155 vstem
          227 639 rmoveto
          909 hlineto
          -28 -453 1 -104 185 54 -1 103 rlinecurve
          20 466 rlineto
          19 -4 15 -7 11 vhcurveto
          -3 24 -17 19 -36 1 rrcurveto
          -986 hlineto
          4 -86 -77 -159 130 hhcurveto
          endchar
        </CharString>
        <CharString name="lozenge">
          133 1556 -21 hstem
          91 992 vstem
          527 10 rmoveto
          -11 7 21 -9 32 hhcurveto
          32 21 9 11 7 hvcurveto
          419 703 26 44 -6 43 -20 33 rlinecurve
          -419 702 9 callgsubr
          -419 -702 -18 -31 -10 -43 28 -46 rlinecurve
          480 -500 rmoveto
          -336 581 324 530 345 -577 rlineto
          endchar
        </CharString>
        <CharString name="lslash">
          -484 -10 1704 hstem
          63 874 vstem
          63 204 rmoveto
          -152 91 -62 84 105 72 72 -33 callsubr
          13 23 9 29 20 vvcurveto
          17 -6 11 -15 vhcurveto
          -26 -29 -36 -66 hhcurveto
          -28 -16 19 35 142 302 784 74 335 hvcurveto
          208 12 80 98 45 vvcurveto
          12 -13 5 -22 vhcurveto
          -45 -83 -17 -94 hhcurveto
          -77 -84 11 40 -76 hvcurveto
          5 -10 -12 3 -13 hhcurveto
          -39 -57 -42 -57 -56 43 -32 84 -16 hvcurveto
          -89 -391 -287 -748 -148 vvcurveto
          endchar
        </CharString>
        <CharString name="m">
          613 -10 175 681 189 hstemhm
          278 234 355 167 121 210 3 221 hintmask 11111000
          -40 callgsubr
          hintmask 11110100
          162 108 223 317 79 hhcurveto
          22 19 -43 callsubr
          hintmask 11111000
          -32 callsubr
          hintmask 11110100
          -52 callgsubr
          hintmask 11111000
          -17 callsubr
          endchar
        </CharString>
        <CharString name="macron">
          -253 1183 185 hstem
          138 718 vstem
          165 1198 -88 callgsubr
        </CharString>
        <CharString name="macron.cap">
          -205 1695 185 hstem
          258 718 vstem
          285 1710 -88 callgsubr
        </CharString>
        <CharString name="minus">
          209 680 145 hstem
          128 1014 vstem
          197 680 -63 callsubr
          endchar
        </CharString>
        <CharString name="mu">
          210 -560 1595 hstem
          337 402 vstem
          196 48 rmoveto
          -37 31 47 -21 59 hhcurveto
          159 153 211 151 113 hvcurveto
          -12 -46 -7 -52 -49 vvcurveto
          -152 91 -63 84 -25 callgsubr
          vhcurveto
          -34 callgsubr
          -29 -36 -66 hhcurveto
          -58 9 88 50 3 hvcurveto
          10 139 198 399 47 95 rrcurveto
          54 27 -75 44 -69 hhcurveto
          -28 -28 -20 -21 -16 hvcurveto
          -29 -37 -165 -301 -51 -88 rrcurveto
          -181 -105 -161 -218 -100 hhcurveto
          -42 -23 28 41 192 223 417 49 94 hvcurveto
          39 20 -74 55 -70 hhcurveto
          -101 -405 -765 -709 -50 hvcurveto
          -81 -6 68 -40 40 hhcurveto
          48 28 24 60 6 hvcurveto
          23 227 27 166 33 131 rrcurveto
          endchar
        </CharString>
        <CharString name="multiply">
          118 300 814 hstem
          202 862 vstem
          230 405 rmoveto
          -92 -92 156 -47 58 63 273 273 rcurveline
          258 -273 58 -63 156 47 -92 92 rlinecurve
          -280 297 318 317 73 74 -137 61 -73 -73 rlinecurve
          -277 -277 -260 277 -72 73 -137 -60 72 -75 rlinecurve
          297 -315 rlineto
          endchar
        </CharString>
        <CharString name="n">
          93 -33 callgsubr
          hstem
          2 1067 vstem
          -99 callgsubr
          endchar
        </CharString>
        <CharString name="nacute">
          93 -22 callsubr
          2 1067 -442 447 hintmask 10100000
          -99 callgsubr
          hintmask 01010000
          671 1028 -100 callsubr
        </CharString>
        <CharString name="nbspace">
          -455 endchar
        </CharString>
        <CharString name="ncaron">
          93 -33 callgsubr
          98 409 hstemhm
          2 1067 -529 691 hintmask 10100000
          -99 callgsubr
          hintmask 01010000
          720 1040 -84 callsubr
        </CharString>
        <CharString name="ncommaaccent">
          93 -22 callgsubr
          84 1045 hstemhm
          2 1067 -927 329 hintmask 01100000
          -99 callgsubr
          hintmask 10010000
          207 -276 -93 callsubr
        </CharString>
        <CharString name="nine">
          80 89 457 1030 -21 hstem
          443 479 vstem
          102 184 rmoveto
          -105 75 -102 175 393 347 510 665 39 vhcurveto
          197 12 -84 206 -253 hhcurveto
          -280 -303 -283 -398 -246 147 -82 132 120 123 54 81 86 hvcurveto
          -358 -98 -180 -234 -182 hhcurveto
          -32 -40 18 61 3 hvcurveto
          2 45 24 44 22 31 rrcurveto
          28 20 -34 46 -67 hhcurveto
          -94 -73 -84 -94 hvcurveto
          457 502 rmoveto
          -84 -32 88 94 276 176 271 171 84 48 -47 -118 -297 -178 -267 -185 hvcurveto
          endchar
        </CharString>
        <CharString name="notequal">
          209 106 1312 -786 255 hstemhm
          173 947 hintmask 10100000
          224 106 rmoveto
          62 51 36 78 57 hvcurveto
          42 58 63 97 70 112 rrcurveto
          484 hlineto
          hintmask 01100000
          103 -1 54 145 -104 1 rrcurveto
          -448 hlineto
          52 85 53 88 49 82 rrcurveto
          261 hlineto
          103 -1 54 145 -104 1 rrcurveto
          -226 hlineto
          51 83 41 66 24 35 rrcurveto
          hintmask 10100000
          146 100 42 56 -80 hhcurveto
          -69 -70 -40 -73 -50 hvcurveto
          -35 -51 -64 -102 -75 -120 rrcurveto
          -445 hlineto
          hintmask 01100000
          4 -86 -77 -149 130 hhcurveto
          390 hlineto
          -155 -255 rlineto
          -222 hlineto
          4 -86 -77 -149 130 hhcurveto
          168 hlineto
          -68 -113 -53 -86 -17 -26 rrcurveto
          hintmask 10100000
          -64 -42 -89 -92 108 hhcurveto
          endchar
        </CharString>
        <CharString name="ntilde">
          93 -12 callsubr
          2 1067 -664 -2 callsubr
          -99 callgsubr
          hintmask 00000000
          488 1164 -91 callsubr
        </CharString>
        <CharString name="numbersign">
          430 594 225 757 -21 hstem
          108 1352 vstem
          346 -10 rmoveto
          14 callgsubr
          243 16 callgsubr
          14 callgsubr
          205 hlineto
          103 -1 94 175 -104 1 rrcurveto
          -236 hlineto
          80 225 rlineto
          193 hlineto
          103 -1 94 175 -104 1 rrcurveto
          -224 -17 callgsubr
          -223 -17 callgsubr
          -245 hlineto
          4 -86 -117 -179 130 hhcurveto
          262 hlineto
          -72 -225 rlineto
          -247 hlineto
          4 -86 -117 -179 130 hhcurveto
          264 16 callgsubr
          303 604 rmoveto
          80 225 rlineto
          229 hlineto
          -72 -225 rlineto
          endchar
        </CharString>
        <CharString name="o">
          -3 -33 callgsubr
          hstem
          73 907 vstem
          -101 callsubr
          endchar
        </CharString>
        <CharString name="oacute">
          -3 -22 callsubr
          73 907 -407 447 hintmask 10100000
          -101 callsubr
          hintmask 01010000
          328 871 -100 callsubr
        </CharString>
        <CharString name="obreve">
          -3 -33 callgsubr
          126 167 hstemhm
          73 907 -454 627 hintmask 10100000
          -101 callsubr
          hintmask 01010000
          472 910 -103 callsubr
        </CharString>
        <CharString name="ocircumflex">
          -3 1 callsubr
          73 907 -573 711 hintmask 10100000
          -101 callsubr
          hintmask 01010000
          251 902 -101 callgsubr
          endchar
        </CharString>
        <CharString name="odieresis">
          -3 2 callsubr
          73 907 -250 153 hintmask 10100000
          -101 callsubr
          hintmask 01010000
          742 960 -102 callsubr
        </CharString>
        <CharString name="oe">
          536 -33 callgsubr
          -897 226 hstemhm
          73 907 -277 852 hintmask 10100000
          73 316 rmoveto
          -226 3 133 -100 179 hhcurveto
          131 124 64 98 100 hvcurveto
          -112 57 111 -50 121 10 callsubr
          149 33 93 92 hvcurveto
          -47 callgsubr
          hintmask 01010000
          -88 -88 -123 -36 -87 hhcurveto
          -97 -40 95 97 4 hvcurveto
          13 2 12 2 9 vhcurveto
          321 5 301 153 2 257 rrcurveto
          hintmask 10100000
          -52 callsubr
          -129 -127 -68 -100 -104 hvcurveto
          116 -50 -106 52 13 callsubr
          -327 -280 -385 -334 5 hvcurveto
          218 -65 rmoveto
          289 -3 235 380 144 hhcurveto
          78 13 -67 -85 1 hvcurveto
          -257 3 -211 -406 -168 hhcurveto
          -67 -23 57 89 -2 hvcurveto
          661 213 -24 callgsubr
        </CharString>
        <CharString name="ogonek">
          -418 -5 callgsubr
          hstem
          88 512 vstem
          88 -367 rmoveto
          -79 callsubr
          49 55 127 85 -32 hhcurveto
          -38 hlineto
          -138 -331 -250 -220 hvcurveto
          endchar
        </CharString>
        <CharString name="ograve">
          -3 -33 callgsubr
          86 486 hstemhm
          73 907 -387 287 hintmask 10100000
          -101 callsubr
          hintmask 01010000
          547 870 -85 callgsubr
        </CharString>
        <CharString name="ohungarumlaut">
          -3 -22 callsubr
          73 907 -574 778 hintmask 10100000
          -101 callsubr
          hintmask 01010000
          521 871 -76 callgsubr
        </CharString>
        <CharString name="omacron">
          -3 -33 callgsubr
          148 185 hstemhm
          73 907 -558 718 hintmask 10100000
          -101 callsubr
          hintmask 01010000
          158 947 -88 callgsubr
        </CharString>
        <CharString name="one">
          -225 -9 1567 hstem
          142 694 vstem
          142 18 rmoveto
          -17 8 -10 23 65 111 145 146 74 vhcurveto
          211 416 195 512 7 218 rrcurveto
          59 2 -70 71 -78 hhcurveto
          -75 -150 -190 -62 -141 hvcurveto
          -51 -23 -19 -17 -25 vvcurveto
          -37 23 -40 60 56 126 31 84 81 vhcurveto
          -31 -158 -174 -513 -217 -488 rrcurveto
          -16 -36 -20 -40 -26 vvcurveto
          endchar
        </CharString>
        <CharString name="onehalf">
          968 -10 1662 -1487 436 486 -21 503 -21 hstemhm
          212 572 -376 1069 -22 253 hintmask 10000100
          466 -56 callsubr
          hintmask 01100010
          698 -3 -61 callsubr
          hintmask 00011000
          -883 488 -68 callgsubr
        </CharString>
        <CharString name="onequarter">
          968 -10 1662 -83 -21 hstemhm
          212 572 -376 1453 hintmask 10010000
          466 -56 callsubr
          652 478 rmoveto
          -2 -53 62 -89 67 -15 59 -17 93 5 100 9 -36 -81 -40 -76 -41 -56 rrcurveto
          -54 -40 17 0 callgsubr
          42 1 41 -1 37 -5 96 -12 -84 142 -68 7 rrcurveto
          47 108 29 95 52 vvcurveto
          44 -82 15 callsubr
          -95 -40 -105 -99 -7 -102 -4 -36 20 -10 -10 rcurveline
          11 callsubr
          -186 1 callgsubr
          hintmask 01100000
          -837 7 -68 callgsubr
        </CharString>
        <CharString name="onesuperior">
          -229 1569 -21 hstem
          252 572 vstem
          321 475 -68 callgsubr
        </CharString>
        <CharString name="ordfeminine">
          100 582 920 hstem
          424 316 vstem
          439 582 rmoveto
          154 105 152 105 51 hvcurveto
          -5 -34 -4 -33 -9 vvcurveto
          -135 74 -46 69 98 69 64 35 20 vhcurveto
          36 20 10 52 -29 -23 -19 -25 -58 hhcurveto
          -63 4 70 44 2 hvcurveto
          9 122 173 352 43 84 rrcurveto
          47 23 -70 39 -62 hhcurveto
          -25 -23 -19 -18 -15 hvcurveto
          -12 -12 -17 -25 -15 -24 rrcurveto
          50 -31 -52 48 -80 hhcurveto
          -231 -295 -303 -324 -12 hvcurveto
          -165 -5 84 -128 138 hhcurveto
          51 145 rmoveto
          -51 -15 40 66 245 203 309 134 58 27 -66 -43 3 hvcurveto
          -261 -71 -182 -290 -106 hhcurveto
          endchar
        </CharString>
        <CharString name="ordmasculine">
          -35 582 920 hstem
          215 809 vstem
          507 582 rmoveto
          280 242 337 292 -5 hvcurveto
          203 -2 -133 88 -149 hhcurveto
          -284 -246 -339 -294 5 hvcurveto
          -199 3 124 -88 165 hhcurveto
          -5 112 rmoveto
          -58 -24 55 85 -1 hvcurveto
          241 -3 198 315 119 hhcurveto
          68 15 -64 -82 2 hvcurveto
          -212 3 -179 -338 -140 hhcurveto
          endchar
        </CharString>
        <CharString name="oslash">
          -3 -179 1364 hstem
          73 1003 vstem
          100 -132 rmoveto
          1 -31 98 -47 28 58 26 49 23 44 39 55 rrcurveto
          -4 23 24 -2 26 hhcurveto
          322 275 383 332 -5 hvcurveto
          -2 98 -26 75 -43 53 54 64 52 58 42 40 11 callgsubr
          -24 -26 -25 -33 -25 -37 rrcurveto
          7 -28 -29 4 -29 hhcurveto
          -327 -280 -385 -334 5 hvcurveto
          1 -118 37 -84 61 -53 -49 -87 -21 -67 -2 -39 rrcurveto
          187 326 rmoveto
          -4 17 -2 19 21 vvcurveto
          289 -3 241 380 148 hhcurveto
          19 15 -3 -6 13 hvcurveto
          -178 -297 -62 -103 -133 -225 -54 -92 rlinecurve
          64 -85 rmoveto
          32 67 109 193 56 98 64 113 109 168 45 69 rrcurveto
          2 -15 1 -17 -17 vvcurveto
          -257 3 -217 -406 -172 hhcurveto
          -12 -10 1 3 -10 hvcurveto
          endchar
        </CharString>
        <CharString name="otilde">
          -3 -12 callsubr
          73 907 -559 -2 callsubr
          -101 callsubr
          hintmask 00000000
          215 1007 -91 callsubr
        </CharString>
        <CharString name="p">
          72 -560 1595 hstemhm
          -142 1193 -592 372 hintmask 11000000
          -32 callgsubr
          hintmask 10100000
          -53 callgsubr
          endchar
        </CharString>
        <CharString name="paragraph">
          458 -130 122 1506 167 hstem
          58 207 vstem
          58 87 rmoveto
          -115 76 -102 176 472 167 904 241 58 vhcurveto
          89 368 25 98 191 17 rrcurveto
          23 19 -3 -5 17 hvcurveto
          -35 -47 -17 -93 -13 -71 -35 -157 -214 -889 -185 -300 rrcurveto
          -55 -26 24 -14 37 hhcurveto
          58 77 63 148 75 hvcurveto
          179 389 217 683 64 336 rrcurveto
          9 hlineto
          89 -7 63 115 44 vvcurveto
          16 -9 10 -21 1 vhcurveto
          2 -105 -111 1 -136 hhcurveto
          -519 -451 -213 -364 -157 124 -153 186 -40 hvcurveto
          -335 -98 -88 -411 -181 hhcurveto
          -50 -23 46 43 12 hvcurveto
          31 113 72 15 34 42 rrcurveto
          40 32 -67 50 -63 hhcurveto
          -150 -99 -146 -108 hvcurveto
          1371 1321 rmoveto
          -2 20 rlineto
          1 -7 1 -6 -7 vvcurveto
          endchar
        </CharString>
        <CharString name="parenleft">
          -76 -504 2327 hstem
          224 1012 vstem
          224 271 rmoveto
          -402 218 -373 176 36 36 32 32 10 -5 10 -14 9 vhcurveto
          -113 76 -114 246 335 vvcurveto
          683 357 459 231 222 vhcurveto
          109 93 95 54 34 vvcurveto
          22 -23 10 -19 -55 -96 -37 -99 -127 vhcurveto
          -285 -223 -407 -527 -666 vvcurveto
          endchar
        </CharString>
        <CharString name="parenright">
          -76 -504 2327 hstem
          -203 1012 vstem
          1 -291 rmoveto
          -109 -93 -95 -54 -34 vvcurveto
          -22 23 -10 19 55 96 37 99 127 vhcurveto
          285 223 407 527 666 vvcurveto
          402 -218 373 -176 -36 -36 -32 -32 -10 5 -10 14 -9 vhcurveto
          113 -76 113 -246 -335 vvcurveto
          -683 -356 -459 -231 -222 vhcurveto
          endchar
        </CharString>
        <CharString name="partialdiff">
          133 -10 130 899 -20 26 130 380 123 hstemhm
          56 220 716 181 hintmask 11011100
          365 -10 rmoveto
          499 309 732 473 400 -221 63 -115 -154 -198 -103 -174 -73 67 -55 67 7 hvcurveto
          77 8 -30 44 26 78 rrcurveto
          97 32 64 48 66 hhcurveto
          72 66 -59 -197 -86 -13 -87 -24 -87 hvcurveto
          hintmask 10111100
          73 -38 -89 63 -139 hhcurveto
          -344 -289 -381 -399 hvcurveto
          hintmask 11011100
          -262 143 -123 166 vhcurveto
          -89 282 rmoveto
          hintmask 10111100
          330 241 423 216 108 44 -79 -101 vhcurveto
          -2 vlineto
          -13 -36 -12 -32 -2 -8 rrcurveto
          -275 -88 -216 -372 -172 hhcurveto
          hintmask 11011100
          -70 -36 63 89 hvcurveto
          651 696 rmoveto
          2 6 rlineto
          endchar
        </CharString>
        <CharString name="percent">
          739 -60 callsubr
          hstem
          154 1495 vstem
          279 -4 rmoveto
          62 48 37 77 60 hvcurveto
          221 253 682 824 129 169 rrcurveto
          140 107 21 62 -81 hhcurveto
          -69 -67 -42 -71 -53 hvcurveto
          -196 -230 -758 -946 -98 -117 rrcurveto
          -63 -44 -72 -93 108 hhcurveto
          140 804 rmoveto
          -15 callgsubr
          -13 callgsubr
          hvcurveto
          -3 110 rmoveto
          -53 -17 42 59 -10 callsubr
          hvcurveto
          538 -644 rmoveto
          -13 callgsubr
          -15 callgsubr
          vhcurveto
          192 -65 rmoveto
          -10 callsubr
          -53 -17 42 59 vhcurveto
          endchar
        </CharString>
        <CharString name="period">
          -503 -10 307 hstem
          49 327 vstem
          49 143 rmoveto
          4 callsubr
          -64 callsubr
          vhcurveto
          endchar
        </CharString>
        <CharString name="periodcentered">
          -332 530 307 hstem
          246 327 vstem
          416 531 rmoveto
          -64 callsubr
          4 callsubr
          endchar
        </CharString>
        <CharString name="perthousand">
          1369 -60 callsubr
          hstem
          1529 95 vstem
          314 -4 rmoveto
          62 50 36 78 58 hvcurveto
          186 249 530 832 116 165 rrcurveto
          144 101 32 58 -81 hhcurveto
          -69 -69 -41 -72 -51 hvcurveto
          -161 -226 -612 -951 -79 -116 rrcurveto
          -63 -43 -78 -93 108 hhcurveto
          105 844 rmoveto
          -38 callsubr
          -13 callgsubr
          hvcurveto
          -3 110 rmoveto
          -53 -17 42 59 -27 callgsubr
          hvcurveto
          1208 -684 rmoveto
          -13 callgsubr
          -38 callsubr
          vhcurveto
          -750 hmoveto
          -13 callgsubr
          -38 callsubr
          vhcurveto
          942 -65 rmoveto
          -27 callgsubr
          -53 -17 42 59 vhcurveto
          -750 hmoveto
          -27 callgsubr
          -53 -17 42 59 vhcurveto
          endchar
        </CharString>
        <CharString name="pi">
          255 -10 1106 hstem
          -29 1359 vstem
          95 -10 rmoveto
          253 137 567 337 127 hvcurveto
          78 -10 90 -11 99 -7 rrcurveto
          -70 -154 -104 -337 -171 vvcurveto
          -54 callgsubr
          145 92 302 85 195 hvcurveto
          165 10 73 92 103 vvcurveto
          22 -11 8 -23 vhcurveto
          -36 -77 -40 -213 -120 -207 30 -170 hhcurveto
          -119 -122 -40 -111 -75 hvcurveto
          -61 -90 79 -21 90 54 rrcurveto
          23 38 63 9 61 hhcurveto
          11 13 -1 -1 13 hvcurveto
          -100 -280 -143 -365 -231 -118 rrcurveto
          -26 -51 60 -129 96 hhcurveto
          endchar
        </CharString>
        <CharString name="plus">
          209 244 1014 hstem
          142 1014 vstem
          571 300 -41 callsubr
          endchar
        </CharString>
        <CharString name="plusminus">
          209 145 179 hstem
          140 1014 vstem
          569 380 -41 callsubr
          -360 -764 -63 callsubr
          endchar
        </CharString>
        <CharString name="product">
          311 -60 callsubr
          hstem
          380 617 vstem
          157 -39 rmoveto
          -90 -29 -41 96 63 93 41 83 vhcurveto
          1496 617 -1489 vlineto
          -90 -29 -41 96 63 93 41 83 vhcurveto
          1528 vlineto
          55 -12 18 -102 vhcurveto
          -740 hlineto
          -56 -153 -90 -60 hvcurveto
          endchar
        </CharString>
        <CharString name="q">
          36 -539 -21 550 150 765 130 hstem
          84 220 188 200 vstem
          84 315 rmoveto
          -230 109 -95 136 169 118 157 123 79 vhcurveto
          -81 -182 -118 -269 -4 -160 rrcurveto
          -158 -4 74 -61 72 hhcurveto
          51 41 23 52 -17 hvcurveto
          -5 15 -12 44 76 vvcurveto
          261 282 647 84 182 vhcurveto
          21 43 22 61 9 28 rrcurveto
          42 13 -84 48 -31 hhcurveto
          -44 -37 -29 -31 -36 hvcurveto
          64 -34 -61 69 -103 hhcurveto
          -266 -343 -351 -369 hvcurveto
          302 -175 rmoveto
          -65 -17 57 95 274 212 339 191 -7 callsubr
          -336 -77 -221 -318 -123 hhcurveto
          493 751 rmoveto
          2 6 callsubr
          hhcurveto
          endchar
        </CharString>
        <CharString name="question">
          2 297 91 1188 -21 hstem
          619 316 vstem
          389 388 rmoveto
          47 25 76 82 62 hvcurveto
          231 290 354 48 371 vvcurveto
          172 -127 128 -184 -254 -146 -189 -170 -64 31 -88 79 84 57 62 41 vhcurveto
          16 -29 35 58 vvcurveto
          69 59 113 126 75 56 -52 -90 vhcurveto
          -292 -600 -141 -365 vvcurveto
          -68 26 -42 28 vhcurveto
          -228 -245 rmoveto
          -75 64 -78 90 5 5 0 1 6 vhcurveto
          -64 callsubr
          vhcurveto
          endchar
        </CharString>
        <CharString name="questiondown">
          2 -406 21 1167 91 hstem
          180 316 vstem
          726 782 rmoveto
          -47 -25 -76 -82 -62 hvcurveto
          -231 -290 -354 -48 -371 vvcurveto
          -172 127 -128 184 254 146 189 170 64 -31 88 -79 -84 -57 -62 -41 vhcurveto
          -16 29 -35 -58 vvcurveto
          -69 -59 -113 -126 -75 -56 52 90 vhcurveto
          292 600 141 365 vvcurveto
          68 -26 42 -28 vhcurveto
          228 245 rmoveto
          75 -64 78 -90 -5 -5 0 -1 -6 vhcurveto
          17 callgsubr
          66 85 34 120 vhcurveto
          endchar
        </CharString>
        <CharString name="quotedbl">
          -161 1156 531 hstem
          283 773 vstem
          754 1156 rmoveto
          -51 callgsubr
          -420 hmoveto
          -51 callgsubr
          endchar
        </CharString>
        <CharString name="quotedblbase">
          -107 -252 528 hstem
          359 132 vstem
          424 -197 rmoveto
          -23 -25 6 -19 18 -6 rrcurveto
          -49 callgsubr
          4 callgsubr
          -271 199 rmoveto
          4 callgsubr
          -23 -25 6 -19 18 -6 rrcurveto
          -49 callgsubr
          endchar
        </CharString>
        <CharString name="quotedblleft">
          -61 1166 528 hstem
          292 786 vstem
          809 1166 rmoveto
          -36 callgsubr
          -400 hmoveto
          -36 callgsubr
          endchar
        </CharString>
        <CharString name="quotedblright">
          -71 1191 528 hstem
          297 786 vstem
          711 1196 rmoveto
          -27 callsubr
          -60 -66 -65 -25 -25 4 -19 17 -6 rrcurveto
          -400 hmoveto
          -27 callsubr
          -61 -66 -64 -25 -25 4 -19 17 -6 rrcurveto
          endchar
        </CharString>
        <CharString name="quoteleft">
          -507 1166 528 hstem
          282 350 vstem
          416 1166 rmoveto
          58 52 29 51 21 hvcurveto
          21 51 -80 31 112 vvcurveto
          74 70 61 59 64 vhcurveto
          23 25 -6 19 -18 6 rrcurveto
          -112 40 -222 -208 -177 vvcurveto
          -105 44 -73 90 vhcurveto
          endchar
        </CharString>
        <CharString name="quoteright">
          -507 1158 528 hstem
          297 350 vstem
          313 1163 rmoveto
          -49 callgsubr
          4 callgsubr
          -23 -25 6 -19 18 -6 rrcurveto
          endchar
        </CharString>
        <CharString name="quotesinglbase">
          -507 -252 528 hstem
          9 350 vstem
          153 2 rmoveto
          4 callgsubr
          -23 -25 6 -19 18 -6 rrcurveto
          -49 callgsubr
          endchar
        </CharString>
        <CharString name="quotesingle">
          -581 1156 531 hstem
          283 353 vstem
          334 1156 rmoveto
          -51 callgsubr
          endchar
        </CharString>
        <CharString name="r">
          -221 -33 callgsubr
          hstem
          31 894 vstem
          31 94 -86 callsubr
          endchar
        </CharString>
        <CharString name="racute">
          -221 -22 callsubr
          31 894 -419 447 hintmask 10100000
          31 94 -86 callsubr
          hintmask 01010000
          521 1028 -100 callsubr
        </CharString>
        <CharString name="radical">
          397 11 -21 1020 -20 hstem
          62 1555 vstem
          488 49 rmoveto
          -18 6 20 -41 52 hhcurveto
          23 hlineto
          47 23 40 22 19 hvcurveto
          849 1484 rlineto
          66 96 24 134 79 vvcurveto
          49 -35 95 -63 -48 vhcurveto
          -20 -17 -27 -43 -19 -33 -813 -1602 rcurveline
          -129 683 rlineto
          45 -9 -104 36 -55 hhcurveto
          -25 -25 -8 -22 -18 hvcurveto
          -42 -51 -92 -106 -64 -52 rrcurveto
          -11 -9 -4 -9 -10 vvcurveto
          -31 35 -19 37 6 vhcurveto
          69 11 65 39 48 48 rrcurveto
          64 94 rmoveto
          0 0 1 1 1 vhcurveto
          -1 0 -1 -1 vhcurveto
          endchar
        </CharString>
        <CharString name="rcaron">
          -221 -33 callgsubr
          98 409 hstemhm
          31 894 -508 690 hintmask 01010000
          597 1135 rmoveto
          225 90 189 96 69 70 70 82 -82 112 -47 -59 -37 -43 -149 -113 -156 -86 -8 141 -57 111 -97 -10 -55 -6 -61 -23 20 -27 51 -67 31 -121 16 -84 6 -33 52 -41 20 11 rrcurveto
          hintmask 10100000
          -566 -1041 -86 callsubr
          endchar
        </CharString>
        <CharString name="rcommaaccent">
          -221 -22 callgsubr
          84 1045 hstemhm
          -128 329 -170 894 hintmask 01010000
          31 94 -86 callsubr
          hintmask 10100000
          -92 -276 -93 callsubr
        </CharString>
        <CharString name="registered">
          464 230 131 821 117 124 131 hstem
          190 141 655 157 184 140 vstem
          739 230 rmoveto
          397 331 367 411 327 -227 219 -323 -395 -332 -367 -410 -328 227 -219 322 hvcurveto
          -7 131 rmoveto
          -251 -150 182 244 331 264 305 330 251 151 -182 -243 -331 -265 -306 -330 hvcurveto
          -239 201 rmoveto
          -17 23 -8 29 100 77 164 133 33 vhcurveto
          -63 76 -3 -232 150 hhcurveto
          54 57 38 33 14 -16 3 -34 9 hvcurveto
          -47 11 -41 122 -50 58 rrcurveto
          142 40 100 116 107 vvcurveto
          141 -111 68 -168 -146 -146 -81 -44 -37 45 -35 32 6 6 1 3 5 vhcurveto
          53 35 81 51 92 -10 rrcurveto
          48 -5 46 -27 -59 vvcurveto
          -84 -56 -80 -163 -13 vhcurveto
          22 83 18 57 9 32 rrcurveto
          1 3 -7 3 3 vvcurveto
          13 -10 7 -17 -24 -36 -15 -33 -33 vhcurveto
          -74 -74 0 -194 -100 -178 rrcurveto
          -14 -25 -9 -20 -14 vvcurveto
          369 293 rmoveto
          1 1 -1 1 hhcurveto
          -1 -1 0 1 -1 hvcurveto
          endchar
        </CharString>
        <CharString name="ring">
          -232 1240 315 hstemhm
          441 209 hintmask 00000000
          504 1150 -59 callsubr
          hintmask 11000000
          -67 callgsubr
        </CharString>
        <CharString name="ring.cap">
          -337 1574 315 hstemhm
          342 209 hintmask 00000000
          405 1484 -59 callsubr
          hintmask 11000000
          -67 callgsubr
        </CharString>
        <CharString name="s">
          5 callsubr
          3 callgsubr
          -35 callsubr
          hintmask 11000000
          -73 callgsubr
          hintmask 10100000
          -80 callgsubr
          hintmask 11000000
          -54 -81 -54 -90 hvcurveto
          endchar
        </CharString>
        <CharString name="sacute">
          5 callsubr
          87 487 3 callgsubr
          -145 447 -78 callgsubr
          543 949 -100 callsubr
        </CharString>
        <CharString name="scaron">
          5 callsubr
          98 409 3 callgsubr
          -212 691 -78 callgsubr
          612 961 -84 callsubr
        </CharString>
        <CharString name="scedilla">
          -189 -460 533 -82 1044 hstemhm
          40 338 -179 238 -28 257 hintmask 10101000
          160 12 rmoveto
          109 -51 -36 -176 -108 -69 -48 callsubr
          59 -25 68 -36 52 hvcurveto
          164 12 168 115 154 219 -240 126 162 vvcurveto
          89 61 44 75 77 70 -71 -106 -35 vhcurveto
          -9 -29 20 -31 32 -6 rrcurveto
          63 -12 105 54 115 vvcurveto
          hintmask 01010000
          83 -80 125 -219 -243 -129 -172 -134 vhcurveto
          -230 240 -157 -123 vvcurveto
          -70 -60 -33 -48 -97 -33 90 70 32 -28 9 -12 -54 -81 -54 -90 -56 41 -71 95 -34 vhcurveto
          endchar
        </CharString>
        <CharString name="scircumflex">
          5 callsubr
          -4 callsubr
          199 238 -132 711 -607 257 -68 callsubr
          hintmask 10001000
          -71 callsubr
          hintmask 01010000
          416 980 -101 callgsubr
          endchar
        </CharString>
        <CharString name="scommaaccent">
          -189 -22 callgsubr
          85 1044 hstemhm
          47 329 -177 238 -28 257 -35 callsubr
          hintmask 01010000
          -73 callgsubr
          hintmask 01001000
          -80 callgsubr
          hintmask 01010000
          -54 -81 -54 -90 hvcurveto
          hintmask 10100000
          90 -355 -93 callsubr
        </CharString>
        <CharString name="section">
          140 -439 2116 -1984 418 hstemhm
          216 271 -72 372 -82 163 hintmask 10101000
          152 3 rmoveto
          -50 -10 -92 -65 -135 vvcurveto
          -116 102 -116 190 215 171 152 210 70 -15 63 -24 60 vhcurveto
          190 27 169 142 188 260 -303 336 220 vvcurveto
          142 84 127 122 89 55 -65 -79 -3 vhcurveto
          -4 -104 -104 -70 -59 -46 rrcurveto
          -12 -11 -5 -14 -12 vvcurveto
          -44 47 -57 71 137 113 155 139 142 -88 185 -252 -239 -187 -175 -252 -92 29 -90 41 -88 vhcurveto
          -198 -35 -152 -171 -184 -345 297 -157 -227 vvcurveto
          hintmask 01101000
          -81 -30 -87 -115 -92 -34 86 94 25 0 25 9 27 vhcurveto
          10 49 -41 12 -42 -8 rrcurveto
          437 235 rmoveto
          hintmask 10010000
          -78 136 -96 121 144 vvcurveto
          103 76 111 103 21 vhcurveto
          89 -162 104 -156 -145 vvcurveto
          -81 -56 -97 -99 -13 -15 1 4 -15 vhcurveto
          endchar
        </CharString>
        <CharString name="semicolon">
          -415 -291 1240 hstem
          -2 558 vstem
          399 643 rmoveto
          -64 callsubr
          4 callsubr
          -241 -650 -31 callgsubr
        </CharString>
        <CharString name="seven">
          -86 1556 -21 hstem
          217 902 vstem
          218 172 rmoveto
          -126 -13 97 -56 71 hhcurveto
          56 -1 36 44 1 hvcurveto
          10 520 608 611 70 194 rrcurveto
          41 15 -78 99 -73 -67 -132 -68 -191 hhcurveto
          -183 -65 70 -2 -60 hvcurveto
          -20 -1 -6 -20 -4 -27 -5 -33 3 -61 24 -33 rrcurveto
          -62 40 57 -35 106 hhcurveto
          97 218 67 62 142 hvcurveto
          -146 -219 -523 -547 -48 -454 rrcurveto
          endchar
        </CharString>
        <CharString name="six">
          80 925 502 149 -21 hstem
          376 446 vstem
          139 429 rmoveto
          -207 90 -232 253 238 312 240 352 230 -135 113 -151 -140 -125 -74 -92 -75 vhcurveto
          333 83 239 335 198 hhcurveto
          62 26 -35 -43 -65 -49 -50 -89 -44 hvcurveto
          -59 -29 49 -146 125 20 rrcurveto
          101 16 82 122 136 vvcurveto
          121 -76 125 -184 -365 -410 -514 -612 vhcurveto
          219 -148 rmoveto
          278 -1 167 236 175 hhcurveto
          84 39 -77 -93 -251 -188 -264 -156 -92 -28 103 68 hvcurveto
          endchar
        </CharString>
        <CharString name="slash">
          -225 -25 callsubr
          -160 1342 vstem
          -104 -192 rmoveto
          -68 -40 -65 -88 107 hhcurveto
          62 49 30 84 49 hvcurveto
          177 303 760 1380 112 172 rrcurveto
          120 78 30 82 -81 hhcurveto
          -69 -56 -43 -70 -44 hvcurveto
          -148 -236 -835 -1519 -86 -147 rrcurveto
          endchar
        </CharString>
        <CharString name="space">
          -427 endchar
        </CharString>
        <CharString name="sterling">
          307 113 168 -92 440 hstemhm
          -48 1433 hintmask 01100000
          167 -10 rmoveto
          108 110 59 86 74 hvcurveto
          12 14 12 17 12 19 rrcurveto
          -85 129 110 -110 212 hhcurveto
          147 139 76 151 -11 hvcurveto
          32 -2 -20 33 -25 hhcurveto
          -9 -9 -4 -11 -9 hvcurveto
          -49 -39 -63 -29 -129 hhcurveto
          -148 -93 66 60 -110 hvcurveto
          42 91 42 108 42 114 93 2 90 -3 64 -7 40 -5 29 16 -6 31 rrcurveto
          56 -11 -59 61 -119 hhcurveto
          -21 -22 -1 -1 -24 hvcurveto
          327 120 123 319 139 hhcurveto
          78 20 -58 -70 -112 -119 -128 -127 -79 hvcurveto
          -11 -7 -5 -12 -14 vvcurveto
          -48 57 -74 74 120 171 250 194 146 -60 150 -200 -326 -171 -423 -389 -134 vhcurveto
          -105 -17 -92 -23 -28 -22 -22 -19 23 -87 61 15 32 7 40 7 45 5 -27 -81 -26 -76 -27 -68 rrcurveto
          11 -42 -47 8 -53 hhcurveto
          -159 -115 -127 -114 -93 64 -85 151 hvcurveto
          hintmask 10100000
          -7 123 rmoveto
          -45 -23 34 37 43 34 55 80 -1 hvcurveto
          39 -1 36 -6 33 -9 rrcurveto
          -94 -47 -49 -58 -58 hhcurveto
          endchar
        </CharString>
        <CharString name="summation">
          331 0 1426 150 -21 hstem
          70 1203 vstem
          95 -3 rmoveto
          -86 -49 17 -101 128 hhcurveto
          830 hlineto
          116 56 64 36 10 hvcurveto
          61 17 -26 29 -152 hhcurveto
          -721 hlineto
          534 650 rlineto
          24 37 7 29 25 vvcurveto
          17 -2 17 -7 13 vhcurveto
          -441 636 585 2 rlineto
          151 101 15 60 55 -28 -1 -133 hvcurveto
          -770 hlineto
          -64 -95 -103 -52 -12 2 -13 7 -14 hvcurveto
          77 -161 246 -323 143 -207 rrcurveto
          endchar
        </CharString>
        <CharString name="t">
          -321 -10 1313 hstem
          103 704 vstem
          104 -89 callgsubr
          endchar
        </CharString>
        <CharString name="tbar">
          -321 -10 1313 -780 155 hstemhm
          39 718 -654 704 hintmask 10100000
          104 254 rmoveto
          -187 -10 95 -77 130 hhcurveto
          136 124 101 68 33 hvcurveto
          37 25 7 66 -41 -37 -65 -97 -123 hhcurveto
          -56 -18 27 47 63 25 105 38 119 hvcurveto
          hintmask 01100000
          -2 103 98 -1 50 16 callsubr
          -283 -6 22 60 23 61 24 59 rlinecurve
          8 hlineto
          hintmask 10010000
          192 120 43 89 12 -7 9 -17 hvcurveto
          -88 6 -3 -127 hhcurveto
          -24 hlineto
          29 66 27 58 22 46 rrcurveto
          70 32 -65 61 -59 hhcurveto
          -48 -23 -18 -56 -31 hvcurveto
          -39 -70 -37 -79 -34 -81 rrcurveto
          -79 hlineto
          -50 -55 -52 -29 -26 7 -22 121 -11 hvcurveto
          -24 -65 -23 -64 -19 -62 rrcurveto
          -27 hlineto
          -4 callgsubr
          95 -6 rcurveline
          -34 -121 -21 -102 -2 -55 rrcurveto
          endchar
        </CharString>
        <CharString name="tcaron">
          -38 -10 1313 -141 524 hstemhm
          135 704 -7 339 hintmask 10100000
          136 -89 callgsubr
          hintmask 01010000
          721 909 -72 callsubr
        </CharString>
        <CharString name="tcommaaccent">
          -321 -22 callgsubr
          84 1313 hstemhm
          6 329 -232 704 hintmask 01010000
          104 -89 callgsubr
          hintmask 10100000
          -31 -436 -93 callsubr
        </CharString>
        <CharString name="thorn">
          75 -560 2246 hstem
          -175 1229 vstem
          254 96 rmoveto
          -61 38 58 -45 85 hhcurveto
          270 349 348 365 229 -104 103 -142 -161 -105 -118 -129 -87 hvcurveto
          95 245 132 375 6 157 rrcurveto
          81 3 -63 40 -52 -28 callgsubr
          -34 -239 -113 -310 -109 -342 -119 -375 -101 -400 -182 -365 rrcurveto
          -73 -36 62 -58 60 hhcurveto
          48 14 17 19 18 hvcurveto
          63 66 99 298 90 256 rrcurveto
          72 155 rmoveto
          232 297 402 123 64 22 -57 -95 -274 -216 -339 -191 -66 -33 57 74 vhcurveto
          endchar
        </CharString>
        <CharString name="three">
          44 109 486 982 -21 hstemhm
          367 302 -157 413 hintmask 11010000
          84 224 rmoveto
          -110 88 -124 208 296 208 240 212 108 -56 90 -72 20 vhcurveto
          130 66 240 217 271 vvcurveto
          168 -84 174 -258 -285 -224 -259 -196 -110 56 -80 94 -9 callsubr
          120 151 152 84 57 -63 -104 -257 -222 -177 -192 -57 vhcurveto
          -57 -17 -29 -78 -46 vvcurveto
          -52 77 31 58 vhcurveto
          hintmask 11100000
          57 52 -29 -111 -152 -127 -203 -157 -71 -25 48 43 57 23 35 49 56 hvcurveto
          27 24 -45 53 -67 hhcurveto
          -128 -61 -120 -84 hvcurveto
          endchar
        </CharString>
        <CharString name="threequarters">
          1008 424 13 401 67 672 -21 hstemhm
          300 225 -67 233 -183 1393 hintmask 10000100
          566 -56 callsubr
          652 478 rmoveto
          -2 -53 62 -89 67 -15 61 -18 83 7 89 9 -36 -81 -41 -77 -41 -56 rrcurveto
          -54 -40 -3 0 callgsubr
          34 1 33 -2 33 -4 88 -11 -63 117 -63 27 rrcurveto
          49 110 29 96 53 vvcurveto
          44 -62 15 callsubr
          -96 -40 -105 -99 -12 -108 -10 -40 22 rrcurveto
          11 callsubr
          -166 1 callgsubr
          hintmask 01101000
          -892 12 -53 callsubr
          hintmask 01110000
          -30 callsubr
        </CharString>
        <CharString name="threesuperior">
          -174 838 67 672 -21 hstemhm
          376 225 -67 233 hintmask 11010000
          402 480 -53 callsubr
          hintmask 11100000
          -30 callsubr
        </CharString>
        <CharString name="tilde">
          -242 1211 -34 callsubr
          122 777 hintmask 00000000
          hintmask 10100000
          207 1258 -46 callsubr
        </CharString>
        <CharString name="tilde.cap">
          -203 1642 -34 callsubr
          168 777 hintmask 00000000
          hintmask 10100000
          253 1689 -46 callsubr
        </CharString>
        <CharString name="trademark">
          1165 -60 callsubr
          hstem
          733 109 610 282 vstem
          842 765 rmoveto
          -19 33 -15 24 192 108 428 228 131 vhcurveto
          -17 -117 -27 -170 -144 vvcurveto
          -165 52 -59 79 82 182 481 187 138 vhcurveto
          -37 -163 -48 -202 -130 vvcurveto
          -42 5 -34 12 -24 vhcurveto
          -67 33 72 -7 43 hhcurveto
          50 36 35 35 -27 hvcurveto
          -24 31 -9 53 63 182 74 269 98 vvcurveto
          42 -30 16 -39 -55 -41 -13 -38 -56 vhcurveto
          -113 -77 -116 -308 -98 -154 rrcurveto
          19 1 19 20 vvcurveto
          187 71 202 -9 74 vhcurveto
          52 -6 -16 17 -41 hhcurveto
          -77 -82 -33 -80 -61 hvcurveto
          -52 -69 -195 -454 -100 -100 rrcurveto
          -30 -30 -12 -11 -13 vvcurveto
          -212 -34 rmoveto
          67 65 60 11 -42 hvcurveto
          -50 13 -18 53 48 vvcurveto
          131 99 227 49 120 vhcurveto
          -2 42 44 -3 106 hhcurveto
          83 65 66 40 18 -13 14 -28 -2 hvcurveto
          -1 -20 -19 -1 -19 -150 -111 32 -193 hhcurveto
          -189 -62 -67 -79 -22 11 -8 23 33 52 17 3 181 hvcurveto
          -70 -131 -92 -205 -159 vvcurveto
          -119 67 -54 89 vhcurveto
          endchar
        </CharString>
        <CharString name="two">
          18 -1 callsubr
          hstem
          506 393 vstem
          21 78 rmoveto
          -37 47 -49 34 5 5 1 2 4 vhcurveto
          30 60 36 48 88 123 130 -83 136 hhcurveto
          131 95 71 123 38 -10 30 -20 hvcurveto
          -60 -15 -68 -183 hhcurveto
          -79 -113 17 -5 -62 hvcurveto
          -42 -3 -65 -15 -47 -21 rrcurveto
          185 263 686 325 469 vvcurveto
          166 -91 176 -251 -277 -202 -249 -196 -101 52 -99 98 -9 callsubr
          90 151 152 86 65 -58 -117 -352 -692 -378 -183 -426 vhcurveto
          -2 -5 -1 -4 -6 vvcurveto
          endchar
        </CharString>
        <CharString name="twosuperior">
          -118 655 436 486 -21 hstem
          525 253 vstem
          234 477 -61 callsubr
          endchar
        </CharString>
        <CharString name="u">
          77 -33 callgsubr
          -45 callsubr
          hintmask 11000000
          48 170 rmoveto
          -107 68 -73 109 179 197 294 171 129 vhcurveto
          -29 -71 -34 -97 -16 -89 rrcurveto
          -140 -25 89 -68 91 hhcurveto
          117 60 68 39 24 hvcurveto
          42 24 8 -18 callgsubr
          -17 -31 -66 hhcurveto
          -41 -13 42 96 13 hvcurveto
          19 138 193 400 47 95 rrcurveto
          54 27 -75 44 -69 hhcurveto
          -28 -28 -20 -21 -16 hvcurveto
          -29 -37 -123 -230 -54 -86 rrcurveto
          -185 -98 -227 -287 -80 hhcurveto
          hintmask 10100000
          -94 callgsubr
          hintmask 11000000
          -41 -216 -195 -277 -3 callsubr
          endchar
        </CharString>
        <CharString name="uacute">
          77 -10 1045 87 487 -45 callsubr
          -29 447 -105 callsubr
          hintmask 01001000
          616 952 -100 callsubr
        </CharString>
        <CharString name="ubreve">
          77 -33 callgsubr
          126 167 -45 callsubr
          -76 627 -105 callsubr
          hintmask 01001000
          760 991 -103 callsubr
        </CharString>
        <CharString name="ucircumflex">
          77 -10 1045 109 434 -45 callsubr
          -195 711 -105 callsubr
          hintmask 01001000
          539 983 -101 callgsubr
          endchar
        </CharString>
        <CharString name="udieresis">
          77 -10 1045 175 297 -45 callsubr
          128 153 -105 callsubr
          hintmask 01001000
          1030 1041 -102 callsubr
        </CharString>
        <CharString name="ugrave">
          77 -33 callgsubr
          86 486 -45 callsubr
          -9 287 -105 callsubr
          hintmask 01001000
          835 951 -85 callgsubr
        </CharString>
        <CharString name="uhungarumlaut">
          77 -10 1045 87 487 -45 callsubr
          -196 778 -105 callsubr
          hintmask 01001000
          809 952 -76 callgsubr
        </CharString>
        <CharString name="umacron">
          77 -33 callgsubr
          148 185 -45 callsubr
          -180 718 -105 callsubr
          hintmask 01001000
          446 1028 -88 callgsubr
        </CharString>
        <CharString name="underscore">
          31 -348 172 hstem
          -328 1347 vstem
          -213 -180 rmoveto
          -89 -93 -168 133 hhcurveto
          1159 hlineto
          107 69 172 -107 hhcurveto
          endchar
        </CharString>
        <CharString name="uni0001">
          endchar
        </CharString>
        <CharString name="uni0002">
          endchar
        </CharString>
        <CharString name="uni0003">
          endchar
        </CharString>
        <CharString name="uni0004">
          endchar
        </CharString>
        <CharString name="uni0005">
          endchar
        </CharString>
        <CharString name="uni0006">
          endchar
        </CharString>
        <CharString name="uni0007">
          endchar
        </CharString>
        <CharString name="uni0008">
          endchar
        </CharString>
        <CharString name="uni0009">
          endchar
        </CharString>
        <CharString name="uni0015">
          endchar
        </CharString>
        <CharString name="uni0016">
          endchar
        </CharString>
        <CharString name="uni0017">
          endchar
        </CharString>
        <CharString name="uni0018">
          endchar
        </CharString>
        <CharString name="uni0019">
          endchar
        </CharString>
        <CharString name="uni00AD">
          651 endchar
        </CharString>
        <CharString name="uni1E02">
          74 -29 callsubr
          274 510 -124 354 -290 307 hintmask 10010000
          -62 callgsubr
          hintmask 10100000
          -36 callsubr
          hintmask 01001000
          600 1409 rmoveto
          -85 callsubr
        </CharString>
        <CharString name="uni1E03">
          21 -16 callsubr
          -476 -26 callgsubr
          81 920 -174 307 hintmask 10100000
          -58 callsubr
          hintmask 01010000
          716 980 rmoveto
          -85 callsubr
        </CharString>
        <CharString name="uni1E0A">
          -8 callgsubr
          114 -26 callgsubr
          693 400 -342 307 hintmask 11010000
          -81 callgsubr
          hintmask 00101000
          820 1449 rmoveto
          -85 callsubr
        </CharString>
        <CharString name="uni1E0B">
          85 -16 callsubr
          -476 -26 callgsubr
          307 389 -317 307 hintmask 10100000
          -86 callgsubr
          hintmask 01010000
          136 1071 rmoveto
          -85 callsubr
        </CharString>
        <CharString name="uni1E1E">
          6 15 callgsubr
          62 1207 -478 307 hintmask 10010000
          -55 callgsubr
          hintmask 01010000
          -87 callgsubr
          46 hvcurveto
          -94 -122 -70 -229 -72 -226 -81 -27 -100 -45 -1 -45 rrcurveto
          -27 36 -35 33 -1 vhcurveto
          5 4 0 2 5 hvcurveto
          14 5 15 4 15 4 -82 -230 -102 -211 -108 -78 rrcurveto
          -10 -7 -5 -12 -12 vvcurveto
          hintmask 00101000
          879 1609 rmoveto
          -85 callsubr
        </CharString>
        <CharString name="uni1E1F">
          -250 -281 1967 15 -26 callgsubr
          -41 1141 -508 307 hintmask 10100000
          -70 callgsubr
          hintmask 01010000
          770 1876 rmoveto
          -85 callsubr
        </CharString>
        <CharString name="uni1E40">
          852 -29 callsubr
          873 498 -29 307 hintmask 10100000
          -77 callgsubr
          hintmask 01010000
          1596 1680 rmoveto
          -85 callsubr
        </CharString>
        <CharString name="uni1E41">
          613 3 callsubr
          879 307 vstem
          -40 callgsubr
          162 108 223 317 79 hhcurveto
          22 19 -12 -27 -19 -13 -41 -18 -39 hvcurveto
          -32 callsubr
          -52 callgsubr
          -17 callsubr
          104 647 rmoveto
          -85 callsubr
        </CharString>
        <CharString name="uni1E56">
          78 -29 callsubr
          -72 1341 -442 307 hintmask 10100000
          -66 callsubr
          hintmask 01010000
          970 1677 rmoveto
          -85 callsubr
        </CharString>
        <CharString name="uni1E57">
          72 -560 1595 -10 callgsubr
          -142 1193 -592 372 -252 307 hintmask 10100000
          -32 callgsubr
          hintmask 10010000
          -53 callgsubr
          hintmask 01001000
          405 960 rmoveto
          -85 callsubr
        </CharString>
        <CharString name="uni1E60">
          -85 -1 callsubr
          113 -26 callgsubr
          243 -11 callgsubr
          -19 307 hintmask 00000000
          47 232 rmoveto
          -86 73 -156 219 205 201 162 200 vhcurveto
          hintmask 10010000
          -92 callsubr
          -37 callgsubr
          hintmask 10100000
          -76 callsubr
          hintmask 10010000
          -28 callsubr
          hintmask 01001000
          809 1438 rmoveto
          -85 callsubr
        </CharString>
        <CharString name="uni1E61">
          5 callsubr
          175 297 3 callgsubr
          -112 307 -78 callgsubr
          680 1038 rmoveto
          -85 callsubr
        </CharString>
        <CharString name="uni1E6A">
          -175 15 callgsubr
          77 1162 -527 307 hintmask 10010000
          77 -74 callsubr
          hintmask 01010000
          -87 callgsubr
          45 hvcurveto
          -228 -506 -47 -599 -242 -156 rrcurveto
          -22 -14 -13 -5 -12 vvcurveto
          hintmask 00101000
          785 1609 rmoveto
          -85 callsubr
        </CharString>
        <CharString name="uni1E6B">
          -321 -10 1313 34 -26 callgsubr
          103 704 -331 307 hintmask 10100000
          104 -89 callgsubr
          hintmask 01010000
          522 1084 rmoveto
          -85 callsubr
        </CharString>
        <CharString name="uogonek">
          77 -5 callgsubr
          -113 1045 -45 callsubr
          -130 479 hintmask 01100000
          48 170 rmoveto
          -107 68 -73 109 179 197 294 171 129 vhcurveto
          -29 -71 -34 -97 -16 -89 -21 -114 55 -67 71 -20 rrcurveto
          hintmask 10001000
          -123 -93 -116 -141 -130 vvcurveto
          -79 callsubr
          61 56 36 22 23 29 13 21 rlinecurve
          42 24 8 -18 callgsubr
          -17 -31 -66 hhcurveto
          -41 -13 42 96 13 hvcurveto
          19 138 193 400 47 95 rrcurveto
          hintmask 01010000
          54 27 -75 44 -69 hhcurveto
          -28 -28 -20 -21 -16 hvcurveto
          -29 -37 -123 -230 -54 -86 rrcurveto
          -185 -98 -227 -287 -80 hhcurveto
          -90 callsubr
          endchar
        </CharString>
        <CharString name="uring">
          77 -33 callgsubr
          205 315 -45 callsubr
          102 209 -105 callsubr
          hintmask 00000000
          764 980 -59 callsubr
          hintmask 01001000
          -67 callgsubr
        </CharString>
        <CharString name="utilde">
          77 -12 callsubr
          48 1072 -851 378 -181 -2 callsubr
          48 170 rmoveto
          -107 68 -73 109 179 197 294 171 129 vhcurveto
          -29 -71 -34 -97 -16 -89 rrcurveto
          -140 -25 89 -68 91 hhcurveto
          117 60 68 39 24 hvcurveto
          42 24 8 -18 callgsubr
          -17 -31 -66 hhcurveto
          -41 -13 42 96 13 hvcurveto
          19 138 193 400 47 95 rrcurveto
          54 27 -75 44 -69 hhcurveto
          -28 -28 -20 -21 -16 hvcurveto
          -29 -37 -123 -230 -54 -86 rrcurveto
          -185 -98 -227 -287 -80 hhcurveto
          hintmask 10001000
          -94 callgsubr
          hintmask 10010000
          -41 -216 -195 -277 -3 callsubr
          hintmask 00000000
          503 1088 rmoveto
          46 32 34 58 71 84 17 -151 146 hhcurveto
          137 165 145 118 6 hvcurveto
          hintmask 01000100
          3 81 -71 -7 -17 -46 rrcurveto
          -46 -29 -42 -58 -76 -85 -18 151 -146 hhcurveto
          -135 -155 -145 -118 -6 hvcurveto
          hintmask 00100100
          -3 -81 68 9 20 44 rrcurveto
          endchar
        </CharString>
        <CharString name="v">
          -10 -33 callgsubr
          hstem
          526 208 vstem
          61 170 rmoveto
          -107 80 -73 113 373 393 434 398 160 -81 53 -55 -118 -50 -68 -30 24 vhcurveto
          39 -46 20 -55 -127 vvcurveto
          -229 -219 -340 -233 -41 -24 34 44 vhcurveto
          148 244 370 180 vvcurveto
          59 -42 60 -93 -37 callsubr
          -39 75 16 -15 -81 vhcurveto
          -39 -216 -187 -257 -201 vvcurveto
          endchar
        </CharString>
        <CharString name="w">
          482 -33 callgsubr
          hstemhm
          862 436 -259 187 hintmask 11000000
          176 -6 rmoveto
          56 38 23 28 42 hvcurveto
          133 87 120 140 93 135 rrcurveto
          -8 -42 -4 -43 -44 vvcurveto
          -173 67 -115 156 261 378 429 403 168 -81 45 -65 -115 -38 -68 -30 24 vhcurveto
          36 -45 29 -86 -97 vvcurveto
          -257 -187 -302 -183 -52 -40 66 87 164 114 213 50 103 vhcurveto
          hintmask 10100000
          12 27 29 52 -2 37 -1 26 -22 26 -49 2 -103 4 -23 -22 -20 -42 -184 -392 -247 -294 -117 -39 rrcurveto
          36 214 205 357 177 vvcurveto
          59 -48 60 -107 -37 callsubr
          -39 107 -16 -15 -81 vhcurveto
          -41 -198 -146 -287 -25 -142 rrcurveto
          -131 -22 76 -60 47 hhcurveto
          endchar
        </CharString>
        <CharString name="wacute">
          482 -22 callsubr
          744 447 -329 436 -259 187 hintmask 10010000
          -94 callsubr
          hintmask 01100000
          614 1128 -100 callsubr
        </CharString>
        <CharString name="wcircumflex">
          482 1 callsubr
          578 711 -427 436 -259 187 hintmask 10010000
          -94 callsubr
          hintmask 01100000
          537 1159 -101 callgsubr
          endchar
        </CharString>
        <CharString name="wdieresis">
          482 2 callsubr
          862 436 -397 153 -15 187 hintmask 10100000
          -94 callsubr
          hintmask 01010000
          1028 1217 -102 callsubr
        </CharString>
        <CharString name="wgrave">
          482 -33 callgsubr
          86 486 hstemhm
          764 287 -189 436 -259 187 hintmask 10010000
          -94 callsubr
          hintmask 01100000
          833 1127 -85 callgsubr
        </CharString>
        <CharString name="x">
          -99 512 19 hstem
          333 147 vstem
          40 -9 rmoveto
          85 159 192 110 74 hvcurveto
          -205 81 84 -98 106 hhcurveto
          105 72 70 39 22 hvcurveto
          -34 callgsubr
          -29 -33 -66 hhcurveto
          -98 -46 172 155 -45 hvcurveto
          102 137 183 173 96 69 108 76 31 -3 9 13 33 57 -149 38 -63 -27 -130 -50 -118 -129 -80 -111 -20 -26 -25 -41 -21 -36 -15 99 -11 131 2 52 rrcurveto
          77 5 5 43 -39 hhcurveto
          -83 -108 -75 -115 -6 hvcurveto
          -4 -127 41 -160 43 -119 -118 -172 -147 -118 -72 -56 rrcurveto
          -37 -50 70 -65 52 hhcurveto
          endchar
        </CharString>
        <CharString name="y">
          -8 callsubr
          hstem
          58 1071 vstem
          -98 callgsubr
          endchar
        </CharString>
        <CharString name="yacute">
          -8 callsubr
          8 callgsubr
          58 1071 -563 447 hintmask 10100000
          -98 callgsubr
          hintmask 01010000
          554 952 -100 callsubr
        </CharString>
        <CharString name="ycircumflex">
          -8 callsubr
          -4 callsubr
          58 1071 -729 711 hintmask 10100000
          -98 callgsubr
          hintmask 01010000
          477 983 -101 callgsubr
          endchar
        </CharString>
        <CharString name="ydieresis">
          -8 callsubr
          -10 callgsubr
          58 1071 -406 153 hintmask 10100000
          -98 callgsubr
          hintmask 01010000
          968 1041 -102 callsubr
        </CharString>
        <CharString name="yen">
          139 379 133 1060 -21 hstem
          115 1343 vstem
          184 298 rmoveto
          -32 10 -26 257 -7 vhcurveto
          -20 -64 -18 -63 -6 -53 rrcurveto
          -44 -5 24 -18 52 hhcurveto
          48 55 14 60 16 hvcurveto
          6 24 19 66 26 78 rrcurveto
          163 8 120 43 80 vvcurveto
          12 -7 9 -17 vhcurveto
          -80 -30 -3 -100 hhcurveto
          17 47 16 47 16 39 rrcurveto
          148 12 107 42 75 vvcurveto
          12 -7 9 -17 -68 -31 -2 -1 -68 vhcurveto
          176 353 273 270 122 111 53 49 22 2 2 41 2 39 -83 56 -90 -25 -77 -24 -131 -115 -122 -172 -133 -187 -84 -160 -66 -128 rrcurveto
          348 -29 -112 431 -207 hhcurveto
          -112 -99 -104 -59 -11 10 -18 22 hvcurveto
          37 -12 24 63 hhcurveto
          74 216 -402 -321 20 hvcurveto
          -1 -65 -67 0 -54 hhcurveto
          -50 -55 -52 -29 -32 10 -26 260 -7 hvcurveto
          -2 -37 -11 -46 -14 -50 rrcurveto
          -1 -71 -77 0 -60 hhcurveto
          -50 -55 -52 -29 hvcurveto
          endchar
        </CharString>
        <CharString name="ygrave">
          -8 callsubr
          86 486 hstemhm
          58 1071 -543 287 hintmask 10100000
          -98 callgsubr
          hintmask 01010000
          773 951 -85 callgsubr
        </CharString>
        <CharString name="z">
          -175 11 -21 72 155 608 142 51 -20 37 -20 hstemhm
          -11 935 hintmask 11101100
          -8 124 rmoveto
          -22 -61 113 -84 41 11 72 20 80 55 155 -3 rrcurveto
          -3 149 56 -69 53 hhcurveto
          26 18 19 25 102 -61 81 -133 -118 -112 -29 -27 -80 hvcurveto
          136 250 559 298 189 vvcurveto
          hintmask 11110100
          37 -51 83 -42 vhcurveto
          -68 -35 -51 -126 hhcurveto
          hintmask 11101100
          -189 -102 68 -46 hhcurveto
          -24 -20 -24 -38 -98 53 -50 137 65 145 22 37 83 hvcurveto
          -62 -99 -546 -365 -104 -296 rrcurveto
          224 10 rmoveto
          6 callsubr
          vvcurveto
          2 -1 -1 -1 -2 -1 rrcurveto
          endchar
        </CharString>
        <CharString name="zacute">
          -175 1122 487 hstem
          530 447 -83 callsubr
          360 988 -100 callsubr
        </CharString>
        <CharString name="zcaron">
          -175 1133 409 hstem
          383 691 -83 callsubr
          349 1000 -84 callsubr
        </CharString>
        <CharString name="zdotaccent">
          -175 3 callsubr
          483 307 -83 callsubr
          417 1077 rmoveto
          -85 callsubr
        </CharString>
        <CharString name="zero">
          217 -60 callsubr
          hstem
          135 1143 vstem
          451 -10 rmoveto
          422 365 583 532 38 hvcurveto
          304 22 -125 146 -200 hhcurveto
          -434 -363 -585 -534 -39 hvcurveto
          -290 -21 112 -156 223 hhcurveto
          -120 331 rmoveto
          465 33 340 639 249 hhcurveto
          112 22 -92 -115 -8 hvcurveto
          -433 -31 -331 -665 -260 hhcurveto
          -87 -47 76 125 8 hvcurveto
          endchar
        </CharString>
      <CharString index="0">
        -61 -10 rmoveto
        129 82 105 55 41 hvcurveto
        97 136 60 152 104 189 122 8 134 4 113 2 -39 -139 -28 -137 -9 -120 rrcurveto
        -180 -14 94 -75 115 hhcurveto
        120 105 90 82 -5 callsubr
        hvcurveto
        -107 callsubr
        return
      </CharString>
      <CharString index="1">
        -114 86 -168 276 215 145 110 70 56 vhcurveto
        20 25 9 37 36 vvcurveto
        49 -17 45 -31 -16 -19 -11 -27 -22 vhcurveto
        -63 -52 -132 -139 -166 hhcurveto
        -72 -49 57 70 159 166 148 157 62 hvcurveto
        37 17 37 10 33 3 rrcurveto
        22 1 12 19 23 vvcurveto
        41 -37 56 -81 -26 -32 -6 -14 -36 vhcurveto
        -55 -10 -61 49 95 vvcurveto
        216 228 299 266 70 30 -31 -53 -94 -132 -94 -120 -83 8 callsubr
        -15 -13 -26 vvcurveto
        -51 62 -65 73 7 vhcurveto
        return
      </CharString>
      <CharString index="2">
        -10 rmoveto
        174 118 171 119 59 hvcurveto
        -6 -38 -4 -37 -10 vvcurveto
        -152 90 -53 84 -25 callgsubr
        vhcurveto
        -34 callgsubr
        -22 -28 -66 hhcurveto
        -71 4 80 50 4 hvcurveto
        10 139 196 400 49 94 rrcurveto
        54 26 -79 44 -69 hhcurveto
        -28 -27 -21 -20 -16 hvcurveto
        -15 -14 -19 -28 -17 -28 rrcurveto
        57 -36 -58 54 -91 hhcurveto
        -262 -329 -344 -369 -14 hvcurveto
        -187 -7 92 -145 156 hhcurveto
        -19 272 rmoveto
        315 211 328 186 66 31 -67 -44 3 vhcurveto
        -310 -83 -214 -342 -123 hhcurveto
        -57 -20 48 72 hvcurveto
        return
      </CharString>
      <CharString index="3">
        -43 -138 -43 -163 -93 vvcurveto
        -166 81 -69 114 110 76 73 39 23 vhcurveto
        13 23 9 29 20 vvcurveto
        17 -6 11 -15 vhcurveto
        -26 -29 -36 -66 hhcurveto
        -54 -17 40 56 14 1 16 2 16 hvcurveto
        23 208 221 649 135 261 rrcurveto
        55 29 -77 -66 callgsubr
        return
      </CharString>
      <CharString index="4">
        280 -8 rmoveto
        26 32 6 23 16 hvcurveto
        144 210 202 292 220 247 rrcurveto
        -52 -126 -37 -139 -170 vvcurveto
        -184 67 -161 187 387 522 614 608 198 -64 110 -82 -104 -94 -90 -38 24 vhcurveto
        47 -73 27 -95 -115 vvcurveto
        -459 -390 -514 -217 -82 -19 86 57 310 119 331 172 184 vhcurveto
        32 34 13 12 18 vvcurveto
        44 -76 25 -48 -14 -12 -3 -4 -8 vhcurveto
        -344 -169 -389 -586 -178 -312 rrcurveto
        -9 35 -3 36 36 vvcurveto
        172 98 191 101 214 vhcurveto
        91 191 116 182 114 vvcurveto
        16 -3 14 -5 13 vhcurveto
        53 -23 -70 125 -140 hhcurveto
        -88 -209 -50 -75 -40 hvcurveto
        -59 -28 86 -80 62 hhcurveto
        17 15 7 12 16 hvcurveto
        35 65 86 19 70 hhcurveto
        11 hlineto
        -190 -290 -239 -521 -281 vvcurveto
        -111 61 -169 125 vhcurveto
        return
      </CharString>
      <CharString index="5">
        -57 callgsubr
        421 424 588 517 14 hvcurveto
        335 9 -179 125 -212 hhcurveto
        -464 -389 -590 -519 -16 hvcurveto
        209 -75 rmoveto
        445 12 380 604 264 10 callsubr
        43 -107 -145 -4 hvcurveto
        -413 -11 -358 -635 -286 hhcurveto
        -105 -73 96 155 4 hvcurveto
        return
      </CharString>
      <CharString index="6">
        rmoveto
        76 28 112 73 128 113 18 -131 55 -87 85 -5 56 -4 62 31 -20 28 -53 75 -30 141 -17 96 -6 32 -95 49 -17 -17 -171 -175 -219 -134 -72 -23 -71 -22 78 -106 101 38 rrcurveto
        return
      </CharString>
      <CharString index="7">
        rmoveto
        115 3 205 117 21 112 13 67 -51 61 -71 9 -25 4 -40 -6 -10 -31 -23 -72 -27 -74 -97 -88 -32 -29 -21 -17 -3 -19 -3 -2 callgsubr
        40 1 rrcurveto
        return
      </CharString>
      <CharString index="8">
        -59 callgsubr
        225 287 64 hhcurveto
        28 27 -43 callsubr
        -47 -104 -135 -243 -177 vvcurveto
        -138 96 -56 -55 callsubr
        -34 -20 12 22 7 1 7 1 9 hvcurveto
        34 219 188 227 187 vvcurveto
        107 -83 73 -109 -44 -50 -22 -33 -48 vhcurveto
        -115 -77 -179 -257 -51 -72 rrcurveto
        -15 -22 132 247 117 vvcurveto
        60 -52 -70 callsubr
        -47 callsubr
        return
      </CharString>
      <CharString index="9">
        58 170 rmoveto
        -107 68 -73 109 205 182 300 142 116 vhcurveto
        -41 -128 -91 -298 -92 -139 -89 -134 -129 -143 -133 -33 -94 -23 83 -92 98 8 185 16 196 250 112 221 167 330 156 544 58 126 rrcurveto
        55 25 -73 43 -69 hhcurveto
        -28 -28 -20 -21 -16 hvcurveto
        -29 -37 -163 -314 -51 -86 rrcurveto
        -157 -94 -194 -231 -64 callgsubr
        -41 -216 -195 -277 -3 callsubr
        return
      </CharString>
      <CharString index="10">
        104 449 rmoveto
        -284 -11 145 -175 245 hhcurveto
        313 190 331 117 -22 hvcurveto
        140 -3 107 97 126 vvcurveto
        26 -13 15 -39 -13 vhcurveto
        -23 -69 -33 -8 -56 -73 -69 29 -52 hhcurveto
        -100 -87 -124 -19 36 hvcurveto
        52 -27 95 10 -3 -117 rrcurveto
        -122 -3 -117 -160 -156 hhcurveto
        -144 -55 140 168 7 hvcurveto
        404 14 337 580 305 hhcurveto
        60 32 -37 -58 -129 -131 -127 -115 -83 hvcurveto
        -34 -47 66 -121 96 hhcurveto
        116 185 222 202 146 -89 157 -201 -364 -468 -481 -625 -24 hvcurveto
        return
      </CharString>
      <CharString index="11">
        99 449 rmoveto
        -284 -11 151 -175 257 hhcurveto
        218 157 96 64 47 hvcurveto
        30 42 -22 152 -66 -53 rrcurveto
        -100 -124 -100 -66 -122 hhcurveto
        -139 -45 165 193 7 hvcurveto
        384 14 330 550 300 hhcurveto
        60 32 -37 -58 -129 -131 -127 -115 -83 hvcurveto
        -34 -47 66 -121 96 hhcurveto
        116 185 222 202 146 -89 157 -201 -364 -466 -481 -625 -24 hvcurveto
        return
      </CharString>
      <CharString index="12">
        rmoveto
        -132 91 -45 84 105 57 64 -33 callsubr
        42 24 2 52 -34 -26 -5 -22 -66 hhcurveto
        -28 -16 9 35 hvcurveto
        160 253 381 208 vvcurveto
        49 -49 28 -98 -74 -80 -33 -54 vhcurveto
        -39 60 17 -82 -144 -222 -355 -178 vvcurveto
        return
      </CharString>
      <CharString index="13">
        -36 -9 15 34 19 14 41 17 39 hvcurveto
        49 100 174 376 123 vvcurveto
        59 -42 60 -93 -37 callsubr
        -39 75 16 -15 -81 vhcurveto
        return
      </CharString>
      <CharString index="14">
        36 243 rmoveto
        -153 -14 89 -100 138 hhcurveto
        200 239 295 314 197 hvcurveto
        -28 -79 -31 -82 -31 -81 -162 -380 -228 -346 -264 -99 -27 -10 -18 -7 6 -27 rrcurveto
        -32 7 39 -16 35 hhcurveto
        284 304 401 392 174 hvcurveto
        170 398 132 498 160 297 rrcurveto
        55 30 -78 -66 callgsubr
        return
      </CharString>
      <CharString index="15">
        rmoveto
        200 88 163 37 59 63 74 79 -83 114 -49 -58 -31 -36 -116 -71 -128 -63 -41 104 -68 85 -100 -9 -62 -6 -73 -23 17 -36 11 -24 34 -11 27 -38 25 -36 32 -60 11 -35 rrcurveto
        5 -32 73 -41 20 9 rrcurveto
        endchar
      </CharString>
      <CharString index="16">
        341 rmoveto
        -220 -5 122 -131 219 hhcurveto
        125 111 42 88 91 hvcurveto
        104 110 -72 113 -52 -70 rrcurveto
        -79 -65 -108 -56 -101 hhcurveto
        -89 -57 71 124 3 hvcurveto
        244 7 201 328 176 hhcurveto
        44 33 -16 -46 -1 hvcurveto
        -2 -69 -36 -57 -33 -35 -26 -28 -23 -10 -4 -17 rrcurveto
        -51 -14 35 -64 99 hhcurveto
        83 101 142 135 3 hvcurveto
        181 5 -130 65 13 callsubr
        -322 -295 -331 -363 -10 hvcurveto
        return
      </CharString>
      <CharString index="17">
        72 -10 rmoveto
        161 96 84 295 hhcurveto
        119 90 -32 -38 42 hvcurveto
        -10 19 17 -4 11 hhcurveto
        26 11 19 25 28 -10 63 -16 28 hvcurveto
        98 -55 -59 20 -85 hhcurveto
        -130 -268 -52 -76 -169 hvcurveto
        201 368 857 693 187 vvcurveto
        44 -95 120 -73 vhcurveto
        -89 -154 -68 -246 hhcurveto
        -183 -35 70 -2 -60 hvcurveto
        -20 -1 -10 -20 -27 vvcurveto
        -33 4 -83 24 -33 vhcurveto
        -62 40 71 -23 106 hhcurveto
        128 213 85 65 170 hvcurveto
        -212 -232 -730 -762 -94 -256 rrcurveto
        -61 -22 52 -122 62 hhcurveto
        return
      </CharString>
      <CharString index="18">
        254 rmoveto
        -187 -10 95 -77 130 hhcurveto
        136 124 101 68 33 hvcurveto
        37 25 7 66 -41 -37 -65 -97 -123 hhcurveto
        -56 -18 27 47 119 90 263 93 231 hvcurveto
        8 hlineto
        192 120 43 89 12 -7 9 -17 hvcurveto
        -88 6 -3 -127 hhcurveto
        -24 hlineto
        29 66 27 58 22 46 rrcurveto
        70 32 -65 61 -59 hhcurveto
        -48 -23 -18 -56 -31 hvcurveto
        -39 -70 -37 -79 -34 -81 rrcurveto
        -79 hlineto
        -50 -55 -52 -29 -26 7 -22 121 -11 hvcurveto
        -94 -252 -65 -252 -5 -101 rrcurveto
        return
      </CharString>
      <CharString index="19">
        rmoveto
        -10 133 315 -5 104 hhcurveto
        86 127 187 -2 -130 hvcurveto
        -526 -10 -103 -2 -75 -153 69 -5 rlinecurve
        endchar
      </CharString>
      <CharString index="20">
        -164 -265 61 -200 hhcurveto
        -126 -173 -60 -175 -20 hvcurveto
        -69 -8 45 -92 78 hhcurveto
        9 10 2 4 9 hvcurveto
        12 6 5 13 9 vvcurveto
        8 65 68 75 71 16 rrcurveto
        8 34 35 3 36 hhcurveto
        43 45 -3 -4 return
      </CharString>
      <CharString index="21">
        84 295 rmoveto
        -230 116 -75 136 170 118 159 123 80 vhcurveto
        -5 -30 -3 -28 -9 vvcurveto
        -152 91 -63 84 109 68 -19 callsubr
        13 23 9 28 20 vvcurveto
        17 -6 12 -15 vhcurveto
        -26 -29 -36 -76 hhcurveto
        -39 -10 35 26 25 5 31 4 21 hvcurveto
        37 199 245 787 142 305 rrcurveto
        3 8 2 7 7 vvcurveto
        46 -70 23 -44 -28 -28 -17 -27 -22 vhcurveto
        -37 -46 -89 -191 -136 -466 rrcurveto
        51 -37 -56 45 -82 hhcurveto
        -266 -350 -371 -369 hvcurveto
        309 -155 rmoveto
        -65 -21 57 95 274 216 339 191 -7 callsubr
        -336 -77 -221 -318 -123 hhcurveto
        return
      </CharString>
      <CharString index="22">
        rmoveto
        23 19 17 10 19 -11 23 -23 36 hvcurveto
        -48 111 25 133 3 93 rrcurveto
        32 1 -42 12 -37 hhcurveto
        -100 -56 -76 -68 1 hvcurveto
        3 -164 148 -179 94 1 rrcurveto
        endchar
      </CharString>
      <CharString index="23">
        rmoveto
        23 19 13 24 12 -14 19 -20 17 hvcurveto
        -103 89 -25 97 -11 51 rrcurveto
        31 -7 -20 13 -22 hhcurveto
        -86 -60 -76 -68 1 hvcurveto
        3 -122 198 -101 124 1 rrcurveto
        endchar
      </CharString>
      <CharString index="24">
        105 72 72 -33 callsubr
        -34 callgsubr
        -29 -36 -66 hhcurveto
        return
      </CharString>
      <CharString index="25">
        -79 callgsubr
        -384 -709 -24 -284 vhcurveto
        return
      </CharString>
      <CharString index="26">
        81 221 rmoveto
        -135 -19 144 -96 139 hhcurveto
        381 586 498 553 271 -170 243 -476 -136 -320 -54 -96 -18 hvcurveto
        -15 -71 124 -105 73 43 rrcurveto
        73 83 142 54 134 hhcurveto
        258 102 -157 -189 -498 -559 -426 -197 -63 13 32 89 17 hvcurveto
        30 161 147 435 205 308 27 40 -52 56 -151 -20 -27 -4 -20 -7 -17 -28 -207 -336 -128 -420 -30 -214 rrcurveto
        return
      </CharString>
      <CharString index="27">
        63 -12 105 54 115 vvcurveto
        83 -80 125 -219 -243 -129 -172 -134 vhcurveto
        -230 240 -157 -123 vvcurveto
        -70 -60 -33 -48 -97 -33 90 70 32 -28 9 -12 vhcurveto
        return
      </CharString>
      <CharString index="28">
        59 -45 60 -100 -79 -95 -33 -54 vhcurveto
        -32 78 -4 -76 vvcurveto
        -120 return
      </CharString>
      <CharString index="29">
        -68 callsubr
        hintmask 10010000
        -71 callsubr
        hintmask 01001000
        return
      </CharString>
      <CharString index="30">
        -104 -10 rmoveto
        126 76 87 53 40 hvcurveto
        121 160 92 198 143 258 127 228 159 318 157 86 rrcurveto
        -114 -261 -152 -438 -370 vvcurveto
        -237 27 -82 111 178 399 1099 280 317 vhcurveto
        -109 -284 -167 -369 -52 -404 rrcurveto
        -209 -27 101 -113 138 hhcurveto
        132 63 71 39 24 hvcurveto
        42 23 2 60 -33 -25 -28 -36 -78 hhcurveto
        -57 -29 52 86 8 hvcurveto
        30 302 242 647 55 165 rrcurveto
        49 16 -62 49 -48 hhcurveto
        -64 -66 -20 -45 -66 hvcurveto
        -308 -212 -232 -608 -211 -364 24 568 237 496 31 119 rrcurveto
        74 27 -83 31 -64 hhcurveto
        -46 -85 -23 -45 -63 hvcurveto
        -176 -107 -194 -298 -132 -253 -172 -329 -163 -274 -97 -76 -38 -30 -23 -15 -66 -20 rrcurveto
        -8 -25 23 -87 106 hhcurveto
        return
      </CharString>
      <CharString index="31">
        rmoveto
        119 3 230 228 20 118 12 67 -19 61 -62 9 -42 callgsubr
        -24 -89 -90 -167 -101 -95 -29 -28 -24 -18 -3 -19 -2 -2 callgsubr
        39 1 rrcurveto
        -360 hmoveto
        119 3 230 228 20 118 12 67 -19 61 -62 9 -25 4 -41 -6 -9 -31 -21 -90 -93 -166 -101 -95 -29 -28 -25 -18 -2 -19 -3 -18 10 -20 39 1 rrcurveto
        endchar
      </CharString>
      <CharString index="32">
        235 754 180 300 165 177 -21 hstemhm
        56 776 -139 400 hintmask 11110000
        81 221 rmoveto
        -135 -19 144 -96 139 hhcurveto
        381 586 498 553 271 -170 243 -476 -136 -320 -54 -96 -18 hvcurveto
        -15 -71 124 -105 73 43 rrcurveto
        73 83 142 54 134 hhcurveto
        hintmask 11101000
        258 102 -157 -189 -498 -559 -426 -197 -63 13 32 89 17 hvcurveto
        18 98 62 202 93 212 238 -8 rcurveline
        -20 callgsubr
        -230 hlineto
        39 76 43 75 46 69 27 40 -52 56 -151 -20 -27 -4 -20 -7 -17 -28 -51 -82 -45 -87 -41 -88 rrcurveto
        -143 hlineto
        4 -56 -127 -164 130 hhcurveto
        125 -4 -86 -216 -53 -204 -18 -129 rlinecurve
        endchar
      </CharString>
      <CharString index="33">
        rmoveto
        99 3 175 141 20 112 14 77 -32 39 -71 11 -22 4 -36 -6 -7 -31 -25 -89 -1 -64 -23 callsubr
        -360 hmoveto
        99 3 175 141 20 112 14 77 -32 39 -71 11 -22 4 -35 -6 -8 -31 -23 -90 -3 -63 -23 callsubr
        endchar
      </CharString>
      <CharString index="34">
        172 187 120 162 hvcurveto
        219 -240 126 162 vvcurveto
        89 61 44 75 77 70 -71 -106 -35 vhcurveto
        -9 -29 20 -31 32 -6 rrcurveto
        return
      </CharString>
      <CharString index="35">
        -8 -4 rmoveto
        10 11 1 3 11 hvcurveto
        177 45 150 268 108 292 rrcurveto
        -80 173 84 -534 310 hhcurveto
        144 79 84 45 11 -5 16 -13 hvcurveto
        -16 -29 -21 -38 hhcurveto
        -151 -136 375 145 -183 hvcurveto
        249 201 402 193 326 vvcurveto
        87 -59 102 -113 -41 -57 -13 -40 -9 4 -7 4 -6 vhcurveto
        19 -26 8 -32 -33 vvcurveto
        -304 -357 -226 -261 -207 vhcurveto
        105 299 61 312 117 vvcurveto
        104 -107 71 -132 -42 -217 -28 -92 -41 58 -60 47 9 8 2 5 8 vhcurveto
        52 33 45 30 54 2 rrcurveto
        -197 -240 -927 -262 -190 8 callsubr
        -5 -10 -12 vvcurveto
        -30 33 -36 52 vhcurveto
        return
      </CharString>
      <CharString index="36">
        119 10 179 204 169 vvcurveto
        122 -75 144 -255 return
      </CharString>
      <CharString index="37">
        -28 -174 rmoveto
        -43 callgsubr
        42 34 51 26 vhcurveto
        129 248 62 278 121 420 rrcurveto
        6 65 66 3 61 46 43 -5 38 hhcurveto
        38 18 26 35 75 -98 53 -81 -42 -50 -6 -8 -52 hvcurveto
        338 100 69 314 131 -56 callgsubr
        -344 -57 -439 -337 -108 hvcurveto
        -9 -28 rlineto
        -82 -22 -145 -58 -54 vvcurveto
        -27 37 -35 33 5 4 0 2 5 vhcurveto
        28 10 30 9 32 7 -118 -387 -54 -233 -134 -268 rrcurveto
        return
      </CharString>
      <CharString index="38">
        -83 callgsubr
        -28 -16 19 35 return
      </CharString>
</ttFont>
